<?xml version="1.0" encoding="UTF-8"?>
<svg xmlns="http://www.w3.org/2000/svg" xmlns:xlink="http://www.w3.org/1999/xlink" width="72pt" height="72pt" viewBox="0 0 72 72" version="1.1">
<g id="surface566">
<path style="fill:none;stroke-width:1.07;stroke-linecap:round;stroke-linejoin:round;stroke:rgb(0%,0%,0%);stroke-opacity:1;stroke-miterlimit:10;" d="M 36 3.269531 L 36.578125 3.28125 L 37.148438 3.289063 L 37.730469 3.320313 L 38.300781 3.351563 L 38.878906 3.398438 L 39.449219 3.449219 L 40.019531 3.519531 L 40.589844 3.601563 L 41.160156 3.679688 L 41.730469 3.78125 L 42.289063 3.878906 L 42.859375 4 L 43.421875 4.121094 L 43.980469 4.261719 L 44.539063 4.410156 L 45.089844 4.558594 L 45.640625 4.730469 L 46.191406 4.898438 L 46.738281 5.078125 L 47.28125 5.28125 L 47.820313 5.480469 L 48.351563 5.691406 L 48.878906 5.921875 L 49.410156 6.148438 L 49.929688 6.390625 L 50.449219 6.640625 L 50.96875 6.898438 L 51.480469 7.160156 L 51.980469 7.441406 L 52.980469 8.019531 L 53.46875 8.320313 L 54.429688 8.960938 L 54.898438 9.28125 L 55.371094 9.621094 L 55.828125 9.960938 L 56.289063 10.320313 L 56.730469 10.679688 L 57.179688 11.050781 L 57.609375 11.421875 L 58.039063 11.808594 L 58.460938 12.199219 L 58.878906 12.601563 L 59.289063 13 L 59.691406 13.421875 L 60.078125 13.839844 L 60.46875 14.261719 L 60.851563 14.699219 L 61.21875 15.140625 L 36 36 L 36 3.269531 "/>
</g>
</svg>
