<?xml version="1.0" encoding="UTF-8"?>
<svg xmlns="http://www.w3.org/2000/svg" xmlns:xlink="http://www.w3.org/1999/xlink" width="72pt" height="72pt" viewBox="0 0 72 72" version="1.1">
<g id="surface541">
<path style="fill:none;stroke-width:1.07;stroke-linecap:round;stroke-linejoin:round;stroke:rgb(0%,0%,0%);stroke-opacity:1;stroke-miterlimit:10;" d="M 36 3.269531 L 36.578125 3.28125 L 37.160156 3.289063 L 37.730469 3.320313 L 38.308594 3.351563 L 38.890625 3.398438 L 39.460938 3.460938 L 40.039063 3.519531 L 40.609375 3.601563 L 41.75 3.78125 L 42.320313 3.890625 L 42.890625 4.011719 L 43.449219 4.128906 L 44.011719 4.269531 L 44.570313 4.421875 L 45.128906 4.570313 L 45.679688 4.738281 L 46.238281 4.910156 L 46.78125 5.101563 L 47.328125 5.300781 L 47.871094 5.5 L 48.410156 5.710938 L 48.941406 5.941406 L 49.46875 6.171875 L 49.988281 6.410156 L 50.511719 6.671875 L 51.03125 6.929688 L 51.539063 7.199219 L 52.050781 7.480469 L 53.050781 8.058594 L 53.539063 8.371094 L 36 36 L 36 3.269531 "/>
</g>
</svg>
