<?xml version="1.0" encoding="UTF-8"?>
<svg xmlns="http://www.w3.org/2000/svg" xmlns:xlink="http://www.w3.org/1999/xlink" width="72pt" height="72pt" viewBox="0 0 72 72" version="1.1">
<g id="surface561">
<path style="fill:none;stroke-width:1.07;stroke-linecap:round;stroke-linejoin:round;stroke:rgb(0%,0%,0%);stroke-opacity:1;stroke-miterlimit:10;" d="M 36 3.269531 L 36.578125 3.28125 L 37.160156 3.289063 L 37.738281 3.320313 L 38.320313 3.359375 L 38.898438 3.398438 L 39.480469 3.460938 L 40.058594 3.53125 L 40.628906 3.601563 L 41.210938 3.691406 L 41.78125 3.789063 L 42.351563 3.898438 L 42.921875 4.011719 L 43.488281 4.140625 L 44.050781 4.28125 L 44.609375 4.429688 L 45.171875 4.578125 L 45.730469 4.75 L 46.28125 4.929688 L 46.828125 5.121094 L 47.378906 5.308594 L 47.921875 5.519531 L 48.460938 5.738281 L 49 5.960938 L 49.53125 6.199219 L 50.058594 6.441406 L 50.578125 6.699219 L 51.101563 6.960938 L 51.609375 7.238281 L 52.121094 7.519531 L 52.621094 7.808594 L 53.121094 8.109375 L 53.609375 8.421875 L 54.101563 8.730469 L 54.578125 9.058594 L 55.058594 9.390625 L 55.519531 9.730469 L 55.988281 10.089844 L 56.449219 10.441406 L 56.898438 10.808594 L 57.339844 11.191406 L 57.78125 11.570313 L 58.210938 11.960938 L 58.628906 12.359375 L 59.050781 12.761719 L 59.460938 13.179688 L 59.859375 13.601563 L 36 36 L 36 3.269531 "/>
</g>
</svg>
