<?xml version="1.0" encoding="UTF-8"?>
<svg xmlns="http://www.w3.org/2000/svg" xmlns:xlink="http://www.w3.org/1999/xlink" width="72pt" height="72pt" viewBox="0 0 72 72" version="1.1">
<g id="surface876">
<path style="fill:none;stroke-width:1.07;stroke-linecap:round;stroke-linejoin:round;stroke:rgb(0%,0%,0%);stroke-opacity:1;stroke-miterlimit:10;" d="M 36 3.269531 L 36.570313 3.28125 L 37.140625 3.289063 L 37.71875 3.320313 L 38.289063 3.351563 L 38.859375 3.398438 L 39.429688 3.449219 L 40 3.519531 L 40.558594 3.589844 L 41.699219 3.769531 L 42.261719 3.878906 L 42.820313 3.988281 L 43.378906 4.121094 L 43.929688 4.25 L 44.488281 4.390625 L 45.589844 4.710938 L 46.128906 4.878906 L 46.679688 5.058594 L 47.21875 5.261719 L 47.75 5.460938 L 48.289063 5.671875 L 48.808594 5.890625 L 49.339844 6.109375 L 49.859375 6.351563 L 50.378906 6.601563 L 50.890625 6.859375 L 51.398438 7.121094 L 51.898438 7.390625 L 52.398438 7.679688 L 52.890625 7.96875 L 53.378906 8.269531 L 53.859375 8.578125 L 54.339844 8.890625 L 54.808594 9.21875 L 55.269531 9.550781 L 55.730469 9.890625 L 56.191406 10.238281 L 56.628906 10.601563 L 57.078125 10.960938 L 57.511719 11.328125 L 57.941406 11.710938 L 58.359375 12.101563 L 59.179688 12.898438 L 59.578125 13.308594 L 59.980469 13.71875 L 60.738281 14.578125 L 61.109375 15.011719 L 61.46875 15.449219 L 61.828125 15.898438 L 62.179688 16.359375 L 62.519531 16.820313 L 62.851563 17.289063 L 63.171875 17.761719 L 63.488281 18.238281 L 63.789063 18.71875 L 64.089844 19.210938 L 64.378906 19.699219 L 64.660156 20.199219 L 64.929688 20.699219 L 65.199219 21.210938 L 65.449219 21.730469 L 65.699219 22.238281 L 65.929688 22.761719 L 66.160156 23.289063 L 66.378906 23.820313 L 66.578125 24.351563 L 66.78125 24.890625 L 66.96875 25.429688 L 67.148438 25.96875 L 67.320313 26.519531 L 67.640625 27.621094 L 67.78125 28.179688 L 67.910156 28.730469 L 68.03125 29.289063 L 68.140625 29.851563 L 68.25 30.421875 L 68.339844 30.980469 L 68.421875 31.550781 L 68.5 32.109375 L 68.558594 32.679688 L 68.609375 33.25 L 68.648438 33.820313 L 68.691406 34.398438 L 68.710938 34.96875 L 68.71875 35.539063 L 68.730469 36.109375 L 68.71875 36.691406 L 68.699219 37.261719 L 68.679688 37.828125 L 68.640625 38.398438 L 68.539063 39.539063 L 68.46875 40.109375 L 68.390625 40.679688 L 68.300781 41.238281 L 68.210938 41.808594 L 68.101563 42.371094 L 67.988281 42.929688 L 67.859375 43.488281 L 67.71875 44.039063 L 67.578125 44.601563 L 67.421875 45.148438 L 67.261719 45.699219 L 67.078125 46.238281 L 66.898438 46.78125 L 66.710938 47.320313 L 66.5 47.859375 L 66.289063 48.390625 L 66.070313 48.921875 L 65.839844 49.441406 L 65.601563 49.960938 L 65.351563 50.480469 L 65.089844 50.988281 L 64.828125 51.5 L 64.550781 52 L 64.269531 52.488281 L 63.96875 52.988281 L 63.671875 53.46875 L 63.359375 53.949219 L 63.039063 54.429688 L 62.71875 54.898438 L 62.039063 55.820313 L 61.691406 56.28125 L 61.328125 56.71875 L 60.96875 57.160156 L 60.210938 58.019531 L 59.820313 58.441406 L 59.421875 58.851563 L 59.019531 59.261719 L 58.609375 59.660156 L 58.191406 60.050781 L 57.769531 60.441406 L 57.339844 60.808594 L 56.898438 61.179688 L 56.460938 61.539063 L 56.011719 61.898438 L 55.089844 62.578125 L 54.621094 62.910156 L 54.148438 63.230469 L 53.671875 63.550781 L 53.179688 63.851563 L 52.699219 64.148438 L 52.199219 64.441406 L 51.699219 64.71875 L 51.199219 64.988281 L 50.691406 65.25 L 50.171875 65.5 L 49.648438 65.738281 L 49.128906 65.980469 L 48.609375 66.199219 L 48.078125 66.421875 L 47 66.820313 L 46.460938 67.011719 L 45.921875 67.191406 L 45.371094 67.359375 L 44.820313 67.519531 L 44.269531 67.671875 L 43.71875 67.800781 L 42.601563 68.058594 L 42.039063 68.171875 L 41.46875 68.269531 L 40.910156 68.359375 L 40.339844 68.441406 L 39.769531 68.511719 L 39.199219 68.570313 L 38.628906 68.621094 L 38.058594 68.660156 L 37.488281 68.691406 L 36.921875 68.710938 L 36.351563 68.730469 L 35.769531 68.730469 L 35.199219 68.71875 L 34.628906 68.699219 L 34.058594 68.671875 L 33.488281 68.628906 L 32.921875 68.578125 L 32.351563 68.519531 L 31.210938 68.378906 L 30.648438 68.289063 L 30.078125 68.191406 L 29.519531 68.078125 L 28.960938 67.960938 L 28.398438 67.828125 L 27.851563 67.699219 L 27.289063 67.550781 L 26.738281 67.390625 L 26.199219 67.21875 L 25.648438 67.050781 L 25.109375 66.859375 L 24.570313 66.671875 L 24.039063 66.460938 L 23.511719 66.25 L 22.980469 66.03125 L 22.460938 65.789063 L 21.941406 65.550781 L 21.421875 65.300781 L 20.910156 65.039063 L 20.410156 64.769531 L 19.898438 64.5 L 18.921875 63.921875 L 18.429688 63.609375 L 17.949219 63.300781 L 17.480469 62.980469 L 17.011719 62.648438 L 16.539063 62.320313 L 16.089844 61.96875 L 15.640625 61.621094 L 15.191406 61.261719 L 14.75 60.890625 L 14.320313 60.519531 L 13.890625 60.128906 L 13.480469 59.738281 L 13.058594 59.351563 L 12.261719 58.53125 L 11.871094 58.109375 L 11.488281 57.691406 L 11.109375 57.25 L 10.738281 56.808594 L 10.378906 56.371094 L 10.03125 55.921875 L 9.351563 55 L 9.019531 54.53125 L 8.699219 54.050781 L 8.390625 53.570313 L 8.089844 53.089844 L 7.789063 52.601563 L 7.511719 52.101563 L 7.230469 51.601563 L 6.960938 51.101563 L 6.699219 50.589844 L 6.449219 50.070313 L 6.210938 49.550781 L 5.980469 49.03125 L 5.75 48.5 L 5.539063 47.96875 L 5.339844 47.441406 L 5.140625 46.898438 L 4.949219 46.359375 L 4.78125 45.808594 L 4.609375 45.261719 L 4.449219 44.710938 L 4.308594 44.160156 L 4.171875 43.609375 L 4.039063 43.050781 L 3.921875 42.488281 L 3.808594 41.929688 L 3.710938 41.359375 L 3.628906 40.800781 L 3.550781 40.230469 L 3.480469 39.660156 L 3.421875 39.089844 L 3.371094 38.519531 L 3.328125 37.949219 L 3.300781 37.378906 L 3.28125 36.808594 L 3.269531 36.230469 L 3.269531 35.660156 L 3.308594 34.519531 L 3.339844 33.949219 L 36 36 L 36 3.269531 "/>
</g>
</svg>
