<?xml version="1.0" encoding="UTF-8"?>
<svg xmlns="http://www.w3.org/2000/svg" xmlns:xlink="http://www.w3.org/1999/xlink" width="72pt" height="72pt" viewBox="0 0 72 72" version="1.1">
<g id="surface971">
<path style="fill:none;stroke-width:1.07;stroke-linecap:round;stroke-linejoin:round;stroke:rgb(0%,0%,0%);stroke-opacity:1;stroke-miterlimit:10;" d="M 36 3.269531 L 36.570313 3.28125 L 37.148438 3.289063 L 38.289063 3.351563 L 38.859375 3.398438 L 39.429688 3.449219 L 40.570313 3.589844 L 41.128906 3.679688 L 41.699219 3.769531 L 42.261719 3.878906 L 42.820313 3.988281 L 43.378906 4.121094 L 43.941406 4.25 L 44.488281 4.390625 L 45.050781 4.550781 L 45.601563 4.710938 L 46.140625 4.878906 L 46.691406 5.070313 L 47.21875 5.261719 L 47.761719 5.460938 L 48.289063 5.671875 L 48.820313 5.890625 L 49.351563 6.121094 L 49.871094 6.359375 L 50.390625 6.601563 L 50.898438 6.859375 L 51.410156 7.128906 L 51.910156 7.398438 L 52.410156 7.679688 L 52.898438 7.96875 L 53.390625 8.269531 L 53.871094 8.578125 L 54.351563 8.898438 L 54.820313 9.230469 L 55.289063 9.558594 L 55.75 9.898438 L 56.199219 10.25 L 56.648438 10.609375 L 57.089844 10.96875 L 57.519531 11.351563 L 57.949219 11.730469 L 58.371094 12.109375 L 58.789063 12.511719 L 59.191406 12.910156 L 59.601563 13.320313 L 59.988281 13.738281 L 60.371094 14.160156 L 60.75 14.589844 L 61.121094 15.03125 L 61.488281 15.46875 L 61.839844 15.921875 L 62.191406 16.378906 L 62.53125 16.839844 L 62.859375 17.300781 L 63.5 18.261719 L 63.808594 18.738281 L 64.101563 19.230469 L 64.390625 19.71875 L 64.671875 20.21875 L 64.949219 20.730469 L 65.210938 21.238281 L 65.460938 21.75 L 65.710938 22.269531 L 65.941406 22.789063 L 66.171875 23.320313 L 66.390625 23.851563 L 66.589844 24.378906 L 66.789063 24.921875 L 66.980469 25.460938 L 67.160156 26 L 67.328125 26.550781 L 67.488281 27.101563 L 67.640625 27.648438 L 67.789063 28.210938 L 67.921875 28.761719 L 68.039063 29.320313 L 68.148438 29.890625 L 68.25 30.449219 L 68.351563 31.011719 L 68.429688 31.578125 L 68.5 32.148438 L 68.558594 32.71875 L 68.660156 33.859375 L 68.691406 34.429688 L 68.710938 35.011719 L 68.71875 35.578125 L 68.730469 36.148438 L 68.71875 36.71875 L 68.699219 37.300781 L 68.671875 37.871094 L 68.640625 38.441406 L 68.589844 39.011719 L 68.53125 39.578125 L 68.390625 40.71875 L 68.300781 41.28125 L 68.199219 41.851563 L 67.980469 42.96875 L 67.851563 43.53125 L 67.710938 44.089844 L 67.570313 44.640625 L 67.410156 45.191406 L 67.238281 45.738281 L 67.070313 46.289063 L 66.878906 46.828125 L 66.691406 47.371094 L 66.488281 47.898438 L 66.050781 48.960938 L 65.820313 49.488281 L 65.578125 50.011719 L 65.328125 50.519531 L 65.070313 51.03125 L 64.800781 51.539063 L 64.53125 52.039063 L 64.238281 52.539063 L 63.949219 53.03125 L 63.648438 53.519531 L 63.328125 54 L 63.019531 54.46875 L 62.691406 54.941406 L 62.351563 55.410156 L 62.011719 55.871094 L 61.660156 56.320313 L 61.300781 56.761719 L 60.929688 57.199219 L 60.558594 57.640625 L 60.171875 58.058594 L 59.78125 58.480469 L 59.390625 58.898438 L 58.980469 59.300781 L 58.570313 59.699219 L 58.148438 60.089844 L 57.730469 60.480469 L 57.289063 60.851563 L 56.859375 61.21875 L 56.410156 61.578125 L 55.960938 61.941406 L 55.039063 62.621094 L 54.570313 62.949219 L 54.101563 63.269531 L 53.621094 63.578125 L 53.128906 63.878906 L 52.640625 64.179688 L 52.148438 64.46875 L 51.640625 64.75 L 51.140625 65.019531 L 50.628906 65.28125 L 50.109375 65.53125 L 49.601563 65.769531 L 49.070313 66 L 48.550781 66.230469 L 48.011719 66.441406 L 47.480469 66.648438 L 46.941406 66.839844 L 46.398438 67.03125 L 45.851563 67.210938 L 45.308594 67.378906 L 44.761719 67.53125 L 44.199219 67.679688 L 43.648438 67.820313 L 43.089844 67.949219 L 42.53125 68.070313 L 41.96875 68.179688 L 41.398438 68.28125 L 40.839844 68.371094 L 40.269531 68.449219 L 39.699219 68.519531 L 39.128906 68.578125 L 38.558594 68.628906 L 37.988281 68.671875 L 37.421875 68.699219 L 36.839844 68.71875 L 36.269531 68.730469 L 35.699219 68.730469 L 35.128906 68.71875 L 34.550781 68.699219 L 33.410156 68.621094 L 32.839844 68.570313 L 32.269531 68.511719 L 31.699219 68.441406 L 31.128906 68.359375 L 30.570313 68.269531 L 30 68.171875 L 29.441406 68.058594 L 28.878906 67.941406 L 28.320313 67.808594 L 27.769531 67.671875 L 27.210938 67.53125 L 26.660156 67.371094 L 26.121094 67.199219 L 25.570313 67.019531 L 25.03125 66.828125 L 24.488281 66.640625 L 23.960938 66.429688 L 23.429688 66.21875 L 22.898438 65.988281 L 22.378906 65.761719 L 21.339844 65.261719 L 20.828125 65 L 20.328125 64.730469 L 19.828125 64.449219 L 19.328125 64.171875 L 18.839844 63.871094 L 18.359375 63.558594 L 17.878906 63.25 L 17.398438 62.929688 L 16.929688 62.601563 L 16.46875 62.261719 L 16.019531 61.921875 L 15.558594 61.558594 L 15.121094 61.199219 L 14.679688 60.828125 L 14.25 60.460938 L 13.828125 60.070313 L 13.410156 59.679688 L 13 59.28125 L 12.589844 58.871094 L 12.199219 58.460938 L 11.808594 58.039063 L 11.050781 57.179688 L 10.679688 56.738281 L 10.320313 56.289063 L 9.96875 55.839844 L 9.628906 55.378906 L 9.289063 54.921875 L 8.96875 54.449219 L 8.648438 53.96875 L 8.339844 53.488281 L 7.738281 52.511719 L 7.460938 52.011719 L 7.179688 51.511719 L 6.921875 51.011719 L 6.660156 50.488281 L 6.410156 49.980469 L 6.171875 49.460938 L 5.941406 48.929688 L 5.71875 48.410156 L 5.5 47.871094 L 5.300781 47.339844 L 5.109375 46.800781 L 4.921875 46.261719 L 4.578125 45.160156 L 4.28125 44.058594 L 4.140625 43.5 L 4.019531 42.941406 L 3.898438 42.378906 L 3.789063 41.820313 L 3.699219 41.25 L 3.609375 40.691406 L 3.53125 40.121094 L 3.46875 39.550781 L 3.410156 38.980469 L 3.359375 38.410156 L 3.320313 37.839844 L 3.300781 37.269531 L 3.28125 36.691406 L 3.269531 36.121094 L 3.28125 35.550781 L 3.289063 34.980469 L 3.308594 34.398438 L 3.339844 33.828125 L 3.390625 33.261719 L 3.441406 32.691406 L 3.5 32.121094 L 3.578125 31.550781 L 3.660156 30.980469 L 3.75 30.421875 L 3.851563 29.859375 L 3.96875 29.289063 L 4.089844 28.730469 L 4.21875 28.179688 L 4.359375 27.621094 L 4.511719 27.070313 L 4.679688 26.519531 L 4.851563 25.96875 L 5.03125 25.429688 L 5.21875 24.890625 L 5.421875 24.351563 L 5.621094 23.820313 L 5.839844 23.289063 L 6.070313 22.761719 L 6.308594 22.238281 L 6.550781 21.71875 L 6.808594 21.210938 L 7.070313 20.699219 L 7.339844 20.199219 L 7.621094 19.699219 L 7.910156 19.199219 L 8.210938 18.710938 L 8.828125 17.75 L 9.160156 17.28125 L 9.488281 16.808594 L 9.828125 16.351563 L 10.179688 15.898438 L 10.53125 15.449219 L 10.898438 15 L 11.269531 14.570313 L 11.648438 14.140625 L 12.03125 13.71875 L 12.429688 13.300781 L 12.828125 12.890625 L 13.230469 12.488281 L 13.648438 12.089844 L 14.070313 11.710938 L 14.5 11.328125 L 14.941406 10.949219 L 15.378906 10.589844 L 15.820313 10.230469 L 16.28125 9.878906 L 16.738281 9.539063 L 17.210938 9.210938 L 17.679688 8.878906 L 18.148438 8.570313 L 18.640625 8.261719 L 19.128906 7.960938 L 19.621094 7.671875 L 20.621094 7.109375 L 21.128906 6.851563 L 21.640625 6.589844 L 22.160156 6.339844 L 23.199219 5.878906 L 23.730469 5.660156 L 24.269531 5.449219 L 24.800781 5.25 L 25.339844 5.058594 L 25.890625 4.871094 L 36 36 L 36 3.269531 "/>
</g>
</svg>
