<?xml version="1.0" encoding="UTF-8"?>
<svg xmlns="http://www.w3.org/2000/svg" xmlns:xlink="http://www.w3.org/1999/xlink" width="72pt" height="72pt" viewBox="0 0 72 72" version="1.1">
<g id="surface831">
<path style="fill:none;stroke-width:1.07;stroke-linecap:round;stroke-linejoin:round;stroke:rgb(0%,0%,0%);stroke-opacity:1;stroke-miterlimit:10;" d="M 36 3.269531 L 36.570313 3.28125 L 37.140625 3.289063 L 38.28125 3.351563 L 38.851563 3.398438 L 39.421875 3.449219 L 39.988281 3.519531 L 40.558594 3.589844 L 41.121094 3.679688 L 41.691406 3.769531 L 42.808594 3.988281 L 43.371094 4.109375 L 43.921875 4.25 L 44.480469 4.390625 L 45.03125 4.539063 L 45.578125 4.710938 L 46.121094 4.878906 L 46.660156 5.058594 L 47.199219 5.25 L 47.738281 5.449219 L 48.269531 5.660156 L 48.800781 5.878906 L 49.839844 6.339844 L 50.359375 6.589844 L 50.871094 6.851563 L 51.378906 7.109375 L 51.878906 7.378906 L 52.378906 7.660156 L 52.871094 7.949219 L 53.359375 8.25 L 53.839844 8.558594 L 54.308594 8.878906 L 54.789063 9.199219 L 55.25 9.53125 L 55.710938 9.871094 L 56.160156 10.21875 L 56.609375 10.578125 L 57.050781 10.941406 L 57.488281 11.308594 L 57.910156 11.691406 L 58.328125 12.078125 L 58.75 12.46875 L 59.160156 12.871094 L 59.558594 13.28125 L 59.949219 13.699219 L 60.339844 14.121094 L 60.710938 14.550781 L 61.089844 14.980469 L 61.449219 15.421875 L 61.800781 15.871094 L 62.148438 16.320313 L 62.488281 16.78125 L 62.820313 17.25 L 63.148438 17.71875 L 63.460938 18.199219 L 63.769531 18.679688 L 64.070313 19.171875 L 64.359375 19.660156 L 64.640625 20.160156 L 64.910156 20.660156 L 65.171875 21.171875 L 65.429688 21.679688 L 65.671875 22.199219 L 65.910156 22.71875 L 66.140625 23.238281 L 66.359375 23.769531 L 66.570313 24.300781 L 66.761719 24.839844 L 66.960938 25.378906 L 67.140625 25.921875 L 67.308594 26.460938 L 67.46875 27.011719 L 67.621094 27.558594 L 67.761719 28.121094 L 67.898438 28.671875 L 68.019531 29.230469 L 68.128906 29.789063 L 68.238281 30.351563 L 68.328125 30.921875 L 68.410156 31.480469 L 68.488281 32.050781 L 68.550781 32.621094 L 68.609375 33.191406 L 68.648438 33.761719 L 68.679688 34.328125 L 68.710938 34.898438 L 68.71875 35.46875 L 68.730469 36.039063 L 68.71875 36.609375 L 68.710938 37.191406 L 68.679688 37.761719 L 68.640625 38.328125 L 68.601563 38.898438 L 68.539063 39.46875 L 68.480469 40.03125 L 68.398438 40.601563 L 68.320313 41.171875 L 68.21875 41.730469 L 68.121094 42.289063 L 68 42.851563 L 67.878906 43.410156 L 67.738281 43.96875 L 67.601563 44.519531 L 67.449219 45.070313 L 67.28125 45.621094 L 67.109375 46.160156 L 66.929688 46.699219 L 66.738281 47.238281 L 66.53125 47.78125 L 66.320313 48.308594 L 66.101563 48.839844 L 65.878906 49.359375 L 65.640625 49.878906 L 65.390625 50.398438 L 65.128906 50.910156 L 64.871094 51.410156 L 64.601563 51.921875 L 64.308594 52.410156 L 64.019531 52.898438 L 63.71875 53.390625 L 63.421875 53.871094 L 63.101563 54.351563 L 62.769531 54.820313 L 62.441406 55.28125 L 62.101563 55.738281 L 61.75 56.199219 L 61.398438 56.640625 L 61.03125 57.078125 L 60.660156 57.519531 L 60.28125 57.949219 L 59.890625 58.371094 L 59.5 58.78125 L 59.101563 59.191406 L 58.691406 59.589844 L 58.269531 59.980469 L 57.851563 60.359375 L 57.421875 60.738281 L 56.988281 61.109375 L 56.539063 61.480469 L 56.101563 61.828125 L 55.640625 62.179688 L 55.179688 62.519531 L 54.71875 62.851563 L 54.238281 63.171875 L 53.769531 63.488281 L 53.28125 63.789063 L 52.800781 64.089844 L 52.300781 64.378906 L 51.800781 64.660156 L 51.300781 64.929688 L 50.789063 65.191406 L 50.28125 65.449219 L 49.761719 65.691406 L 49.238281 65.929688 L 48.71875 66.148438 L 48.191406 66.371094 L 47.660156 66.578125 L 47.121094 66.78125 L 46.578125 66.96875 L 46.039063 67.148438 L 45.488281 67.320313 L 44.949219 67.480469 L 44.390625 67.628906 L 43.839844 67.769531 L 43.28125 67.910156 L 42.730469 68.03125 L 42.171875 68.140625 L 41.601563 68.238281 L 41.039063 68.339844 L 40.46875 68.421875 L 39.910156 68.488281 L 39.339844 68.558594 L 38.769531 68.609375 L 38.199219 68.648438 L 37.628906 68.691406 L 37.058594 68.710938 L 36.488281 68.71875 L 35.910156 68.730469 L 35.339844 68.71875 L 34.199219 68.679688 L 33.628906 68.640625 L 32.488281 68.539063 L 31.921875 68.46875 L 31.359375 68.398438 L 30.789063 68.308594 L 30.230469 68.210938 L 29.671875 68.109375 L 29.109375 67.988281 L 28.550781 67.871094 L 27.988281 67.730469 L 27.441406 67.589844 L 26.339844 67.269531 L 25.800781 67.101563 L 25.261719 66.910156 L 24.71875 66.71875 L 24.179688 66.519531 L 23.648438 66.308594 L 23.121094 66.089844 L 22.601563 65.859375 L 22.078125 65.621094 L 21.570313 65.371094 L 21.050781 65.121094 L 20.550781 64.851563 L 20.050781 64.578125 L 19.550781 64.289063 L 19.058594 64 L 18.570313 63.699219 L 18.089844 63.390625 L 17.621094 63.078125 L 17.148438 62.75 L 16.679688 62.421875 L 16.21875 62.078125 L 15.769531 61.730469 L 15.320313 61.371094 L 14.878906 61 L 14.449219 60.628906 L 14.019531 60.25 L 13.601563 59.859375 L 13.191406 59.46875 L 12.78125 59.070313 L 12.378906 58.660156 L 11.988281 58.238281 L 11.609375 57.820313 L 11.230469 57.390625 L 10.859375 56.949219 L 10.5 56.511719 L 10.140625 56.058594 L 9.800781 55.609375 L 9.460938 55.148438 L 9.128906 54.679688 L 8.808594 54.210938 L 8.488281 53.730469 L 8.191406 53.25 L 7.890625 52.761719 L 7.601563 52.269531 L 7.320313 51.769531 L 36 36 L 36 3.269531 "/>
</g>
</svg>
