<?xml version="1.0" encoding="UTF-8"?>
<svg xmlns="http://www.w3.org/2000/svg" xmlns:xlink="http://www.w3.org/1999/xlink" width="72pt" height="72pt" viewBox="0 0 72 72" version="1.1">
<g id="surface726">
<path style="fill:none;stroke-width:1.07;stroke-linecap:round;stroke-linejoin:round;stroke:rgb(0%,0%,0%);stroke-opacity:1;stroke-miterlimit:10;" d="M 36 3.269531 L 36.570313 3.28125 L 37.148438 3.289063 L 38.289063 3.351563 L 38.859375 3.398438 L 39.429688 3.449219 L 40.570313 3.589844 L 41.140625 3.679688 L 41.699219 3.769531 L 42.269531 3.878906 L 42.828125 3.988281 L 43.390625 4.121094 L 43.949219 4.25 L 44.5 4.398438 L 45.050781 4.550781 L 45.601563 4.710938 L 46.148438 4.890625 L 46.691406 5.070313 L 47.230469 5.261719 L 47.769531 5.460938 L 48.300781 5.671875 L 48.828125 5.890625 L 49.359375 6.121094 L 49.878906 6.359375 L 50.398438 6.609375 L 50.910156 6.871094 L 51.421875 7.128906 L 52.421875 7.691406 L 52.910156 7.980469 L 53.398438 8.28125 L 53.878906 8.589844 L 54.359375 8.910156 L 54.828125 9.230469 L 55.300781 9.570313 L 55.761719 9.910156 L 56.210938 10.261719 L 56.660156 10.621094 L 57.101563 10.980469 L 57.539063 11.359375 L 57.960938 11.738281 L 58.390625 12.128906 L 58.800781 12.519531 L 59.210938 12.921875 L 59.609375 13.328125 L 60 13.75 L 60.390625 14.179688 L 60.769531 14.609375 L 61.140625 15.039063 L 61.5 15.488281 L 61.859375 15.941406 L 62.199219 16.390625 L 62.539063 16.851563 L 62.871094 17.320313 L 63.199219 17.800781 L 63.511719 18.269531 L 63.820313 18.761719 L 64.121094 19.25 L 64.398438 19.738281 L 64.691406 20.238281 L 64.960938 20.75 L 65.21875 21.261719 L 65.46875 21.769531 L 65.71875 22.289063 L 65.949219 22.808594 L 66.179688 23.339844 L 66.398438 23.871094 L 66.601563 24.410156 L 66.800781 24.941406 L 66.988281 25.480469 L 67.171875 26.03125 L 67.339844 26.578125 L 67.5 27.128906 L 67.648438 27.679688 L 67.789063 28.238281 L 67.921875 28.789063 L 68.050781 29.351563 L 68.160156 29.921875 L 68.261719 30.480469 L 68.351563 31.050781 L 68.429688 31.609375 L 68.570313 32.75 L 68.621094 33.320313 L 68.660156 33.898438 L 68.691406 34.46875 L 68.710938 35.039063 L 68.71875 35.609375 L 68.730469 36.191406 L 68.71875 36.761719 L 68.699219 37.328125 L 68.671875 37.910156 L 68.628906 38.480469 L 68.578125 39.050781 L 68.53125 39.621094 L 68.460938 40.191406 L 68.378906 40.761719 L 68.289063 41.320313 L 68.191406 41.890625 L 68.089844 42.449219 L 67.96875 43.011719 L 67.839844 43.570313 L 67.699219 44.128906 L 67.550781 44.679688 L 67.398438 45.230469 L 67.230469 45.78125 L 67.058594 46.328125 L 66.871094 46.871094 L 66.671875 47.410156 L 66.46875 47.941406 L 66.261719 48.480469 L 66.03125 49 L 65.800781 49.53125 L 65.558594 50.050781 L 65.308594 50.558594 L 65.050781 51.070313 L 64.78125 51.578125 L 64.21875 52.578125 L 63.921875 53.070313 L 63.621094 53.558594 L 63.308594 54.039063 L 62.988281 54.511719 L 62.660156 54.980469 L 62.320313 55.449219 L 61.980469 55.910156 L 61.621094 56.359375 L 61.261719 56.800781 L 60.898438 57.238281 L 60.519531 57.679688 L 60.140625 58.101563 L 59.75 58.519531 L 59.351563 58.929688 L 58.941406 59.339844 L 58.53125 59.738281 L 58.109375 60.128906 L 57.679688 60.511719 L 57.25 60.890625 L 56.808594 61.261719 L 56.371094 61.621094 L 55.921875 61.96875 L 55.460938 62.308594 L 54.988281 62.648438 L 54.519531 62.980469 L 54.050781 63.300781 L 53.570313 63.609375 L 53.078125 63.921875 L 52.589844 64.210938 L 52.089844 64.5 L 51.089844 65.039063 L 50.570313 65.300781 L 50.058594 65.550781 L 49.539063 65.800781 L 49.011719 66.03125 L 48.488281 66.25 L 47.949219 66.46875 L 47.421875 66.671875 L 46.878906 66.871094 L 46.339844 67.050781 L 45.789063 67.230469 L 45.238281 67.390625 L 44.691406 67.550781 L 44.140625 67.699219 L 36 36 L 36 3.269531 "/>
</g>
</svg>
