<?xml version="1.0" encoding="UTF-8"?>
<svg xmlns="http://www.w3.org/2000/svg" xmlns:xlink="http://www.w3.org/1999/xlink" width="72pt" height="72pt" viewBox="0 0 72 72" version="1.1">
<g id="surface951">
<path style="fill:none;stroke-width:1.07;stroke-linecap:round;stroke-linejoin:round;stroke:rgb(0%,0%,0%);stroke-opacity:1;stroke-miterlimit:10;" d="M 36 3.269531 L 36.570313 3.28125 L 37.140625 3.289063 L 37.71875 3.320313 L 38.289063 3.351563 L 38.859375 3.398438 L 39.429688 3.449219 L 40 3.519531 L 40.558594 3.589844 L 41.128906 3.679688 L 41.691406 3.769531 L 42.261719 3.878906 L 42.820313 3.988281 L 43.378906 4.109375 L 43.929688 4.25 L 44.488281 4.390625 L 45.589844 4.710938 L 46.128906 4.878906 L 46.671875 5.058594 L 47.210938 5.25 L 47.75 5.449219 L 48.28125 5.660156 L 48.808594 5.878906 L 49.328125 6.109375 L 49.851563 6.351563 L 50.371094 6.601563 L 50.878906 6.851563 L 51.390625 7.121094 L 51.890625 7.390625 L 52.390625 7.671875 L 52.878906 7.960938 L 53.371094 8.261719 L 53.851563 8.570313 L 54.328125 8.890625 L 54.800781 9.210938 L 55.269531 9.550781 L 55.730469 9.890625 L 56.179688 10.238281 L 56.628906 10.589844 L 57.070313 10.960938 L 57.5 11.328125 L 57.929688 11.710938 L 58.351563 12.101563 L 58.769531 12.488281 L 59.179688 12.890625 L 59.578125 13.300781 L 59.96875 13.71875 L 60.351563 14.140625 L 60.730469 14.570313 L 61.101563 15 L 61.46875 15.449219 L 61.820313 15.890625 L 62.171875 16.351563 L 62.511719 16.808594 L 62.839844 17.28125 L 63.160156 17.75 L 63.480469 18.230469 L 63.789063 18.710938 L 64.078125 19.199219 L 64.371094 19.691406 L 64.648438 20.191406 L 64.929688 20.691406 L 65.191406 21.199219 L 65.441406 21.710938 L 65.691406 22.230469 L 65.929688 22.75 L 66.148438 23.28125 L 66.371094 23.808594 L 66.578125 24.339844 L 66.78125 24.878906 L 66.96875 25.421875 L 67.148438 25.960938 L 67.320313 26.5 L 67.480469 27.050781 L 67.628906 27.609375 L 67.769531 28.160156 L 67.910156 28.71875 L 68.03125 29.28125 L 68.140625 29.839844 L 68.238281 30.398438 L 68.339844 30.960938 L 68.421875 31.53125 L 68.488281 32.101563 L 68.558594 32.671875 L 68.609375 33.238281 L 68.648438 33.808594 L 68.691406 34.378906 L 68.710938 34.949219 L 68.71875 35.519531 L 68.730469 36.089844 L 68.71875 36.671875 L 68.699219 37.238281 L 68.679688 37.808594 L 68.640625 38.378906 L 68.539063 39.519531 L 68.46875 40.089844 L 68.390625 40.660156 L 68.308594 41.21875 L 68.210938 41.789063 L 68.109375 42.351563 L 67.988281 42.910156 L 67.859375 43.46875 L 67.730469 44.019531 L 67.578125 44.578125 L 67.429688 45.128906 L 67.261719 45.679688 L 67.089844 46.21875 L 66.910156 46.761719 L 66.511719 47.839844 L 66.300781 48.371094 L 66.078125 48.898438 L 65.851563 49.421875 L 65.609375 49.941406 L 65.359375 50.460938 L 65.101563 50.96875 L 64.839844 51.46875 L 64.558594 51.980469 L 64.28125 52.46875 L 63.988281 52.960938 L 63.691406 53.449219 L 63.378906 53.929688 L 63.058594 54.410156 L 62.730469 54.878906 L 62.398438 55.339844 L 62.058594 55.800781 L 61.710938 56.25 L 61.351563 56.699219 L 60.980469 57.140625 L 60.609375 57.570313 L 60.230469 58 L 59.839844 58.421875 L 59.441406 58.839844 L 59.039063 59.238281 L 58.628906 59.640625 L 58.210938 60.03125 L 57.789063 60.421875 L 57.359375 60.789063 L 56.921875 61.160156 L 56.480469 61.53125 L 56.03125 61.878906 L 55.578125 62.230469 L 55.109375 62.570313 L 54.648438 62.898438 L 54.171875 63.21875 L 53.699219 63.53125 L 53.210938 63.839844 L 52.71875 64.128906 L 52.230469 64.421875 L 51.730469 64.699219 L 51.21875 64.96875 L 50.710938 65.230469 L 50.199219 65.488281 L 49.679688 65.730469 L 48.640625 66.191406 L 48.109375 66.410156 L 47.570313 66.609375 L 47.039063 66.808594 L 46.5 67 L 45.949219 67.179688 L 45.410156 67.351563 L 44.859375 67.511719 L 44.300781 67.660156 L 43.75 67.800781 L 43.191406 67.929688 L 42.628906 68.050781 L 42.070313 68.160156 L 41.511719 68.261719 L 40.941406 68.351563 L 40.378906 68.429688 L 39.238281 68.570313 L 38.671875 68.621094 L 38.101563 68.660156 L 37.53125 68.691406 L 36.960938 68.710938 L 36.378906 68.730469 L 35.808594 68.730469 L 35.238281 68.71875 L 34.671875 68.699219 L 34.101563 68.671875 L 33.519531 68.628906 L 32.949219 68.589844 L 32.390625 68.53125 L 31.820313 68.460938 L 31.25 68.378906 L 30.679688 68.289063 L 30.121094 68.191406 L 29.558594 68.089844 L 29 67.96875 L 28.441406 67.839844 L 27.890625 67.710938 L 27.328125 67.558594 L 26.78125 67.398438 L 26.230469 67.238281 L 25.691406 67.058594 L 25.148438 66.878906 L 24.609375 66.679688 L 24.078125 66.480469 L 23.539063 66.261719 L 23.019531 66.039063 L 22.488281 65.808594 L 21.96875 65.570313 L 21.460938 65.320313 L 20.949219 65.058594 L 20.441406 64.789063 L 19.941406 64.519531 L 19.449219 64.230469 L 18.960938 63.941406 L 18.46875 63.640625 L 17.988281 63.328125 L 17.511719 63.011719 L 17.039063 62.679688 L 16.578125 62.339844 L 16.121094 62 L 15.671875 61.648438 L 15.230469 61.289063 L 14.789063 60.921875 L 14.351563 60.550781 L 13.929688 60.160156 L 13.511719 59.78125 L 13.101563 59.378906 L 12.691406 58.96875 L 12.289063 58.558594 L 11.898438 58.148438 L 11.140625 57.289063 L 10.78125 56.851563 L 10.410156 56.410156 L 10.058594 55.960938 L 9.378906 55.039063 L 9.050781 54.570313 L 8.730469 54.101563 L 8.421875 53.621094 L 8.109375 53.128906 L 7.820313 52.640625 L 7.53125 52.148438 L 7.25 51.648438 L 6.988281 51.140625 L 6.730469 50.628906 L 6.46875 50.121094 L 6.230469 49.601563 L 6 49.078125 L 5.769531 48.550781 L 5.558594 48.019531 L 5.351563 47.480469 L 5.160156 46.949219 L 4.96875 46.410156 L 4.789063 45.859375 L 4.628906 45.308594 L 4.46875 44.761719 L 4.320313 44.210938 L 4.179688 43.660156 L 4.050781 43.101563 L 3.929688 42.539063 L 3.820313 41.980469 L 3.71875 41.410156 L 3.628906 40.851563 L 3.550781 40.28125 L 3.480469 39.710938 L 3.421875 39.148438 L 3.371094 38.578125 L 3.328125 38 L 3.300781 37.429688 L 3.28125 36.859375 L 3.269531 36.289063 L 3.269531 35.71875 L 3.28125 35.140625 L 3.300781 34.570313 L 3.328125 34 L 3.371094 33.429688 L 3.421875 32.859375 L 3.480469 32.289063 L 3.550781 31.71875 L 3.628906 31.160156 L 3.71875 30.589844 L 3.820313 30.03125 L 3.929688 29.46875 L 4.050781 28.910156 L 4.179688 28.351563 L 4.320313 27.789063 L 4.46875 27.238281 L 4.621094 26.691406 L 4.789063 26.140625 L 4.96875 25.601563 L 5.160156 25.058594 L 5.351563 24.519531 L 5.558594 23.988281 L 5.769531 23.460938 L 6 22.929688 L 6.230469 22.410156 L 6.46875 21.890625 L 6.71875 21.378906 L 6.980469 20.871094 L 7.25 20.359375 L 7.53125 19.859375 L 7.820313 19.359375 L 8.109375 18.871094 L 8.410156 18.390625 L 8.730469 17.910156 L 9.050781 17.441406 L 9.378906 16.96875 L 9.710938 16.5 L 10.058594 16.050781 L 10.410156 15.601563 L 10.769531 15.148438 L 11.140625 14.71875 L 11.519531 14.28125 L 11.898438 13.859375 L 12.289063 13.441406 L 12.691406 13.03125 L 13.089844 12.628906 L 13.511719 12.230469 L 13.921875 11.839844 L 14.351563 11.460938 L 14.78125 11.078125 L 15.21875 10.71875 L 15.671875 10.359375 L 16.121094 10 L 16.578125 9.660156 L 17.039063 9.320313 L 17.511719 9 L 17.980469 8.679688 L 18.460938 8.371094 L 36 36 L 36 3.269531 "/>
</g>
</svg>
