<?xml version="1.0" encoding="UTF-8"?>
<svg xmlns="http://www.w3.org/2000/svg" xmlns:xlink="http://www.w3.org/1999/xlink" width="72pt" height="72pt" viewBox="0 0 72 72" version="1.1">
<g id="surface866">
<path style="fill:none;stroke-width:1.07;stroke-linecap:round;stroke-linejoin:round;stroke:rgb(0%,0%,0%);stroke-opacity:1;stroke-miterlimit:10;" d="M 36 3.269531 L 36.570313 3.28125 L 37.140625 3.289063 L 37.71875 3.320313 L 38.289063 3.351563 L 38.859375 3.398438 L 39.429688 3.449219 L 39.988281 3.519531 L 40.558594 3.589844 L 41.128906 3.679688 L 41.691406 3.769531 L 42.808594 3.988281 L 43.371094 4.109375 L 43.929688 4.25 L 44.480469 4.390625 L 45.03125 4.539063 L 45.578125 4.710938 L 46.128906 4.878906 L 46.671875 5.058594 L 47.210938 5.25 L 47.75 5.449219 L 48.28125 5.660156 L 48.808594 5.878906 L 49.328125 6.109375 L 49.851563 6.351563 L 50.371094 6.589844 L 50.878906 6.851563 L 51.390625 7.109375 L 52.390625 7.671875 L 52.878906 7.960938 L 53.371094 8.261719 L 53.851563 8.570313 L 54.328125 8.878906 L 54.800781 9.210938 L 55.261719 9.539063 L 55.71875 9.878906 L 56.171875 10.230469 L 56.621094 10.589844 L 57.058594 10.949219 L 57.5 11.320313 L 57.929688 11.699219 L 58.351563 12.089844 L 58.761719 12.480469 L 59.570313 13.289063 L 59.960938 13.710938 L 60.351563 14.128906 L 60.730469 14.558594 L 61.101563 15 L 61.460938 15.441406 L 61.820313 15.890625 L 62.160156 16.339844 L 62.5 16.800781 L 62.839844 17.269531 L 63.160156 17.738281 L 63.46875 18.21875 L 63.78125 18.699219 L 64.078125 19.191406 L 64.371094 19.679688 L 64.648438 20.179688 L 64.921875 20.679688 L 65.179688 21.191406 L 65.441406 21.699219 L 65.679688 22.21875 L 65.921875 22.738281 L 66.148438 23.269531 L 66.371094 23.789063 L 66.570313 24.328125 L 66.769531 24.859375 L 66.960938 25.398438 L 67.140625 25.949219 L 67.320313 26.488281 L 67.480469 27.039063 L 67.628906 27.589844 L 67.769531 28.148438 L 67.898438 28.699219 L 68.03125 29.261719 L 68.140625 29.820313 L 68.238281 30.378906 L 68.339844 30.949219 L 68.421875 31.519531 L 68.488281 32.078125 L 68.558594 32.648438 L 68.609375 33.21875 L 68.648438 33.789063 L 68.691406 34.359375 L 68.710938 34.929688 L 68.71875 35.511719 L 68.730469 36.078125 L 68.71875 36.648438 L 68.679688 37.789063 L 68.601563 38.929688 L 68.539063 39.5 L 68.398438 40.640625 L 68.308594 41.199219 L 68.21875 41.769531 L 68.109375 42.328125 L 67.988281 42.890625 L 67.871094 43.449219 L 67.730469 44 L 67.589844 44.558594 L 67.269531 45.660156 L 67.101563 46.199219 L 66.910156 46.738281 L 66.71875 47.28125 L 66.519531 47.820313 L 66.308594 48.351563 L 66.089844 48.878906 L 65.859375 49.398438 L 65.621094 49.921875 L 65.371094 50.441406 L 65.109375 50.949219 L 64.851563 51.449219 L 64.570313 51.960938 L 64.289063 52.449219 L 64 52.941406 L 63.699219 53.429688 L 63.390625 53.910156 L 63.070313 54.390625 L 62.75 54.859375 L 62.070313 55.78125 L 61.71875 56.238281 L 61 57.121094 L 60.628906 57.558594 L 60.25 57.980469 L 59.859375 58.398438 L 59.460938 58.820313 L 59.058594 59.21875 L 58.648438 59.621094 L 58.230469 60.019531 L 57.808594 60.398438 L 57.378906 60.78125 L 56.941406 61.148438 L 56.5 61.511719 L 56.050781 61.859375 L 55.601563 62.210938 L 55.140625 62.550781 L 54.671875 62.878906 L 54.199219 63.199219 L 53.71875 63.519531 L 53.230469 63.820313 L 52.75 64.121094 L 52.25 64.410156 L 51.75 64.691406 L 51.25 64.960938 L 50.738281 65.21875 L 50.230469 65.46875 L 49.710938 65.71875 L 49.191406 65.949219 L 48.660156 66.179688 L 48.128906 66.390625 L 47.601563 66.601563 L 47.058594 66.800781 L 46.519531 66.988281 L 45.980469 67.171875 L 45.429688 67.339844 L 44.890625 67.5 L 44.328125 67.648438 L 43.78125 67.789063 L 43.21875 67.921875 L 42.660156 68.039063 L 42.101563 68.148438 L 41.539063 68.261719 L 40.96875 68.351563 L 40.410156 68.429688 L 39.839844 68.5 L 39.269531 68.558594 L 38.699219 68.621094 L 38.128906 68.660156 L 37.558594 68.691406 L 36.988281 68.710938 L 36.421875 68.71875 L 35.851563 68.730469 L 35.269531 68.71875 L 34.699219 68.699219 L 34.128906 68.671875 L 33.558594 68.640625 L 32.988281 68.589844 L 32.421875 68.53125 L 31.851563 68.460938 L 31.289063 68.390625 L 30.71875 68.300781 L 30.160156 68.199219 L 29.589844 68.089844 L 29.03125 67.980469 L 28.480469 67.851563 L 27.921875 67.710938 L 27.371094 67.570313 L 26.269531 67.25 L 25.730469 67.070313 L 25.179688 66.890625 L 24.648438 66.691406 L 24.109375 66.488281 L 23.578125 66.28125 L 23.050781 66.058594 L 22.53125 65.828125 L 22.011719 65.589844 L 21.488281 65.339844 L 20.980469 65.078125 L 19.980469 64.539063 L 19.480469 64.25 L 18.988281 63.960938 L 18.5 63.660156 L 18.019531 63.351563 L 17.550781 63.03125 L 17.078125 62.699219 L 16.609375 62.371094 L 16.160156 62.019531 L 15.699219 61.671875 L 15.261719 61.320313 L 14.820313 60.949219 L 13.960938 60.191406 L 13.539063 59.800781 L 13.128906 59.410156 L 12.71875 59 L 12.320313 58.589844 L 11.929688 58.179688 L 11.171875 57.320313 L 10.800781 56.878906 L 10.441406 56.441406 L 10.089844 55.988281 L 9.738281 55.539063 L 9.410156 55.070313 L 9.078125 54.609375 L 8.761719 54.128906 L 8.441406 53.648438 L 8.140625 53.171875 L 7.839844 52.679688 L 7.550781 52.179688 L 7.28125 51.691406 L 7.011719 51.179688 L 6.75 50.671875 L 6.488281 50.160156 L 6.25 49.640625 L 6.019531 49.121094 L 5.789063 48.589844 L 5.578125 48.058594 L 5.371094 47.53125 L 5.171875 46.988281 L 4.988281 46.449219 L 4.808594 45.910156 L 4.640625 45.359375 L 4.480469 44.808594 L 4.328125 44.261719 L 4.191406 43.699219 L 4.058594 43.148438 L 3.941406 42.589844 L 3.828125 42.03125 L 3.730469 41.460938 L 3.640625 40.898438 L 3.558594 40.328125 L 3.488281 39.761719 L 3.429688 39.199219 L 3.378906 38.628906 L 3.339844 38.050781 L 36 36 L 36 3.269531 "/>
</g>
</svg>
