<?xml version="1.0" encoding="UTF-8"?>
<svg xmlns="http://www.w3.org/2000/svg" xmlns:xlink="http://www.w3.org/1999/xlink" width="72pt" height="72pt" viewBox="0 0 72 72" version="1.1">
<g id="surface906">
<path style="fill:none;stroke-width:1.07;stroke-linecap:round;stroke-linejoin:round;stroke:rgb(0%,0%,0%);stroke-opacity:1;stroke-miterlimit:10;" d="M 36 3.269531 L 36.570313 3.28125 L 37.140625 3.289063 L 38.28125 3.351563 L 38.851563 3.398438 L 39.421875 3.449219 L 39.988281 3.519531 L 40.558594 3.589844 L 41.121094 3.679688 L 41.691406 3.769531 L 42.25 3.871094 L 42.808594 3.988281 L 43.371094 4.109375 L 43.921875 4.25 L 44.480469 4.390625 L 45.03125 4.539063 L 45.570313 4.699219 L 46.121094 4.878906 L 46.660156 5.058594 L 47.199219 5.25 L 47.738281 5.449219 L 48.269531 5.660156 L 48.800781 5.878906 L 49.839844 6.339844 L 50.359375 6.589844 L 50.871094 6.839844 L 51.371094 7.109375 L 51.878906 7.378906 L 52.371094 7.660156 L 52.871094 7.949219 L 53.351563 8.25 L 53.839844 8.558594 L 54.308594 8.878906 L 54.78125 9.199219 L 55.25 9.53125 L 55.710938 9.871094 L 56.160156 10.21875 L 56.609375 10.578125 L 57.050781 10.941406 L 57.480469 11.308594 L 57.910156 11.691406 L 58.328125 12.078125 L 58.75 12.46875 L 59.148438 12.871094 L 59.550781 13.28125 L 59.949219 13.691406 L 60.328125 14.109375 L 60.710938 14.539063 L 61.078125 14.980469 L 61.449219 15.421875 L 61.800781 15.871094 L 62.148438 16.320313 L 62.488281 16.78125 L 62.820313 17.25 L 63.140625 17.71875 L 63.460938 18.191406 L 63.769531 18.679688 L 64.058594 19.160156 L 64.351563 19.660156 L 64.640625 20.148438 L 64.910156 20.660156 L 65.171875 21.160156 L 65.429688 21.679688 L 65.671875 22.191406 L 65.910156 22.710938 L 66.140625 23.238281 L 66.351563 23.761719 L 66.558594 24.300781 L 66.761719 24.828125 L 66.949219 25.371094 L 67.128906 25.910156 L 67.308594 26.460938 L 67.46875 27.011719 L 67.621094 27.558594 L 67.761719 28.109375 L 67.898438 28.671875 L 68.019531 29.230469 L 68.128906 29.789063 L 68.238281 30.351563 L 68.328125 30.910156 L 68.410156 31.480469 L 68.488281 32.039063 L 68.550781 32.609375 L 68.609375 33.179688 L 68.648438 33.75 L 68.710938 34.890625 L 68.71875 35.460938 L 68.730469 36.03125 L 68.71875 36.609375 L 68.710938 37.179688 L 68.679688 37.75 L 68.601563 38.890625 L 68.539063 39.460938 L 68.480469 40.03125 L 68.398438 40.589844 L 68.320313 41.160156 L 68.21875 41.71875 L 68.121094 42.28125 L 67.878906 43.398438 L 67.75 43.960938 L 67.601563 44.511719 L 67.449219 45.058594 L 67.289063 45.609375 L 67.109375 46.148438 L 66.929688 46.691406 L 66.738281 47.230469 L 66.539063 47.769531 L 66.328125 48.300781 L 66.109375 48.828125 L 65.878906 49.351563 L 65.640625 49.871094 L 65.398438 50.390625 L 65.140625 50.898438 L 64.871094 51.398438 L 64.601563 51.910156 L 64.320313 52.398438 L 64.03125 52.898438 L 63.730469 53.378906 L 63.421875 53.859375 L 63.109375 54.339844 L 62.78125 54.808594 L 62.449219 55.28125 L 62.109375 55.738281 L 61.761719 56.191406 L 61.398438 56.628906 L 61.039063 57.078125 L 60.671875 57.511719 L 60.289063 57.941406 L 59.898438 58.359375 L 59.511719 58.769531 L 59.101563 59.179688 L 58.699219 59.578125 L 58.28125 59.96875 L 57.859375 60.359375 L 57.429688 60.730469 L 57 61.109375 L 56.550781 61.46875 L 56.109375 61.820313 L 55.648438 62.171875 L 55.191406 62.511719 L 54.730469 62.839844 L 54.25 63.160156 L 53.78125 63.480469 L 53.289063 63.78125 L 52.808594 64.078125 L 52.308594 64.371094 L 51.820313 64.648438 L 51.308594 64.921875 L 50.808594 65.191406 L 50.289063 65.441406 L 49.78125 65.691406 L 49.261719 65.921875 L 48.730469 66.148438 L 48.199219 66.371094 L 47.671875 66.578125 L 47.140625 66.769531 L 46.601563 66.960938 L 46.050781 67.140625 L 45.511719 67.320313 L 44.960938 67.480469 L 44.410156 67.628906 L 43.859375 67.769531 L 43.300781 67.898438 L 42.738281 68.03125 L 42.179688 68.140625 L 41.621094 68.238281 L 41.050781 68.328125 L 40.488281 68.421875 L 39.921875 68.488281 L 39.351563 68.550781 L 38.78125 68.609375 L 38.210938 68.648438 L 37.640625 68.691406 L 37.070313 68.710938 L 36.5 68.71875 L 35.929688 68.730469 L 35.359375 68.71875 L 34.21875 68.679688 L 33.078125 68.601563 L 32.511719 68.539063 L 31.371094 68.398438 L 30.808594 68.308594 L 30.238281 68.21875 L 29.121094 68 L 28.570313 67.871094 L 28.011719 67.738281 L 26.910156 67.441406 L 26.359375 67.269531 L 25.808594 67.101563 L 25.269531 66.921875 L 24.730469 66.730469 L 24.199219 66.53125 L 23.671875 66.308594 L 23.140625 66.089844 L 22.621094 65.871094 L 22.101563 65.628906 L 21.578125 65.378906 L 21.070313 65.121094 L 20.558594 64.859375 L 20.058594 64.578125 L 19.570313 64.300781 L 19.070313 64.011719 L 18.589844 63.710938 L 18.109375 63.398438 L 17.628906 63.089844 L 17.160156 62.761719 L 16.699219 62.429688 L 16.238281 62.089844 L 15.78125 61.738281 L 14.898438 61.019531 L 14.460938 60.640625 L 14.039063 60.261719 L 13.621094 59.878906 L 13.199219 59.480469 L 12.800781 59.078125 L 12.398438 58.671875 L 12 58.261719 L 11.621094 57.828125 L 11.238281 57.398438 L 10.871094 56.96875 L 10.511719 56.53125 L 10.160156 56.078125 L 9.808594 55.621094 L 9.46875 55.160156 L 9.140625 54.699219 L 8.820313 54.230469 L 8.5 53.75 L 8.199219 53.261719 L 7.898438 52.78125 L 7.609375 52.28125 L 7.328125 51.78125 L 7.058594 51.28125 L 6.800781 50.769531 L 6.539063 50.261719 L 6.300781 49.75 L 6.058594 49.21875 L 5.839844 48.699219 L 5.621094 48.171875 L 5.410156 47.640625 L 5.210938 47.101563 L 5.019531 46.558594 L 4.839844 46.019531 L 4.671875 45.46875 L 4.511719 44.929688 L 4.359375 44.378906 L 4.21875 43.820313 L 4.089844 43.269531 L 3.96875 42.710938 L 3.859375 42.148438 L 3.75 41.578125 L 3.660156 41.019531 L 3.578125 40.449219 L 3.5 39.890625 L 3.441406 39.320313 L 3.390625 38.75 L 3.351563 38.179688 L 3.308594 37.609375 L 3.289063 37.039063 L 3.28125 36.46875 L 3.269531 35.898438 L 3.28125 35.320313 L 3.320313 34.179688 L 3.359375 33.609375 L 3.460938 32.46875 L 3.53125 31.910156 L 3.609375 31.339844 L 3.691406 30.769531 L 3.789063 30.210938 L 3.890625 29.648438 L 4.011719 29.089844 L 4.140625 28.53125 L 4.269531 27.980469 L 4.421875 27.421875 L 4.570313 26.871094 L 4.738281 26.328125 L 4.910156 25.78125 L 5.089844 25.238281 L 5.289063 24.699219 L 5.488281 24.171875 L 5.699219 23.640625 L 5.921875 23.109375 L 6.148438 22.578125 L 6.390625 22.070313 L 36 36 L 36 3.269531 "/>
</g>
</svg>
