<?xml version="1.0" encoding="UTF-8"?>
<svg xmlns="http://www.w3.org/2000/svg" xmlns:xlink="http://www.w3.org/1999/xlink" width="72pt" height="72pt" viewBox="0 0 72 72" version="1.1">
<g id="surface631">
<path style="fill:none;stroke-width:1.07;stroke-linecap:round;stroke-linejoin:round;stroke:rgb(0%,0%,0%);stroke-opacity:1;stroke-miterlimit:10;" d="M 36 3.269531 L 36.570313 3.28125 L 37.140625 3.289063 L 37.71875 3.320313 L 38.289063 3.351563 L 38.859375 3.398438 L 39.429688 3.449219 L 40 3.519531 L 40.558594 3.589844 L 41.128906 3.679688 L 41.691406 3.769531 L 42.261719 3.878906 L 42.820313 3.988281 L 43.378906 4.109375 L 43.929688 4.25 L 44.488281 4.390625 L 45.589844 4.710938 L 46.128906 4.878906 L 46.679688 5.058594 L 47.21875 5.25 L 48.28125 5.671875 L 48.808594 5.878906 L 49.339844 6.109375 L 49.859375 6.351563 L 50.371094 6.601563 L 50.890625 6.851563 L 51.390625 7.121094 L 51.898438 7.390625 L 52.390625 7.679688 L 52.890625 7.96875 L 53.371094 8.269531 L 53.859375 8.570313 L 54.328125 8.890625 L 54.808594 9.21875 L 55.269531 9.550781 L 55.730469 9.890625 L 56.179688 10.238281 L 56.628906 10.601563 L 57.070313 10.960938 L 57.511719 11.328125 L 57.941406 11.710938 L 58.359375 12.101563 L 58.769531 12.488281 L 59.179688 12.898438 L 59.578125 13.300781 L 59.96875 13.71875 L 60.359375 14.140625 L 60.738281 14.570313 L 61.109375 15.011719 L 61.46875 15.449219 L 61.828125 15.898438 L 62.171875 16.351563 L 62.511719 16.808594 L 62.851563 17.28125 L 63.171875 17.75 L 63.480469 18.230469 L 63.789063 18.71875 L 64.089844 19.199219 L 64.378906 19.699219 L 64.660156 20.199219 L 64.929688 20.699219 L 65.191406 21.210938 L 65.449219 21.71875 L 65.691406 22.238281 L 65.929688 22.761719 L 66.160156 23.289063 L 66.371094 23.808594 L 66.578125 24.351563 L 66.78125 24.878906 L 66.96875 25.421875 L 67.148438 25.96875 L 67.320313 26.511719 L 67.480469 27.058594 L 67.628906 27.609375 L 67.78125 28.171875 L 67.910156 28.730469 L 68.03125 29.289063 L 68.140625 29.851563 L 68.25 30.410156 L 68.339844 30.96875 L 68.421875 31.539063 L 68.5 32.109375 L 68.558594 32.679688 L 68.609375 33.25 L 68.648438 33.820313 L 68.691406 34.390625 L 68.710938 34.960938 L 68.71875 35.53125 L 68.730469 36.109375 L 68.71875 36.679688 L 68.679688 37.820313 L 68.640625 38.390625 L 68.539063 39.53125 L 68.46875 40.101563 L 36 36 L 36 3.269531 "/>
</g>
</svg>
