<?xml version="1.0" encoding="UTF-8"?>
<svg xmlns="http://www.w3.org/2000/svg" xmlns:xlink="http://www.w3.org/1999/xlink" width="72pt" height="72pt" viewBox="0 0 72 72" version="1.1">
<g id="surface576">
<path style="fill:none;stroke-width:1.07;stroke-linecap:round;stroke-linejoin:round;stroke:rgb(0%,0%,0%);stroke-opacity:1;stroke-miterlimit:10;" d="M 36 3.269531 L 36.578125 3.28125 L 37.148438 3.289063 L 37.730469 3.320313 L 38.308594 3.351563 L 38.878906 3.398438 L 39.460938 3.460938 L 40.03125 3.519531 L 40.601563 3.601563 L 41.171875 3.679688 L 41.738281 3.78125 L 42.308594 3.890625 L 42.871094 4 L 43.441406 4.128906 L 44.558594 4.410156 L 45.109375 4.570313 L 45.671875 4.730469 L 46.21875 4.910156 L 46.761719 5.089844 L 47.308594 5.289063 L 47.851563 5.488281 L 48.378906 5.710938 L 48.910156 5.929688 L 49.441406 6.160156 L 49.96875 6.398438 L 50.488281 6.648438 L 51 6.910156 L 51.511719 7.179688 L 52.019531 7.460938 L 53.019531 8.039063 L 53.511719 8.351563 L 53.988281 8.660156 L 54.46875 8.980469 L 54.941406 9.308594 L 55.410156 9.648438 L 55.871094 10 L 56.328125 10.351563 L 56.78125 10.710938 L 57.21875 11.078125 L 57.660156 11.460938 L 58.089844 11.851563 L 58.511719 12.238281 L 58.921875 12.640625 L 59.328125 13.050781 L 59.730469 13.46875 L 60.128906 13.890625 L 60.511719 14.320313 L 60.890625 14.75 L 61.261719 15.191406 L 61.628906 15.640625 L 61.980469 16.101563 L 62.328125 16.558594 L 62.671875 17.03125 L 63 17.5 L 63.320313 17.980469 L 63.628906 18.460938 L 36 36 L 36 3.269531 "/>
</g>
</svg>
