<?xml version="1.0" encoding="UTF-8"?>
<svg xmlns="http://www.w3.org/2000/svg" xmlns:xlink="http://www.w3.org/1999/xlink" width="72pt" height="72pt" viewBox="0 0 72 72" version="1.1">
<g id="surface991">
<path style="fill:none;stroke-width:1.07;stroke-linecap:round;stroke-linejoin:round;stroke:rgb(0%,0%,0%);stroke-opacity:1;stroke-miterlimit:10;" d="M 36 3.269531 L 36.570313 3.28125 L 37.140625 3.289063 L 37.710938 3.320313 L 38.289063 3.351563 L 38.859375 3.398438 L 39.421875 3.449219 L 39.988281 3.519531 L 40.558594 3.589844 L 41.128906 3.679688 L 41.691406 3.769531 L 42.808594 3.988281 L 43.371094 4.109375 L 43.929688 4.25 L 44.480469 4.390625 L 45.03125 4.539063 L 45.578125 4.710938 L 46.121094 4.878906 L 46.671875 5.058594 L 47.210938 5.25 L 47.738281 5.449219 L 48.269531 5.660156 L 48.800781 5.878906 L 49.328125 6.109375 L 49.851563 6.351563 L 50.359375 6.589844 L 50.871094 6.851563 L 51.378906 7.109375 L 52.378906 7.671875 L 52.871094 7.960938 L 53.359375 8.261719 L 53.839844 8.558594 L 54.320313 8.878906 L 54.789063 9.199219 L 55.261719 9.539063 L 55.710938 9.878906 L 56.171875 10.230469 L 56.621094 10.578125 L 57.058594 10.949219 L 57.488281 11.320313 L 57.921875 11.699219 L 58.339844 12.078125 L 58.75 12.480469 L 59.160156 12.878906 L 59.558594 13.289063 L 59.960938 13.699219 L 60.339844 14.121094 L 60.71875 14.550781 L 61.089844 14.988281 L 61.449219 15.429688 L 61.808594 15.878906 L 62.160156 16.328125 L 62.5 16.789063 L 62.828125 17.261719 L 63.148438 17.730469 L 63.46875 18.210938 L 63.769531 18.691406 L 64.070313 19.179688 L 64.359375 19.671875 L 64.921875 20.671875 L 65.179688 21.179688 L 65.429688 21.691406 L 65.679688 22.210938 L 65.921875 22.730469 L 66.140625 23.25 L 66.359375 23.78125 L 66.570313 24.308594 L 66.769531 24.851563 L 66.960938 25.390625 L 67.140625 25.929688 L 67.308594 26.480469 L 67.46875 27.019531 L 67.621094 27.578125 L 67.769531 28.128906 L 67.898438 28.691406 L 68.019531 29.238281 L 68.140625 29.808594 L 68.238281 30.371094 L 68.328125 30.929688 L 68.421875 31.5 L 68.488281 32.058594 L 68.550781 32.628906 L 68.609375 33.199219 L 68.648438 33.769531 L 68.691406 34.339844 L 68.710938 34.910156 L 68.71875 35.488281 L 68.730469 36.058594 L 68.71875 36.628906 L 68.710938 37.199219 L 68.679688 37.769531 L 68.601563 38.910156 L 68.539063 39.480469 L 68.480469 40.050781 L 68.398438 40.621094 L 68.308594 41.179688 L 68.21875 41.75 L 68.109375 42.308594 L 68 42.871094 L 67.871094 43.429688 L 67.738281 43.980469 L 67.589844 44.539063 L 67.441406 45.089844 L 67.28125 45.628906 L 67.101563 46.179688 L 66.921875 46.71875 L 66.730469 47.261719 L 66.53125 47.789063 L 66.320313 48.328125 L 66.101563 48.851563 L 65.871094 49.378906 L 65.628906 49.898438 L 65.128906 50.921875 L 64.859375 51.429688 L 64.589844 51.929688 L 64.300781 52.429688 L 64.011719 52.921875 L 63.710938 53.410156 L 63.398438 53.890625 L 63.089844 54.371094 L 62.761719 54.839844 L 62.429688 55.300781 L 62.089844 55.761719 L 61.738281 56.210938 L 61.378906 56.660156 L 61.019531 57.101563 L 60.261719 57.960938 L 59.878906 58.378906 L 59.480469 58.800781 L 59.078125 59.199219 L 58.671875 59.601563 L 58.261719 60 L 57.828125 60.378906 L 57.398438 60.761719 L 56.96875 61.128906 L 56.53125 61.488281 L 56.078125 61.851563 L 55.621094 62.191406 L 55.160156 62.53125 L 54.699219 62.859375 L 54.21875 63.179688 L 53.75 63.5 L 53.261719 63.800781 L 52.769531 64.101563 L 52.28125 64.390625 L 51.78125 64.671875 L 51.28125 64.941406 L 50.769531 65.199219 L 50.261719 65.460938 L 49.738281 65.699219 L 49.21875 65.941406 L 48.691406 66.160156 L 48.171875 66.378906 L 47.628906 66.589844 L 47.101563 66.789063 L 46.558594 66.980469 L 46.011719 67.160156 L 45.46875 67.328125 L 44.921875 67.488281 L 44.371094 67.640625 L 43.808594 67.78125 L 43.261719 67.910156 L 42.699219 68.03125 L 42.140625 68.148438 L 41.578125 68.25 L 41.011719 68.339844 L 40.449219 68.421875 L 39.878906 68.5 L 39.308594 68.558594 L 38.738281 68.609375 L 38.171875 68.660156 L 37.601563 68.691406 L 37.03125 68.710938 L 36.460938 68.71875 L 35.878906 68.730469 L 35.308594 68.71875 L 34.738281 68.699219 L 34.171875 68.679688 L 33.601563 68.640625 L 32.460938 68.539063 L 31.890625 68.46875 L 31.328125 68.390625 L 30.761719 68.308594 L 30.199219 68.210938 L 29.640625 68.101563 L 29.078125 67.988281 L 28.519531 67.859375 L 27.960938 67.71875 L 27.410156 67.578125 L 26.859375 67.421875 L 26.308594 67.261719 L 25.769531 67.089844 L 25.21875 66.898438 L 24.691406 66.710938 L 24.148438 66.511719 L 23.621094 66.300781 L 23.089844 66.070313 L 22.050781 65.609375 L 21.53125 65.359375 L 21.019531 65.101563 L 20.519531 64.828125 L 20.019531 64.558594 L 19.519531 64.28125 L 19.03125 63.980469 L 18.539063 63.679688 L 18.058594 63.371094 L 17.589844 63.058594 L 17.121094 62.730469 L 16.648438 62.398438 L 16.191406 62.050781 L 15.738281 61.699219 L 15.300781 61.351563 L 14.859375 60.980469 L 14.421875 60.609375 L 14 60.230469 L 13.578125 59.839844 L 13.160156 59.441406 L 12.761719 59.039063 L 12.359375 58.628906 L 11.96875 58.210938 L 11.578125 57.789063 L 11.199219 57.359375 L 10.828125 56.921875 L 10.46875 56.480469 L 10.121094 56.03125 L 9.769531 55.578125 L 9.441406 55.109375 L 9.109375 54.648438 L 8.78125 54.179688 L 8.46875 53.699219 L 8.171875 53.210938 L 7.871094 52.71875 L 7.578125 52.230469 L 7.300781 51.730469 L 7.03125 51.230469 L 6.769531 50.71875 L 6.519531 50.210938 L 6.269531 49.691406 L 6.039063 49.171875 L 5.808594 48.640625 L 5.601563 48.109375 L 5.390625 47.578125 L 5.191406 47.039063 L 5 46.5 L 4.820313 45.960938 L 4.5 44.859375 L 4.351563 44.308594 L 4.210938 43.761719 L 4.070313 43.199219 L 3.949219 42.640625 L 3.839844 42.078125 L 3.738281 41.519531 L 3.648438 40.949219 L 3.570313 40.390625 L 3.429688 39.25 L 3.378906 38.679688 L 3.339844 38.109375 L 3.308594 37.539063 L 3.289063 36.96875 L 3.28125 36.398438 L 3.269531 35.828125 L 3.28125 35.25 L 3.300781 34.679688 L 3.328125 34.109375 L 3.371094 33.539063 L 3.410156 32.96875 L 3.46875 32.398438 L 3.539063 31.839844 L 3.621094 31.269531 L 3.699219 30.699219 L 3.800781 30.140625 L 3.910156 29.578125 L 4.03125 29.019531 L 4.148438 28.460938 L 4.289063 27.910156 L 4.441406 27.351563 L 4.589844 26.800781 L 4.761719 26.261719 L 4.929688 25.710938 L 5.121094 25.171875 L 5.308594 24.628906 L 5.511719 24.101563 L 5.949219 23.039063 L 6.179688 22.519531 L 6.421875 22 L 6.671875 21.480469 L 6.929688 20.96875 L 7.191406 20.46875 L 7.46875 19.96875 L 7.75 19.46875 L 8.050781 18.980469 L 8.351563 18.488281 L 8.660156 18.011719 L 8.980469 17.539063 L 9.300781 17.070313 L 9.640625 16.601563 L 9.980469 16.148438 L 10.328125 15.699219 L 10.691406 15.25 L 11.058594 14.808594 L 11.429688 14.378906 L 11.808594 13.949219 L 12.199219 13.53125 L 12.601563 13.121094 L 13 12.71875 L 13.410156 12.320313 L 13.828125 11.929688 L 14.25 11.539063 L 14.679688 11.171875 L 15.121094 10.800781 L 15.558594 10.441406 L 16.011719 10.078125 L 16.46875 9.738281 L 16.929688 9.398438 L 17.398438 9.070313 L 17.871094 8.75 L 18.351563 8.441406 L 18.839844 8.128906 L 19.328125 7.839844 L 19.820313 7.550781 L 20.320313 7.269531 L 20.820313 7 L 21.328125 6.738281 L 21.851563 6.488281 L 22.359375 6.25 L 22.890625 6.019531 L 23.410156 5.789063 L 23.941406 5.578125 L 24.46875 5.371094 L 25.011719 5.171875 L 25.550781 4.988281 L 26.101563 4.808594 L 26.640625 4.640625 L 27.191406 4.480469 L 27.738281 4.328125 L 28.300781 4.191406 L 28.859375 4.058594 L 29.410156 3.941406 L 29.980469 3.828125 L 30.539063 3.730469 L 31.101563 3.640625 L 31.671875 3.558594 L 32.238281 3.488281 L 32.808594 3.429688 L 33.371094 3.378906 L 33.949219 3.339844 L 36 36 L 36 3.269531 "/>
</g>
</svg>
