<?xml version="1.0" encoding="UTF-8"?>
<svg xmlns="http://www.w3.org/2000/svg" xmlns:xlink="http://www.w3.org/1999/xlink" width="72pt" height="72pt" viewBox="0 0 72 72" version="1.1">
<g id="surface546">
<path style="fill:none;stroke-width:1.07;stroke-linecap:round;stroke-linejoin:round;stroke:rgb(0%,0%,0%);stroke-opacity:1;stroke-miterlimit:10;" d="M 36 3.269531 L 36.589844 3.28125 L 37.171875 3.289063 L 37.761719 3.320313 L 38.351563 3.359375 L 38.929688 3.398438 L 39.519531 3.460938 L 40.101563 3.53125 L 40.679688 3.609375 L 41.261719 3.699219 L 41.839844 3.800781 L 42.421875 3.910156 L 43 4.03125 L 43.570313 4.160156 L 44.140625 4.300781 L 44.710938 4.449219 L 45.269531 4.609375 L 45.828125 4.78125 L 46.390625 4.96875 L 46.949219 5.160156 L 47.5 5.359375 L 48.050781 5.570313 L 48.589844 5.789063 L 49.128906 6.019531 L 49.671875 6.261719 L 50.199219 6.511719 L 50.730469 6.769531 L 51.25 7.039063 L 51.769531 7.320313 L 52.28125 7.609375 L 52.789063 7.910156 L 53.289063 8.210938 L 53.78125 8.53125 L 54.269531 8.851563 L 54.761719 9.179688 L 55.238281 9.519531 L 36 36 L 36 3.269531 "/>
</g>
</svg>
