<?xml version="1.0" encoding="UTF-8"?>
<svg xmlns="http://www.w3.org/2000/svg" xmlns:xlink="http://www.w3.org/1999/xlink" width="72pt" height="72pt" viewBox="0 0 72 72" version="1.1">
<g id="surface716">
<path style="fill:none;stroke-width:1.07;stroke-linecap:round;stroke-linejoin:round;stroke:rgb(0%,0%,0%);stroke-opacity:1;stroke-miterlimit:10;" d="M 36 3.269531 L 36.570313 3.28125 L 37.148438 3.289063 L 38.289063 3.351563 L 38.859375 3.398438 L 39.429688 3.449219 L 40.570313 3.589844 L 41.128906 3.679688 L 41.699219 3.769531 L 42.261719 3.878906 L 42.820313 3.988281 L 43.378906 4.121094 L 43.941406 4.25 L 44.488281 4.390625 L 45.589844 4.710938 L 46.140625 4.878906 L 46.679688 5.058594 L 47.21875 5.261719 L 47.761719 5.460938 L 48.289063 5.671875 L 48.820313 5.890625 L 49.859375 6.351563 L 50.378906 6.601563 L 50.890625 6.859375 L 51.398438 7.121094 L 51.898438 7.398438 L 52.398438 7.679688 L 52.890625 7.96875 L 53.378906 8.269531 L 53.859375 8.578125 L 54.339844 8.898438 L 54.808594 9.21875 L 55.28125 9.550781 L 55.738281 9.898438 L 56.191406 10.238281 L 56.640625 10.601563 L 57.078125 10.96875 L 57.519531 11.339844 L 57.941406 11.71875 L 58.371094 12.109375 L 58.78125 12.5 L 59.191406 12.898438 L 59.589844 13.308594 L 59.980469 13.730469 L 60.371094 14.148438 L 60.75 14.578125 L 61.121094 15.019531 L 61.480469 15.460938 L 61.839844 15.910156 L 62.179688 16.371094 L 62.519531 16.828125 L 62.851563 17.289063 L 63.179688 17.769531 L 63.488281 18.238281 L 63.800781 18.730469 L 64.101563 19.21875 L 64.390625 19.710938 L 64.671875 20.210938 L 64.941406 20.710938 L 65.199219 21.21875 L 65.460938 21.738281 L 65.699219 22.25 L 65.941406 22.78125 L 66.160156 23.300781 L 66.378906 23.828125 L 66.589844 24.359375 L 66.789063 24.898438 L 66.980469 25.441406 L 67.160156 25.988281 L 67.328125 26.53125 L 67.488281 27.078125 L 67.640625 27.628906 L 67.78125 28.191406 L 68.039063 29.308594 L 68.148438 29.871094 L 68.25 30.429688 L 68.339844 31 L 68.429688 31.558594 L 68.5 32.128906 L 68.558594 32.699219 L 68.660156 33.839844 L 68.691406 34.410156 L 68.710938 34.988281 L 68.71875 35.558594 L 68.730469 36.128906 L 68.71875 36.699219 L 68.699219 37.28125 L 68.679688 37.851563 L 68.640625 38.421875 L 68.589844 38.988281 L 68.53125 39.558594 L 68.46875 40.128906 L 68.390625 40.699219 L 68.300781 41.261719 L 68.199219 41.828125 L 68.101563 42.390625 L 67.980469 42.949219 L 67.851563 43.511719 L 67.71875 44.058594 L 67.570313 44.621094 L 67.421875 45.171875 L 67.25 45.71875 L 67.078125 46.261719 L 66.890625 46.800781 L 66.699219 47.339844 L 66.5 47.878906 L 66.28125 48.410156 L 66.058594 48.941406 L 65.828125 49.460938 L 65.589844 49.980469 L 65.339844 50.5 L 65.078125 51.011719 L 64.820313 51.511719 L 64.539063 52.019531 L 64.261719 52.511719 L 63.960938 53.011719 L 63.660156 53.488281 L 63.351563 53.96875 L 63.03125 54.449219 L 62.699219 54.921875 L 62.371094 55.378906 L 62.03125 55.839844 L 61.679688 56.289063 L 61.320313 56.738281 L 60.949219 57.179688 L 60.191406 58.039063 L 59.800781 58.460938 L 59.410156 58.871094 L 59 59.28125 L 58.589844 59.679688 L 58.171875 60.070313 L 57.75 60.449219 L 57.320313 60.828125 L 56.878906 61.199219 L 56.441406 61.558594 L 55.988281 61.921875 L 55.53125 62.261719 L 55.070313 62.601563 L 54.601563 62.929688 L 54.128906 63.25 L 53.648438 63.558594 L 53.160156 63.871094 L 52.671875 64.160156 L 52.179688 64.449219 L 51.679688 64.730469 L 51.171875 65 L 50.660156 65.261719 L 50.148438 65.511719 L 49.628906 65.761719 L 49.101563 65.988281 L 48.578125 66.210938 L 48.050781 66.429688 L 36 36 L 36 3.269531 "/>
</g>
</svg>
