<?xml version="1.0" encoding="UTF-8"?>
<svg xmlns="http://www.w3.org/2000/svg" xmlns:xlink="http://www.w3.org/1999/xlink" width="72pt" height="72pt" viewBox="0 0 72 72" version="1.1">
<g id="surface846">
<path style="fill:none;stroke-width:1.07;stroke-linecap:round;stroke-linejoin:round;stroke:rgb(0%,0%,0%);stroke-opacity:1;stroke-miterlimit:10;" d="M 36 3.269531 L 36.570313 3.28125 L 37.148438 3.289063 L 38.289063 3.351563 L 38.859375 3.398438 L 39.429688 3.449219 L 40.570313 3.589844 L 41.710938 3.769531 L 42.828125 3.988281 L 43.390625 4.121094 L 43.949219 4.25 L 44.5 4.398438 L 45.058594 4.550781 L 45.609375 4.710938 L 46.148438 4.890625 L 46.699219 5.070313 L 47.238281 5.261719 L 47.769531 5.460938 L 48.308594 5.671875 L 48.839844 5.890625 L 49.359375 6.121094 L 49.878906 6.359375 L 50.398438 6.609375 L 50.910156 6.871094 L 51.421875 7.128906 L 52.421875 7.691406 L 52.921875 7.980469 L 53.398438 8.28125 L 53.890625 8.589844 L 54.359375 8.910156 L 54.839844 9.238281 L 55.300781 9.570313 L 55.761719 9.910156 L 56.21875 10.261719 L 56.660156 10.621094 L 57.109375 10.988281 L 57.539063 11.359375 L 57.96875 11.738281 L 58.390625 12.128906 L 58.808594 12.53125 L 59.210938 12.929688 L 59.609375 13.339844 L 60.011719 13.761719 L 60.390625 14.179688 L 60.769531 14.609375 L 61.140625 15.050781 L 61.511719 15.488281 L 61.859375 15.941406 L 62.210938 16.398438 L 62.550781 16.859375 L 62.878906 17.328125 L 63.199219 17.800781 L 63.519531 18.28125 L 63.820313 18.769531 L 64.121094 19.261719 L 64.410156 19.75 L 64.691406 20.261719 L 64.960938 20.761719 L 65.230469 21.269531 L 65.480469 21.78125 L 65.71875 22.300781 L 65.960938 22.828125 L 66.179688 23.351563 L 66.398438 23.878906 L 66.609375 24.421875 L 66.808594 24.960938 L 67 25.5 L 67.179688 26.039063 L 67.351563 26.589844 L 67.511719 27.140625 L 67.660156 27.691406 L 67.800781 28.25 L 67.929688 28.808594 L 68.050781 29.371094 L 68.160156 29.929688 L 68.261719 30.5 L 68.351563 31.058594 L 68.429688 31.628906 L 68.511719 32.199219 L 68.570313 32.769531 L 68.621094 33.339844 L 68.660156 33.910156 L 68.691406 34.480469 L 68.710938 35.058594 L 68.730469 35.628906 L 68.730469 36.199219 L 68.71875 36.78125 L 68.699219 37.351563 L 68.671875 37.921875 L 68.628906 38.5 L 68.578125 39.070313 L 68.460938 40.210938 L 68.378906 40.78125 L 68.289063 41.339844 L 68.191406 41.910156 L 68.078125 42.46875 L 67.960938 43.03125 L 67.828125 43.589844 L 67.699219 44.148438 L 67.550781 44.699219 L 67.230469 45.800781 L 67.050781 46.351563 L 66.859375 46.890625 L 66.671875 47.429688 L 66.460938 47.960938 L 66.25 48.5 L 66.019531 49.019531 L 65.789063 49.550781 L 65.550781 50.070313 L 65.300781 50.578125 L 65.039063 51.089844 L 64.769531 51.601563 L 64.488281 52.101563 L 64.210938 52.601563 L 63.609375 53.578125 L 63.289063 54.058594 L 62.96875 54.53125 L 62.640625 55 L 62.308594 55.46875 L 61.960938 55.929688 L 61.609375 56.378906 L 61.25 56.820313 L 60.878906 57.261719 L 60.5 57.699219 L 60.121094 58.121094 L 59.730469 58.539063 L 59.328125 58.949219 L 58.921875 59.359375 L 58.511719 59.761719 L 58.089844 60.148438 L 57.660156 60.53125 L 57.230469 60.910156 L 56.789063 61.269531 L 56.351563 61.628906 L 55.890625 61.988281 L 55.429688 62.328125 L 54.96875 62.671875 L 54.5 63 L 54.019531 63.320313 L 53.539063 63.628906 L 53.058594 63.929688 L 52.558594 64.230469 L 52.070313 64.511719 L 51.570313 64.789063 L 51.058594 65.058594 L 50.550781 65.320313 L 50.03125 65.570313 L 49.511719 65.808594 L 48.988281 66.039063 L 48.460938 66.261719 L 47.929688 66.480469 L 46.851563 66.878906 L 46.308594 67.058594 L 45.761719 67.238281 L 44.660156 67.558594 L 44.109375 67.710938 L 43.550781 67.839844 L 42.988281 67.96875 L 42.429688 68.089844 L 41.871094 68.199219 L 40.730469 68.378906 L 40.171875 68.460938 L 39.601563 68.53125 L 39.03125 68.589844 L 38.460938 68.640625 L 37.878906 68.671875 L 37.308594 68.699219 L 36.738281 68.71875 L 36.160156 68.730469 L 35.589844 68.71875 L 35.019531 68.710938 L 34.441406 68.691406 L 33.871094 68.660156 L 33.300781 68.621094 L 32.730469 68.558594 L 32.160156 68.5 L 31.589844 68.429688 L 31.019531 68.351563 L 30.460938 68.25 L 29.890625 68.148438 L 29.328125 68.039063 L 28.769531 67.921875 L 28.210938 67.789063 L 27.648438 67.648438 L 27.101563 67.488281 L 26.550781 67.328125 L 26 67.160156 L 25.460938 66.980469 L 24.921875 66.789063 L 24.378906 66.589844 L 23.851563 66.390625 L 23.320313 66.171875 L 22.789063 65.941406 L 22.269531 65.710938 L 21.230469 65.210938 L 20.71875 64.941406 L 20.21875 64.671875 L 19.71875 64.390625 L 19.21875 64.101563 L 18.730469 63.800781 L 18.25 63.5 L 17.769531 63.179688 L 17.300781 62.859375 L 16.828125 62.519531 L 16.371094 62.191406 L 15.910156 61.839844 L 15.460938 61.480469 L 15.019531 61.121094 L 14.578125 60.75 L 14.148438 60.371094 L 13.730469 59.980469 L 13.308594 59.589844 L 12.898438 59.191406 L 12.5 58.78125 L 12.101563 58.359375 L 11.71875 57.941406 L 11.328125 57.511719 L 10.960938 57.078125 L 10.601563 56.628906 L 10.238281 56.179688 L 9.890625 55.730469 L 9.550781 55.269531 L 9.210938 54.800781 L 8.890625 54.328125 L 8.570313 53.851563 L 8.261719 53.371094 L 7.960938 52.878906 L 7.671875 52.390625 L 7.390625 51.890625 L 7.109375 51.378906 L 6.851563 50.878906 L 6.589844 50.359375 L 6.351563 49.851563 L 6.109375 49.320313 L 5.878906 48.800781 L 5.660156 48.269531 L 5.449219 47.730469 L 5.25 47.199219 L 5.058594 46.660156 L 4.871094 46.109375 L 36 36 L 36 3.269531 "/>
</g>
</svg>
