<?xml version="1.0" encoding="UTF-8"?>
<svg xmlns="http://www.w3.org/2000/svg" xmlns:xlink="http://www.w3.org/1999/xlink" width="72pt" height="72pt" viewBox="0 0 72 72" version="1.1">
<g id="surface641">
<path style="fill:none;stroke-width:1.07;stroke-linecap:round;stroke-linejoin:round;stroke:rgb(0%,0%,0%);stroke-opacity:1;stroke-miterlimit:10;" d="M 36 3.269531 L 36.570313 3.28125 L 37.148438 3.289063 L 38.289063 3.351563 L 38.859375 3.398438 L 39.429688 3.449219 L 40.570313 3.589844 L 41.140625 3.679688 L 41.699219 3.769531 L 42.269531 3.878906 L 42.828125 3.988281 L 43.390625 4.121094 L 43.949219 4.25 L 44.5 4.398438 L 45.050781 4.550781 L 45.601563 4.710938 L 46.148438 4.890625 L 46.691406 5.070313 L 47.230469 5.261719 L 47.769531 5.460938 L 48.300781 5.671875 L 48.828125 5.890625 L 49.359375 6.121094 L 49.878906 6.359375 L 50.398438 6.609375 L 50.910156 6.871094 L 51.421875 7.128906 L 52.421875 7.691406 L 52.910156 7.980469 L 53.398438 8.28125 L 53.890625 8.589844 L 54.359375 8.910156 L 54.828125 9.238281 L 55.300781 9.570313 L 55.761719 9.910156 L 56.210938 10.261719 L 56.660156 10.621094 L 57.101563 10.988281 L 57.539063 11.359375 L 57.96875 11.738281 L 58.390625 12.128906 L 58.800781 12.53125 L 59.210938 12.929688 L 59.609375 13.339844 L 60.011719 13.761719 L 60.390625 14.179688 L 60.769531 14.609375 L 61.140625 15.050781 L 61.5 15.488281 L 61.859375 15.941406 L 62.210938 16.398438 L 62.550781 16.859375 L 62.878906 17.328125 L 63.199219 17.800781 L 63.519531 18.28125 L 63.820313 18.769531 L 64.121094 19.261719 L 64.410156 19.75 L 64.691406 20.25 L 64.960938 20.761719 L 65.21875 21.269531 L 65.480469 21.78125 L 65.71875 22.300781 L 65.960938 22.820313 L 66.179688 23.351563 L 66.398438 23.878906 L 66.609375 24.410156 L 66.808594 24.949219 L 67.171875 26.039063 L 67.339844 26.578125 L 67.5 27.140625 L 67.648438 27.691406 L 67.800781 28.238281 L 67.929688 28.800781 L 68.050781 29.359375 L 68.160156 29.929688 L 68.261719 30.488281 L 68.351563 31.058594 L 68.429688 31.621094 L 68.511719 32.191406 L 68.570313 32.761719 L 68.621094 33.328125 L 68.660156 33.910156 L 68.691406 34.480469 L 68.730469 35.621094 L 68.730469 36.199219 L 68.71875 36.769531 L 68.699219 37.339844 L 68.671875 37.921875 L 68.628906 38.488281 L 68.578125 39.058594 L 68.53125 39.628906 L 68.460938 40.199219 L 68.378906 40.769531 L 68.289063 41.328125 L 68.191406 41.898438 L 68.078125 42.460938 L 67.960938 43.019531 L 67.839844 43.578125 L 67.699219 44.140625 L 36 36 L 36 3.269531 "/>
</g>
</svg>
