<?xml version="1.0" encoding="UTF-8"?>
<svg xmlns="http://www.w3.org/2000/svg" xmlns:xlink="http://www.w3.org/1999/xlink" width="72pt" height="72pt" viewBox="0 0 72 72" version="1.1">
<g id="surface886">
<path style="fill:none;stroke-width:1.07;stroke-linecap:round;stroke-linejoin:round;stroke:rgb(0%,0%,0%);stroke-opacity:1;stroke-miterlimit:10;" d="M 36 3.269531 L 36.570313 3.28125 L 37.148438 3.289063 L 38.289063 3.351563 L 38.859375 3.398438 L 39.429688 3.449219 L 40.570313 3.589844 L 41.128906 3.679688 L 41.699219 3.769531 L 42.261719 3.878906 L 42.820313 3.988281 L 43.378906 4.121094 L 43.941406 4.25 L 44.488281 4.390625 L 45.050781 4.550781 L 45.601563 4.710938 L 46.140625 4.878906 L 47.21875 5.261719 L 47.761719 5.460938 L 48.289063 5.671875 L 48.820313 5.890625 L 49.351563 6.121094 L 49.871094 6.359375 L 50.378906 6.601563 L 50.898438 6.859375 L 51.398438 7.128906 L 51.910156 7.398438 L 52.410156 7.679688 L 52.898438 7.96875 L 53.390625 8.269531 L 53.871094 8.578125 L 54.351563 8.898438 L 54.820313 9.21875 L 55.28125 9.558594 L 55.738281 9.898438 L 56.199219 10.25 L 56.648438 10.609375 L 57.089844 10.96875 L 57.519531 11.339844 L 57.949219 11.71875 L 58.371094 12.109375 L 58.789063 12.511719 L 59.191406 12.910156 L 59.589844 13.320313 L 59.988281 13.738281 L 60.371094 14.160156 L 60.75 14.589844 L 61.121094 15.03125 L 61.488281 15.46875 L 61.839844 15.921875 L 62.191406 16.371094 L 62.53125 16.828125 L 62.859375 17.300781 L 63.179688 17.769531 L 63.5 18.25 L 63.800781 18.738281 L 64.101563 19.230469 L 64.390625 19.71875 L 64.671875 20.21875 L 64.941406 20.71875 L 65.210938 21.230469 L 65.710938 22.269531 L 66.171875 23.308594 L 66.390625 23.839844 L 66.589844 24.378906 L 66.789063 24.910156 L 66.980469 25.449219 L 67.160156 26 L 67.328125 26.550781 L 67.488281 27.101563 L 67.640625 27.648438 L 67.78125 28.199219 L 67.921875 28.761719 L 68.039063 29.320313 L 68.148438 29.878906 L 68.25 30.449219 L 68.339844 31.011719 L 68.429688 31.578125 L 68.5 32.148438 L 68.558594 32.71875 L 68.660156 33.859375 L 68.691406 34.429688 L 68.710938 35 L 68.71875 35.570313 L 68.730469 36.148438 L 68.71875 36.71875 L 68.699219 37.289063 L 68.671875 37.859375 L 68.640625 38.441406 L 68.589844 39.011719 L 68.53125 39.578125 L 68.460938 40.148438 L 68.390625 40.710938 L 68.300781 41.28125 L 68.199219 41.839844 L 68.089844 42.410156 L 67.980469 42.96875 L 67.851563 43.53125 L 67.710938 44.078125 L 67.570313 44.640625 L 67.410156 45.191406 L 67.25 45.738281 L 67.070313 46.28125 L 66.890625 46.820313 L 66.691406 47.359375 L 66.488281 47.898438 L 66.28125 48.429688 L 66.050781 48.960938 L 65.820313 49.480469 L 65.578125 50 L 65.328125 50.519531 L 65.070313 51.03125 L 64.808594 51.53125 L 64.53125 52.039063 L 64.238281 52.53125 L 63.949219 53.019531 L 63.648438 53.511719 L 63.339844 53.988281 L 63.019531 54.46875 L 62.691406 54.941406 L 62.359375 55.398438 L 62.011719 55.859375 L 61.660156 56.308594 L 61.300781 56.761719 L 60.929688 57.199219 L 60.558594 57.628906 L 60.179688 58.058594 L 59.789063 58.480469 L 59.390625 58.890625 L 58.988281 59.300781 L 58.570313 59.699219 L 58.160156 60.089844 L 57.730469 60.46875 L 57.300781 60.851563 L 56.859375 61.21875 L 56.421875 61.578125 L 55.96875 61.929688 L 55.511719 62.28125 L 55.050781 62.609375 L 54.578125 62.941406 L 54.101563 63.261719 L 53.621094 63.578125 L 53.140625 63.878906 L 52.648438 64.179688 L 52.148438 64.460938 L 51.648438 64.738281 L 51.148438 65.011719 L 50.628906 65.269531 L 50.121094 65.519531 L 49.601563 65.769531 L 49.078125 66 L 48.550781 66.21875 L 48.019531 66.441406 L 47.488281 66.648438 L 46.410156 67.03125 L 45.859375 67.210938 L 45.308594 67.371094 L 44.761719 67.53125 L 44.210938 67.679688 L 43.648438 67.820313 L 43.101563 67.949219 L 42.539063 68.070313 L 41.96875 68.179688 L 41.410156 68.28125 L 40.839844 68.371094 L 40.28125 68.449219 L 39.710938 68.519531 L 39.140625 68.578125 L 38.570313 68.628906 L 38 68.671875 L 37.421875 68.699219 L 36.851563 68.71875 L 36.28125 68.730469 L 35.710938 68.730469 L 35.128906 68.71875 L 34.558594 68.699219 L 33.988281 68.671875 L 33.421875 68.628906 L 32.851563 68.578125 L 32.28125 68.511719 L 31.710938 68.441406 L 31.140625 68.359375 L 30.578125 68.269531 L 30.011719 68.171875 L 29.449219 68.070313 L 28.890625 67.949219 L 28.328125 67.820313 L 27.78125 67.679688 L 27.21875 67.53125 L 26.671875 67.371094 L 26.121094 67.199219 L 25.578125 67.019531 L 25.039063 66.839844 L 24.5 66.640625 L 23.96875 66.429688 L 23.441406 66.21875 L 22.910156 65.988281 L 22.390625 65.761719 L 21.871094 65.519531 L 21.351563 65.269531 L 20.839844 65.011719 L 20.339844 64.738281 L 19.839844 64.460938 L 19.339844 64.171875 L 18.851563 63.871094 L 18.359375 63.570313 L 17.878906 63.261719 L 17.410156 62.941406 L 16.941406 62.609375 L 16.480469 62.269531 L 16.019531 61.921875 L 15.570313 61.570313 L 15.128906 61.210938 L 14.691406 60.839844 L 14.261719 60.460938 L 13.828125 60.078125 L 13.421875 59.691406 L 13 59.289063 L 12.601563 58.878906 L 12.199219 58.46875 L 11.808594 58.050781 L 11.429688 57.621094 L 11.058594 57.191406 L 10.691406 56.75 L 10.328125 56.300781 L 9.980469 55.851563 L 9.300781 54.929688 L 8.96875 54.460938 L 8.648438 53.980469 L 8.339844 53.5 L 8.039063 53.011719 L 7.75 52.519531 L 7.460938 52.019531 L 7.191406 51.519531 L 6.921875 51.011719 L 6.660156 50.5 L 6.410156 49.988281 L 6.171875 49.46875 L 5.941406 48.941406 L 5.71875 48.421875 L 5.511719 47.878906 L 5.300781 47.351563 L 5.109375 46.808594 L 4.921875 46.269531 L 4.75 45.71875 L 4.578125 45.171875 L 4.28125 44.070313 L 4.148438 43.511719 L 4.019531 42.949219 L 3.898438 42.390625 L 3.800781 41.828125 L 3.699219 41.261719 L 3.609375 40.699219 L 3.53125 40.128906 L 3.46875 39.558594 L 3.410156 38.988281 L 3.359375 38.421875 L 3.328125 37.851563 L 3.300781 37.28125 L 3.28125 36.699219 L 3.269531 36.128906 L 3.28125 35.558594 L 3.289063 34.988281 L 3.308594 34.410156 L 3.339844 33.839844 L 3.441406 32.699219 L 3.5 32.128906 L 3.570313 31.558594 L 3.660156 31 L 3.75 30.429688 L 3.851563 29.871094 L 36 36 L 36 3.269531 "/>
</g>
</svg>
