<?xml version="1.0" encoding="UTF-8"?>
<svg xmlns="http://www.w3.org/2000/svg" xmlns:xlink="http://www.w3.org/1999/xlink" width="72pt" height="72pt" viewBox="0 0 72 72" version="1.1">
<g id="surface646">
<path style="fill:none;stroke-width:1.07;stroke-linecap:round;stroke-linejoin:round;stroke:rgb(0%,0%,0%);stroke-opacity:1;stroke-miterlimit:10;" d="M 36 3.269531 L 36.578125 3.28125 L 37.148438 3.289063 L 37.730469 3.320313 L 38.300781 3.351563 L 38.878906 3.398438 L 39.449219 3.460938 L 40.03125 3.519531 L 40.601563 3.601563 L 41.171875 3.679688 L 41.738281 3.78125 L 42.300781 3.890625 L 42.871094 4 L 43.429688 4.128906 L 43.988281 4.261719 L 44.550781 4.410156 L 45.101563 4.558594 L 45.660156 4.730469 L 46.199219 4.898438 L 46.75 5.089844 L 47.289063 5.28125 L 47.828125 5.488281 L 48.371094 5.699219 L 48.898438 5.921875 L 49.429688 6.148438 L 50.46875 6.648438 L 50.988281 6.910156 L 51.5 7.171875 L 52 7.449219 L 52.5 7.738281 L 53 8.03125 L 53.488281 8.339844 L 53.96875 8.648438 L 54.449219 8.96875 L 54.921875 9.300781 L 55.390625 9.640625 L 55.851563 9.980469 L 56.308594 10.339844 L 56.761719 10.699219 L 57.199219 11.070313 L 57.640625 11.441406 L 58.058594 11.828125 L 58.488281 12.21875 L 58.898438 12.621094 L 59.308594 13.03125 L 59.710938 13.441406 L 60.109375 13.859375 L 60.488281 14.289063 L 60.871094 14.730469 L 61.238281 15.171875 L 61.601563 15.621094 L 61.960938 16.070313 L 62.308594 16.53125 L 62.648438 17 L 62.980469 17.46875 L 63.300781 17.949219 L 63.609375 18.429688 L 63.921875 18.921875 L 64.210938 19.410156 L 64.5 19.910156 L 64.78125 20.421875 L 65.050781 20.929688 L 65.308594 21.441406 L 65.808594 22.480469 L 66.039063 23.011719 L 66.261719 23.539063 L 66.480469 24.078125 L 66.679688 24.621094 L 66.878906 25.160156 L 67.070313 25.699219 L 67.238281 26.25 L 67.410156 26.800781 L 67.570313 27.359375 L 67.710938 27.921875 L 67.851563 28.480469 L 67.980469 29.039063 L 68.101563 29.601563 L 68.199219 30.171875 L 68.300781 30.738281 L 68.390625 31.308594 L 68.46875 31.878906 L 68.53125 32.449219 L 68.589844 33.03125 L 68.640625 33.601563 L 68.679688 34.179688 L 68.699219 34.75 L 68.71875 35.328125 L 68.730469 35.898438 L 68.71875 36.480469 L 68.710938 37.058594 L 68.691406 37.628906 L 68.648438 38.210938 L 68.609375 38.78125 L 68.550781 39.359375 L 68.488281 39.929688 L 68.421875 40.5 L 68.328125 41.070313 L 68.238281 41.640625 L 68.128906 42.210938 L 68.019531 42.769531 L 67.890625 43.339844 L 67.761719 43.898438 L 67.621094 44.449219 L 67.460938 45.011719 L 67.300781 45.558594 L 67.128906 46.109375 L 36 36 L 36 3.269531 "/>
</g>
</svg>
