<?xml version="1.0" encoding="UTF-8"?>
<svg xmlns="http://www.w3.org/2000/svg" xmlns:xlink="http://www.w3.org/1999/xlink" width="72pt" height="72pt" viewBox="0 0 72 72" version="1.1">
<g id="surface891">
<path style="fill:none;stroke-width:1.07;stroke-linecap:round;stroke-linejoin:round;stroke:rgb(0%,0%,0%);stroke-opacity:1;stroke-miterlimit:10;" d="M 36 3.269531 L 36.570313 3.28125 L 37.140625 3.289063 L 37.71875 3.320313 L 38.289063 3.351563 L 38.859375 3.398438 L 39.429688 3.449219 L 39.988281 3.519531 L 40.558594 3.589844 L 41.128906 3.679688 L 41.691406 3.769531 L 42.808594 3.988281 L 43.371094 4.109375 L 43.929688 4.25 L 44.480469 4.390625 L 45.03125 4.539063 L 45.578125 4.710938 L 46.128906 4.878906 L 46.671875 5.058594 L 47.210938 5.25 L 47.738281 5.449219 L 48.28125 5.660156 L 48.800781 5.878906 L 49.328125 6.109375 L 49.851563 6.351563 L 50.371094 6.589844 L 50.878906 6.851563 L 51.378906 7.109375 L 51.890625 7.390625 L 52.378906 7.671875 L 52.878906 7.960938 L 53.359375 8.261719 L 53.851563 8.570313 L 54.320313 8.878906 L 54.789063 9.210938 L 55.261719 9.539063 L 55.71875 9.878906 L 56.171875 10.230469 L 56.621094 10.589844 L 57.058594 10.949219 L 57.5 11.320313 L 57.921875 11.699219 L 58.351563 12.089844 L 58.761719 12.480469 L 59.171875 12.878906 L 59.570313 13.289063 L 59.960938 13.710938 L 60.351563 14.128906 L 60.730469 14.558594 L 61.101563 14.988281 L 61.460938 15.441406 L 61.820313 15.878906 L 62.5 16.800781 L 62.828125 17.261719 L 63.160156 17.738281 L 63.46875 18.210938 L 63.78125 18.699219 L 64.078125 19.179688 L 64.371094 19.679688 L 64.648438 20.179688 L 64.921875 20.679688 L 65.179688 21.191406 L 65.441406 21.699219 L 65.679688 22.21875 L 65.921875 22.738281 L 66.148438 23.261719 L 66.359375 23.789063 L 66.570313 24.320313 L 66.769531 24.859375 L 66.960938 25.398438 L 67.140625 25.941406 L 67.308594 26.488281 L 67.480469 27.039063 L 67.628906 27.589844 L 67.769531 28.140625 L 67.898438 28.699219 L 68.03125 29.261719 L 68.140625 29.820313 L 68.238281 30.378906 L 68.328125 30.941406 L 68.421875 31.511719 L 68.488281 32.078125 L 68.550781 32.648438 L 68.609375 33.21875 L 68.648438 33.789063 L 68.691406 34.359375 L 68.710938 34.929688 L 68.71875 35.5 L 68.730469 36.070313 L 68.71875 36.640625 L 68.699219 37.21875 L 68.679688 37.789063 L 68.601563 38.929688 L 68.539063 39.5 L 68.46875 40.070313 L 68.398438 40.628906 L 68.308594 41.199219 L 68.21875 41.761719 L 68.109375 42.320313 L 67.988281 42.878906 L 67.871094 43.441406 L 67.730469 44 L 67.589844 44.550781 L 67.441406 45.101563 L 67.269531 45.648438 L 67.101563 46.199219 L 66.921875 46.738281 L 66.71875 47.28125 L 66.519531 47.808594 L 66.308594 48.339844 L 66.089844 48.871094 L 65.859375 49.398438 L 65.621094 49.910156 L 65.371094 50.429688 L 65.121094 50.941406 L 64.851563 51.449219 L 64.578125 51.949219 L 64.289063 52.449219 L 64 52.941406 L 63.699219 53.429688 L 63.390625 53.910156 L 63.078125 54.378906 L 62.75 54.851563 L 62.421875 55.320313 L 62.078125 55.78125 L 61.730469 56.230469 L 61.371094 56.679688 L 61 57.121094 L 60.628906 57.550781 L 60.25 57.980469 L 59.859375 58.398438 L 59.46875 58.808594 L 59.058594 59.21875 L 58.660156 59.621094 L 58.238281 60.011719 L 57.820313 60.398438 L 57.390625 60.769531 L 56.949219 61.140625 L 56.511719 61.511719 L 56.058594 61.859375 L 55.601563 62.210938 L 55.140625 62.539063 L 54.679688 62.878906 L 53.730469 63.511719 L 53.238281 63.820313 L 52.261719 64.398438 L 51.761719 64.679688 L 51.261719 64.949219 L 50.75 65.21875 L 50.238281 65.46875 L 49.71875 65.710938 L 49.199219 65.949219 L 48.671875 66.171875 L 48.140625 66.390625 L 47.609375 66.601563 L 47.070313 66.800781 L 46.53125 66.988281 L 45.988281 67.171875 L 45.441406 67.339844 L 44.890625 67.5 L 44.339844 67.648438 L 43.789063 67.789063 L 43.230469 67.921875 L 42.671875 68.039063 L 42.109375 68.148438 L 41.550781 68.25 L 40.980469 68.351563 L 40.421875 68.429688 L 39.851563 68.5 L 39.28125 68.558594 L 38.140625 68.660156 L 37.570313 68.691406 L 37 68.710938 L 36.429688 68.71875 L 35.859375 68.730469 L 35.28125 68.71875 L 34.710938 68.699219 L 34.140625 68.671875 L 33.570313 68.640625 L 33 68.589844 L 32.429688 68.53125 L 31.859375 68.460938 L 31.300781 68.390625 L 30.730469 68.300781 L 30.171875 68.199219 L 29.601563 68.101563 L 29.039063 67.980469 L 28.488281 67.851563 L 27.929688 67.71875 L 26.828125 67.421875 L 26.28125 67.25 L 25.738281 67.078125 L 25.191406 66.890625 L 24.660156 66.699219 L 24.121094 66.5 L 23.589844 66.28125 L 23.058594 66.058594 L 22.539063 65.828125 L 22.019531 65.589844 L 21.5 65.339844 L 20.988281 65.078125 L 20.488281 64.820313 L 19.988281 64.539063 L 19.488281 64.261719 L 18.511719 63.660156 L 18.03125 63.351563 L 17.558594 63.039063 L 17.089844 62.710938 L 16.621094 62.371094 L 16.171875 62.03125 L 15.710938 61.679688 L 14.828125 60.960938 L 14.398438 60.578125 L 13.96875 60.199219 L 13.550781 59.808594 L 13.140625 59.421875 L 12.730469 59.011719 L 12.328125 58.601563 L 11.941406 58.191406 L 11.558594 57.761719 L 11.179688 57.328125 L 10.808594 56.890625 L 10.449219 56.449219 L 10.101563 56 L 9.75 55.550781 L 9.410156 55.078125 L 9.078125 54.621094 L 8.761719 54.140625 L 8.449219 53.660156 L 8.140625 53.179688 L 7.851563 52.691406 L 7.558594 52.199219 L 7.28125 51.699219 L 7.011719 51.191406 L 6.75 50.679688 L 6.5 50.171875 L 6.261719 49.648438 L 6.019531 49.128906 L 5.800781 48.601563 L 5.578125 48.070313 L 5.378906 47.539063 L 5.179688 47 L 4.988281 46.460938 L 4.808594 45.921875 L 4.640625 45.371094 L 4.480469 44.820313 L 4.199219 43.71875 L 4.070313 43.160156 L 3.949219 42.601563 L 3.828125 42.039063 L 3.730469 41.480469 L 3.640625 40.910156 L 3.558594 40.351563 L 3.488281 39.78125 L 3.429688 39.210938 L 3.378906 38.640625 L 3.339844 38.070313 L 3.308594 37.5 L 3.289063 36.929688 L 3.269531 36.351563 L 3.269531 35.78125 L 3.28125 35.210938 L 3.300781 34.640625 L 3.328125 34.070313 L 3.371094 33.5 L 3.421875 32.929688 L 3.539063 31.789063 L 3.621094 31.21875 L 3.710938 30.660156 L 3.808594 30.101563 L 3.921875 29.53125 L 4.039063 28.96875 L 4.160156 28.421875 L 4.300781 27.859375 L 36 36 L 36 3.269531 "/>
</g>
</svg>
