<?xml version="1.0" encoding="UTF-8"?>
<svg xmlns="http://www.w3.org/2000/svg" xmlns:xlink="http://www.w3.org/1999/xlink" width="72pt" height="72pt" viewBox="0 0 72 72" version="1.1">
<g id="surface841">
<path style="fill:none;stroke-width:1.07;stroke-linecap:round;stroke-linejoin:round;stroke:rgb(0%,0%,0%);stroke-opacity:1;stroke-miterlimit:10;" d="M 36 3.269531 L 36.570313 3.28125 L 37.140625 3.289063 L 37.71875 3.320313 L 38.289063 3.351563 L 38.859375 3.398438 L 39.429688 3.449219 L 39.988281 3.519531 L 40.558594 3.589844 L 41.128906 3.679688 L 41.691406 3.769531 L 42.25 3.878906 L 42.820313 3.988281 L 43.371094 4.109375 L 43.929688 4.25 L 44.480469 4.390625 L 45.039063 4.539063 L 45.578125 4.710938 L 46.128906 4.878906 L 46.671875 5.058594 L 47.210938 5.25 L 47.75 5.449219 L 48.28125 5.660156 L 48.808594 5.878906 L 49.328125 6.109375 L 49.851563 6.351563 L 50.371094 6.601563 L 50.878906 6.851563 L 51.390625 7.121094 L 51.890625 7.390625 L 52.390625 7.671875 L 52.878906 7.960938 L 53.371094 8.261719 L 53.851563 8.570313 L 54.328125 8.890625 L 54.800781 9.210938 L 55.261719 9.539063 L 55.71875 9.878906 L 56.179688 10.230469 L 56.621094 10.589844 L 57.058594 10.949219 L 57.5 11.328125 L 57.929688 11.699219 L 58.351563 12.089844 L 58.761719 12.488281 L 59.171875 12.890625 L 59.570313 13.300781 L 59.960938 13.710938 L 60.351563 14.128906 L 60.730469 14.558594 L 61.101563 15 L 61.460938 15.441406 L 61.820313 15.890625 L 62.171875 16.339844 L 62.511719 16.800781 L 62.839844 17.269531 L 63.160156 17.738281 L 63.480469 18.21875 L 63.78125 18.699219 L 64.078125 19.191406 L 64.371094 19.679688 L 64.648438 20.179688 L 64.921875 20.691406 L 65.191406 21.191406 L 65.441406 21.710938 L 65.691406 22.21875 L 65.921875 22.738281 L 66.148438 23.269531 L 66.371094 23.800781 L 66.578125 24.328125 L 66.78125 24.871094 L 66.96875 25.410156 L 67.148438 25.949219 L 67.320313 26.5 L 67.480469 27.039063 L 67.628906 27.601563 L 67.769531 28.148438 L 67.898438 28.710938 L 68.03125 29.269531 L 68.140625 29.828125 L 68.238281 30.390625 L 68.339844 30.949219 L 68.421875 31.519531 L 68.488281 32.089844 L 68.558594 32.660156 L 68.609375 33.230469 L 68.648438 33.800781 L 68.691406 34.371094 L 68.710938 34.941406 L 68.71875 35.511719 L 68.730469 36.078125 L 68.71875 36.648438 L 68.699219 37.230469 L 68.679688 37.800781 L 68.640625 38.371094 L 68.539063 39.511719 L 68.46875 40.078125 L 68.398438 40.640625 L 68.308594 41.210938 L 68.210938 41.769531 L 68.109375 42.339844 L 67.988281 42.898438 L 67.871094 43.449219 L 67.730469 44.011719 L 67.589844 44.558594 L 67.269531 45.660156 L 67.089844 46.210938 L 66.910156 46.75 L 66.71875 47.289063 L 66.519531 47.820313 L 66.308594 48.359375 L 66.078125 48.878906 L 65.851563 49.410156 L 65.621094 49.929688 L 65.371094 50.441406 L 65.109375 50.949219 L 64.851563 51.460938 L 64.289063 52.460938 L 64 52.949219 L 63.691406 53.441406 L 63.390625 53.921875 L 63.070313 54.398438 L 62.738281 54.871094 L 62.410156 55.328125 L 62.070313 55.789063 L 61.71875 56.238281 L 61.359375 56.691406 L 60.988281 57.128906 L 60.621094 57.558594 L 60.238281 57.988281 L 59.851563 58.410156 L 59.460938 58.820313 L 59.050781 59.230469 L 58.640625 59.628906 L 58.230469 60.019531 L 57.800781 60.410156 L 57.371094 60.78125 L 56.941406 61.148438 L 56.488281 61.519531 L 56.050781 61.871094 L 55.589844 62.21875 L 55.128906 62.550781 L 54.660156 62.890625 L 54.191406 63.210938 L 53.230469 63.828125 L 52.738281 64.121094 L 52.238281 64.410156 L 51.738281 64.691406 L 51.238281 64.960938 L 50.730469 65.21875 L 50.21875 65.480469 L 49.699219 65.71875 L 49.179688 65.960938 L 48.648438 66.179688 L 48.121094 66.398438 L 47.589844 66.609375 L 47.050781 66.800781 L 46.511719 66.988281 L 45.96875 67.171875 L 45.421875 67.339844 L 44.878906 67.5 L 44.320313 67.648438 L 43.769531 67.789063 L 43.210938 67.921875 L 42.648438 68.039063 L 42.089844 68.160156 L 41.53125 68.261719 L 40.960938 68.351563 L 40.398438 68.429688 L 39.828125 68.5 L 39.261719 68.558594 L 38.691406 68.621094 L 38.121094 68.660156 L 37.550781 68.691406 L 36.980469 68.710938 L 36.410156 68.71875 L 35.828125 68.730469 L 35.261719 68.71875 L 34.691406 68.699219 L 34.121094 68.671875 L 33.550781 68.640625 L 32.980469 68.589844 L 32.410156 68.53125 L 31.839844 68.460938 L 31.269531 68.378906 L 30.710938 68.300781 L 30.140625 68.199219 L 29.578125 68.089844 L 29.019531 67.96875 L 28.460938 67.851563 L 27.359375 67.570313 L 26.808594 67.410156 L 26.261719 67.238281 L 25.710938 67.070313 L 25.171875 66.878906 L 24.628906 66.691406 L 24.101563 66.488281 L 23.039063 66.050781 L 22.519531 65.820313 L 22 65.578125 L 21.480469 65.328125 L 20.96875 65.070313 L 20.46875 64.808594 L 19.96875 64.53125 L 19.46875 64.25 L 18.980469 63.949219 L 18.488281 63.648438 L 18.011719 63.339844 L 17.539063 63.019531 L 17.070313 62.691406 L 16.601563 62.359375 L 16.140625 62.019531 L 15.691406 61.671875 L 15.25 61.308594 L 14.808594 60.941406 L 14.378906 60.570313 L 13.949219 60.179688 L 13.53125 59.789063 L 13.121094 59.398438 L 12.710938 58.988281 L 12.308594 58.578125 L 11.921875 58.171875 L 11.539063 57.738281 L 11.160156 57.308594 L 10.789063 56.871094 L 10.429688 56.429688 L 10.078125 55.980469 L 9.730469 55.519531 L 9.398438 55.058594 L 9.070313 54.589844 L 8.75 54.121094 L 8.429688 53.640625 L 8.128906 53.160156 L 7.828125 52.671875 L 7.550781 52.171875 L 7.269531 51.671875 L 7 51.171875 L 6.738281 50.660156 L 6.488281 50.140625 L 6.238281 49.628906 L 6.011719 49.101563 L 5.789063 48.578125 L 5.570313 48.050781 L 36 36 L 36 3.269531 "/>
</g>
</svg>
