<?xml version="1.0" encoding="UTF-8"?>
<svg xmlns="http://www.w3.org/2000/svg" xmlns:xlink="http://www.w3.org/1999/xlink" width="72pt" height="72pt" viewBox="0 0 72 72" version="1.1">
<g id="surface756">
<path style="fill:none;stroke-width:1.07;stroke-linecap:round;stroke-linejoin:round;stroke:rgb(0%,0%,0%);stroke-opacity:1;stroke-miterlimit:10;" d="M 36 3.269531 L 36.570313 3.28125 L 37.140625 3.289063 L 37.710938 3.320313 L 38.289063 3.351563 L 38.859375 3.398438 L 39.421875 3.449219 L 39.988281 3.519531 L 40.558594 3.589844 L 41.128906 3.679688 L 41.691406 3.769531 L 42.808594 3.988281 L 43.371094 4.109375 L 43.929688 4.25 L 44.480469 4.390625 L 45.03125 4.539063 L 45.578125 4.710938 L 46.121094 4.878906 L 46.671875 5.058594 L 47.199219 5.25 L 47.738281 5.449219 L 48.269531 5.660156 L 48.800781 5.878906 L 49.320313 6.109375 L 49.839844 6.351563 L 50.359375 6.589844 L 50.871094 6.851563 L 51.378906 7.109375 L 51.878906 7.378906 L 52.378906 7.671875 L 52.871094 7.960938 L 53.359375 8.261719 L 53.839844 8.558594 L 54.320313 8.878906 L 54.789063 9.199219 L 56.171875 10.21875 L 56.609375 10.578125 L 57.058594 10.949219 L 57.488281 11.320313 L 57.921875 11.699219 L 58.339844 12.078125 L 58.75 12.480469 L 59.160156 12.878906 L 59.558594 13.289063 L 59.949219 13.699219 L 60.339844 14.121094 L 60.71875 14.550781 L 61.089844 14.988281 L 61.449219 15.429688 L 61.808594 15.878906 L 62.160156 16.328125 L 62.5 16.789063 L 62.828125 17.261719 L 63.46875 18.199219 L 63.769531 18.691406 L 64.070313 19.179688 L 64.359375 19.671875 L 64.640625 20.171875 L 64.910156 20.671875 L 65.179688 21.179688 L 65.429688 21.691406 L 65.679688 22.199219 L 65.910156 22.730469 L 66.140625 23.25 L 66.359375 23.78125 L 66.570313 24.308594 L 66.769531 24.851563 L 66.960938 25.390625 L 67.140625 25.929688 L 67.308594 26.46875 L 67.46875 27.019531 L 67.621094 27.570313 L 67.769531 28.128906 L 67.898438 28.679688 L 68.019531 29.238281 L 68.140625 29.800781 L 68.238281 30.371094 L 68.328125 30.929688 L 68.421875 31.488281 L 68.488281 32.058594 L 68.550781 32.628906 L 68.609375 33.199219 L 68.648438 33.769531 L 68.691406 34.339844 L 68.710938 34.910156 L 68.71875 35.480469 L 68.730469 36.050781 L 68.71875 36.628906 L 68.710938 37.199219 L 68.679688 37.769531 L 68.601563 38.910156 L 68.539063 39.480469 L 68.480469 40.050781 L 68.398438 40.609375 L 68.308594 41.179688 L 68.21875 41.738281 L 68.109375 42.308594 L 68 42.871094 L 67.871094 43.421875 L 67.738281 43.980469 L 67.601563 44.53125 L 67.441406 45.078125 L 67.28125 45.628906 L 67.109375 46.179688 L 66.921875 46.71875 L 66.730469 47.261719 L 66.53125 47.789063 L 66.320313 48.320313 L 66.101563 48.851563 L 65.871094 49.371094 L 65.628906 49.890625 L 65.378906 50.410156 L 65.128906 50.921875 L 64.859375 51.429688 L 64.589844 51.929688 L 64.308594 52.429688 L 64.011719 52.921875 L 63.710938 53.410156 L 63.410156 53.890625 L 63.089844 54.359375 L 62.761719 54.828125 L 62.429688 55.300781 L 62.089844 55.761719 L 61.738281 56.210938 L 61.378906 56.660156 L 61.019531 57.101563 L 60.648438 57.53125 L 60.269531 57.960938 L 59.878906 58.378906 L 59.488281 58.789063 L 59.078125 59.199219 L 58.671875 59.601563 L 58.261719 59.988281 L 57.839844 60.378906 L 57.410156 60.761719 L 56.96875 61.128906 L 56.53125 61.488281 L 56.078125 61.839844 L 55.628906 62.191406 L 55.171875 62.53125 L 54.699219 62.859375 L 54.230469 63.179688 L 53.75 63.5 L 53.269531 63.800781 L 52.78125 64.101563 L 52.28125 64.390625 L 51.789063 64.671875 L 51.28125 64.941406 L 50.769531 65.199219 L 50.261719 65.460938 L 49.75 65.699219 L 49.21875 65.941406 L 48.699219 66.160156 L 48.171875 66.378906 L 47.640625 66.589844 L 47.101563 66.789063 L 46.558594 66.980469 L 46.019531 67.160156 L 45.46875 67.328125 L 44.921875 67.488281 L 44.371094 67.640625 L 43.820313 67.78125 L 43.261719 67.910156 L 42.699219 68.03125 L 42.140625 68.148438 L 41.578125 68.25 L 41.019531 68.339844 L 40.449219 68.421875 L 39.878906 68.5 L 39.320313 68.558594 L 38.75 68.609375 L 38.179688 68.648438 L 37.601563 68.691406 L 37.03125 68.710938 L 36.460938 68.71875 L 35.890625 68.730469 L 35.320313 68.71875 L 34.179688 68.679688 L 33.601563 68.640625 L 33.039063 68.589844 L 32.46875 68.539063 L 31.898438 68.46875 L 36 36 L 36 3.269531 "/>
</g>
</svg>
