<?xml version="1.0" encoding="UTF-8"?>
<svg xmlns="http://www.w3.org/2000/svg" xmlns:xlink="http://www.w3.org/1999/xlink" width="72pt" height="72pt" viewBox="0 0 72 72" version="1.1">
<g id="surface981">
<path style="fill:none;stroke-width:1.07;stroke-linecap:round;stroke-linejoin:round;stroke:rgb(0%,0%,0%);stroke-opacity:1;stroke-miterlimit:10;" d="M 36 3.269531 L 36.570313 3.28125 L 37.140625 3.289063 L 38.28125 3.351563 L 38.851563 3.398438 L 39.421875 3.449219 L 39.988281 3.519531 L 40.558594 3.589844 L 41.121094 3.679688 L 41.691406 3.769531 L 42.25 3.871094 L 42.808594 3.988281 L 43.371094 4.109375 L 43.921875 4.25 L 44.480469 4.390625 L 45.03125 4.539063 L 45.570313 4.699219 L 46.121094 4.878906 L 46.660156 5.058594 L 47.199219 5.25 L 47.730469 5.449219 L 48.269531 5.660156 L 48.789063 5.878906 L 49.320313 6.109375 L 49.839844 6.339844 L 50.351563 6.589844 L 50.871094 6.839844 L 51.871094 7.378906 L 52.371094 7.660156 L 52.859375 7.949219 L 53.351563 8.25 L 53.828125 8.558594 L 54.308594 8.871094 L 54.78125 9.199219 L 55.25 9.53125 L 55.710938 9.871094 L 56.160156 10.21875 L 56.609375 10.570313 L 57.050781 10.941406 L 57.480469 11.308594 L 57.910156 11.691406 L 58.328125 12.070313 L 58.738281 12.46875 L 59.148438 12.871094 L 59.550781 13.28125 L 59.949219 13.691406 L 60.328125 14.109375 L 60.710938 14.539063 L 61.078125 14.980469 L 61.441406 15.421875 L 61.800781 15.859375 L 62.148438 16.320313 L 62.488281 16.78125 L 62.820313 17.238281 L 63.140625 17.710938 L 63.460938 18.191406 L 63.761719 18.671875 L 64.058594 19.160156 L 64.351563 19.648438 L 64.628906 20.148438 L 64.910156 20.648438 L 65.171875 21.160156 L 65.421875 21.671875 L 65.671875 22.191406 L 65.910156 22.710938 L 66.128906 23.230469 L 66.351563 23.761719 L 66.558594 24.289063 L 66.761719 24.828125 L 66.949219 25.371094 L 67.128906 25.910156 L 67.300781 26.449219 L 67.46875 27 L 67.621094 27.550781 L 67.761719 28.109375 L 67.890625 28.660156 L 68.019531 29.21875 L 68.128906 29.78125 L 68.230469 30.339844 L 68.328125 30.910156 L 68.410156 31.46875 L 68.488281 32.039063 L 68.550781 32.609375 L 68.609375 33.179688 L 68.648438 33.75 L 68.710938 34.890625 L 68.71875 35.460938 L 68.730469 36.03125 L 68.71875 36.601563 L 68.710938 37.171875 L 68.679688 37.738281 L 68.648438 38.308594 L 68.601563 38.878906 L 68.539063 39.449219 L 68.480469 40.019531 L 68.398438 40.589844 L 68.320313 41.148438 L 68.21875 41.71875 L 68.121094 42.28125 L 68.011719 42.839844 L 67.878906 43.390625 L 67.75 43.949219 L 67.601563 44.5 L 67.449219 45.050781 L 67.289063 45.601563 L 67.109375 46.148438 L 66.929688 46.691406 L 66.738281 47.230469 L 66.539063 47.761719 L 66.328125 48.289063 L 66.109375 48.820313 L 65.878906 49.351563 L 65.648438 49.871094 L 65.398438 50.378906 L 65.140625 50.890625 L 64.878906 51.398438 L 64.609375 51.898438 L 64.320313 52.398438 L 64.03125 52.890625 L 63.730469 53.378906 L 63.429688 53.859375 L 63.109375 54.328125 L 62.789063 54.808594 L 62.109375 55.730469 L 61.761719 56.179688 L 61.410156 56.628906 L 61.039063 57.070313 L 60.671875 57.5 L 60.289063 57.929688 L 59.910156 58.351563 L 59.511719 58.769531 L 59.109375 59.171875 L 58.289063 59.96875 L 57.871094 60.351563 L 57.441406 60.730469 L 57 61.101563 L 56.558594 61.460938 L 56.109375 61.820313 L 55.660156 62.171875 L 55.199219 62.5 L 54.730469 62.839844 L 54.261719 63.160156 L 53.78125 63.46875 L 53.300781 63.78125 L 52.808594 64.078125 L 52.320313 64.371094 L 51.820313 64.648438 L 51.320313 64.921875 L 50.808594 65.179688 L 50.300781 65.441406 L 49.789063 65.679688 L 49.261719 65.921875 L 48.738281 66.148438 L 48.210938 66.359375 L 47.679688 66.570313 L 47.140625 66.769531 L 46.609375 66.960938 L 46.058594 67.140625 L 45.519531 67.308594 L 44.96875 67.46875 L 44.421875 67.628906 L 43.859375 67.769531 L 43.308594 67.898438 L 42.191406 68.140625 L 41.628906 68.238281 L 41.058594 68.328125 L 40.5 68.421875 L 39.929688 68.488281 L 39.359375 68.550781 L 38.800781 68.609375 L 38.230469 68.648438 L 37.648438 68.691406 L 37.078125 68.710938 L 36.511719 68.71875 L 35.941406 68.730469 L 35.371094 68.71875 L 34.800781 68.710938 L 34.230469 68.679688 L 33.089844 68.601563 L 32.519531 68.539063 L 31.949219 68.480469 L 31.378906 68.398438 L 30.261719 68.21875 L 29.691406 68.109375 L 29.128906 68 L 28.578125 67.871094 L 28.019531 67.738281 L 27.46875 67.601563 L 26.921875 67.441406 L 26.371094 67.28125 L 25.828125 67.109375 L 25.28125 66.921875 L 24.75 66.730469 L 24.210938 66.53125 L 23.679688 66.320313 L 23.148438 66.101563 L 22.628906 65.871094 L 22.109375 65.628906 L 21.589844 65.390625 L 21.078125 65.128906 L 20.578125 64.859375 L 20.070313 64.589844 L 19.578125 64.308594 L 19.089844 64.019531 L 18.601563 63.71875 L 18.121094 63.410156 L 17.640625 63.089844 L 17.171875 62.769531 L 16.710938 62.441406 L 16.25 62.089844 L 15.789063 61.75 L 15.351563 61.390625 L 14.46875 60.648438 L 14.050781 60.269531 L 13.628906 59.890625 L 13.210938 59.488281 L 12.808594 59.089844 L 12.011719 58.269531 L 11.628906 57.839844 L 11.25 57.410156 L 10.878906 56.980469 L 10.519531 56.539063 L 10.160156 56.089844 L 9.820313 55.628906 L 9.480469 55.171875 L 9.148438 54.710938 L 8.820313 54.238281 L 8.511719 53.761719 L 8.199219 53.28125 L 7.910156 52.789063 L 7.621094 52.300781 L 7.339844 51.800781 L 7.070313 51.289063 L 6.800781 50.789063 L 6.550781 50.269531 L 6.308594 49.761719 L 6.070313 49.238281 L 5.839844 48.710938 L 5.628906 48.179688 L 5.421875 47.648438 L 5.21875 47.121094 L 5.03125 46.578125 L 4.851563 46.03125 L 4.679688 45.488281 L 4.519531 44.941406 L 4.371094 44.390625 L 4.21875 43.839844 L 4.089844 43.28125 L 3.96875 42.71875 L 3.859375 42.160156 L 3.761719 41.601563 L 3.660156 41.039063 L 3.578125 40.46875 L 3.511719 39.898438 L 3.441406 39.328125 L 3.390625 38.769531 L 3.351563 38.199219 L 3.308594 37.628906 L 3.289063 37.050781 L 3.28125 36.480469 L 3.269531 35.910156 L 3.28125 35.339844 L 3.320313 34.199219 L 3.359375 33.628906 L 3.460938 32.488281 L 3.53125 31.921875 L 3.601563 31.359375 L 3.691406 30.789063 L 3.789063 30.230469 L 3.890625 29.671875 L 4.011719 29.109375 L 4.128906 28.550781 L 4.269531 27.988281 L 4.410156 27.441406 L 4.730469 26.339844 L 4.898438 25.800781 L 5.089844 25.261719 L 5.28125 24.71875 L 5.480469 24.179688 L 5.691406 23.648438 L 5.910156 23.121094 L 6.140625 22.601563 L 6.378906 22.078125 L 6.628906 21.570313 L 6.878906 21.058594 L 7.148438 20.550781 L 7.421875 20.050781 L 7.710938 19.550781 L 8 19.058594 L 8.300781 18.570313 L 8.609375 18.089844 L 8.921875 17.621094 L 9.25 17.148438 L 9.578125 16.679688 L 9.921875 16.21875 L 10.269531 15.769531 L 10.628906 15.328125 L 10.988281 14.890625 L 11.371094 14.449219 L 11.75 14.03125 L 12.128906 13.609375 L 12.53125 13.191406 L 12.929688 12.789063 L 13.339844 12.390625 L 13.761719 11.988281 L 14.179688 11.609375 L 14.609375 11.230469 L 15.039063 10.859375 L 15.488281 10.5 L 15.929688 10.148438 L 16.390625 9.800781 L 16.851563 9.460938 L 17.320313 9.128906 L 17.789063 8.808594 L 18.269531 8.488281 L 18.75 8.191406 L 19.238281 7.890625 L 19.730469 7.601563 L 20.230469 7.320313 L 20.730469 7.050781 L 21.238281 6.789063 L 21.75 6.539063 L 22.269531 6.289063 L 23.308594 5.828125 L 23.839844 5.609375 L 24.378906 5.410156 L 24.910156 5.210938 L 25.449219 5.019531 L 25.988281 4.839844 L 26.539063 4.671875 L 27.089844 4.511719 L 27.640625 4.359375 L 28.191406 4.21875 L 29.308594 3.960938 L 29.871094 3.851563 L 36 36 L 36 3.269531 "/>
</g>
</svg>
