<?xml version="1.0" encoding="UTF-8"?>
<svg xmlns="http://www.w3.org/2000/svg" xmlns:xlink="http://www.w3.org/1999/xlink" width="72pt" height="72pt" viewBox="0 0 72 72" version="1.1">
<g id="surface871">
<path style="fill:none;stroke-width:1.07;stroke-linecap:round;stroke-linejoin:round;stroke:rgb(0%,0%,0%);stroke-opacity:1;stroke-miterlimit:10;" d="M 36 3.269531 L 36.570313 3.28125 L 37.148438 3.289063 L 38.289063 3.351563 L 38.859375 3.398438 L 39.429688 3.449219 L 40.570313 3.589844 L 41.140625 3.679688 L 41.699219 3.769531 L 42.269531 3.878906 L 42.828125 3.988281 L 43.390625 4.121094 L 43.949219 4.25 L 44.5 4.398438 L 45.050781 4.550781 L 45.601563 4.710938 L 46.148438 4.890625 L 46.691406 5.070313 L 47.230469 5.261719 L 47.769531 5.460938 L 48.300781 5.671875 L 48.828125 5.890625 L 49.359375 6.121094 L 49.878906 6.359375 L 50.398438 6.609375 L 50.910156 6.871094 L 51.421875 7.128906 L 52.421875 7.691406 L 52.910156 7.980469 L 53.398438 8.28125 L 53.878906 8.589844 L 54.359375 8.910156 L 54.828125 9.230469 L 55.300781 9.570313 L 55.761719 9.910156 L 56.210938 10.261719 L 56.660156 10.621094 L 57.101563 10.980469 L 57.539063 11.359375 L 57.96875 11.738281 L 58.390625 12.128906 L 58.800781 12.519531 L 59.210938 12.929688 L 59.609375 13.339844 L 60 13.75 L 60.390625 14.179688 L 60.769531 14.609375 L 61.140625 15.039063 L 61.5 15.488281 L 61.859375 15.941406 L 62.199219 16.390625 L 62.539063 16.859375 L 62.878906 17.320313 L 63.199219 17.800781 L 63.511719 18.28125 L 63.820313 18.761719 L 64.121094 19.25 L 64.410156 19.75 L 64.691406 20.25 L 64.960938 20.75 L 65.21875 21.261719 L 65.46875 21.78125 L 65.71875 22.289063 L 65.949219 22.820313 L 66.179688 23.339844 L 66.398438 23.871094 L 66.609375 24.410156 L 66.800781 24.949219 L 66.988281 25.488281 L 67.171875 26.03125 L 67.339844 26.578125 L 67.5 27.128906 L 67.648438 27.679688 L 67.789063 28.238281 L 67.921875 28.800781 L 68.050781 29.359375 L 68.160156 29.921875 L 68.261719 30.480469 L 68.351563 31.050781 L 68.429688 31.621094 L 68.570313 32.761719 L 68.621094 33.328125 L 68.660156 33.898438 L 68.691406 34.46875 L 68.710938 35.039063 L 68.730469 35.621094 L 68.730469 36.191406 L 68.71875 36.761719 L 68.699219 37.339844 L 68.671875 37.910156 L 68.628906 38.480469 L 68.578125 39.050781 L 68.53125 39.621094 L 68.460938 40.191406 L 68.378906 40.761719 L 68.289063 41.328125 L 68.191406 41.890625 L 68.078125 42.460938 L 67.96875 43.019531 L 67.839844 43.570313 L 67.699219 44.128906 L 67.550781 44.691406 L 67.398438 45.238281 L 67.230469 45.789063 L 67.050781 46.328125 L 66.871094 46.871094 L 66.671875 47.410156 L 66.46875 47.949219 L 66.03125 49.011719 L 65.800781 49.53125 L 65.558594 50.050781 L 65.308594 50.570313 L 65.050781 51.078125 L 64.78125 51.589844 L 64.5 52.089844 L 64.210938 52.578125 L 63.921875 53.078125 L 63.621094 53.558594 L 62.980469 54.519531 L 62.660156 54.988281 L 62.320313 55.449219 L 61.96875 55.910156 L 61.621094 56.359375 L 61.261719 56.808594 L 60.890625 57.25 L 60.519531 57.679688 L 60.128906 58.109375 L 59.738281 58.53125 L 59.339844 58.941406 L 58.941406 59.339844 L 58.53125 59.738281 L 58.109375 60.128906 L 57.679688 60.519531 L 57.25 60.890625 L 56.808594 61.261719 L 56.359375 61.621094 L 55.910156 61.96875 L 55.449219 62.320313 L 54.988281 62.660156 L 54.519531 62.980469 L 53.558594 63.621094 L 53.078125 63.921875 L 52.578125 64.210938 L 52.089844 64.5 L 51.589844 64.78125 L 51.078125 65.050781 L 50.570313 65.308594 L 50.050781 65.558594 L 49.53125 65.800781 L 49.011719 66.03125 L 47.949219 66.46875 L 47.410156 66.671875 L 46.871094 66.871094 L 46.328125 67.050781 L 45.789063 67.230469 L 45.238281 67.398438 L 44.691406 67.550781 L 44.128906 67.699219 L 43.570313 67.839844 L 43.019531 67.96875 L 42.460938 68.078125 L 41.890625 68.191406 L 41.328125 68.289063 L 40.761719 68.378906 L 40.191406 68.460938 L 39.621094 68.53125 L 39.050781 68.578125 L 38.480469 68.628906 L 37.910156 68.671875 L 37.339844 68.699219 L 36.761719 68.71875 L 36.191406 68.730469 L 35.621094 68.730469 L 35.039063 68.710938 L 34.46875 68.691406 L 33.898438 68.660156 L 33.328125 68.621094 L 32.761719 68.570313 L 31.621094 68.429688 L 31.050781 68.351563 L 30.480469 68.261719 L 29.921875 68.160156 L 29.359375 68.050781 L 28.800781 67.921875 L 28.238281 67.789063 L 27.679688 67.648438 L 27.128906 67.5 L 26.578125 67.339844 L 26.03125 67.171875 L 25.488281 66.988281 L 24.949219 66.800781 L 24.410156 66.609375 L 23.871094 66.398438 L 23.339844 66.179688 L 22.820313 65.949219 L 22.289063 65.71875 L 21.78125 65.46875 L 21.261719 65.21875 L 20.75 64.960938 L 20.25 64.691406 L 19.75 64.410156 L 19.25 64.121094 L 18.761719 63.820313 L 18.28125 63.511719 L 17.800781 63.199219 L 17.320313 62.878906 L 16.859375 62.539063 L 16.390625 62.199219 L 15.941406 61.859375 L 15.488281 61.5 L 15.039063 61.140625 L 14.609375 60.769531 L 14.179688 60.390625 L 13.75 60 L 13.339844 59.609375 L 12.929688 59.210938 L 12.519531 58.800781 L 12.128906 58.390625 L 11.738281 57.96875 L 11.359375 57.539063 L 10.980469 57.101563 L 10.621094 56.660156 L 10.261719 56.210938 L 9.910156 55.761719 L 9.570313 55.300781 L 9.230469 54.828125 L 8.910156 54.359375 L 8.589844 53.878906 L 8.28125 53.398438 L 7.980469 52.910156 L 7.691406 52.421875 L 7.128906 51.421875 L 6.871094 50.910156 L 6.609375 50.398438 L 6.359375 49.878906 L 6.121094 49.359375 L 5.890625 48.828125 L 5.671875 48.300781 L 5.460938 47.769531 L 5.261719 47.230469 L 5.070313 46.691406 L 4.890625 46.148438 L 4.710938 45.601563 L 4.550781 45.050781 L 4.398438 44.5 L 4.25 43.949219 L 4.121094 43.390625 L 3.988281 42.828125 L 3.878906 42.269531 L 3.769531 41.699219 L 3.679688 41.140625 L 3.589844 40.570313 L 3.449219 39.429688 L 3.398438 38.859375 L 3.351563 38.289063 L 3.289063 37.148438 L 3.28125 36.570313 L 3.269531 36 L 36 36 L 36 3.269531 "/>
</g>
</svg>
