<?xml version="1.0" encoding="UTF-8"?>
<svg xmlns="http://www.w3.org/2000/svg" xmlns:xlink="http://www.w3.org/1999/xlink" width="72pt" height="72pt" viewBox="0 0 72 72" version="1.1">
<g id="surface686">
<path style="fill:none;stroke-width:1.07;stroke-linecap:round;stroke-linejoin:round;stroke:rgb(0%,0%,0%);stroke-opacity:1;stroke-miterlimit:10;" d="M 36 3.269531 L 36.570313 3.28125 L 37.148438 3.289063 L 37.71875 3.320313 L 38.300781 3.351563 L 38.871094 3.398438 L 39.441406 3.449219 L 40.011719 3.519531 L 40.578125 3.589844 L 41.148438 3.679688 L 41.71875 3.78125 L 42.28125 3.878906 L 43.398438 4.121094 L 43.960938 4.261719 L 44.519531 4.398438 L 45.621094 4.71875 L 46.171875 4.890625 L 46.71875 5.078125 L 47.261719 5.269531 L 47.789063 5.46875 L 48.328125 5.679688 L 48.859375 5.898438 L 49.390625 6.140625 L 49.910156 6.371094 L 50.429688 6.621094 L 50.941406 6.878906 L 51.449219 7.148438 L 51.949219 7.421875 L 52.449219 7.710938 L 52.941406 8 L 53.429688 8.300781 L 53.921875 8.609375 L 54.398438 8.929688 L 54.871094 9.261719 L 55.328125 9.589844 L 55.789063 9.941406 L 56.25 10.289063 L 56.699219 10.648438 L 57.140625 11.019531 L 57.570313 11.390625 L 58 11.769531 L 58.429688 12.160156 L 58.839844 12.558594 L 59.25 12.96875 L 59.648438 13.378906 L 60.039063 13.800781 L 60.429688 14.21875 L 60.808594 14.648438 L 61.179688 15.089844 L 61.898438 15.988281 L 62.578125 16.910156 L 62.910156 17.378906 L 63.238281 17.859375 L 63.550781 18.339844 L 63.859375 18.820313 L 64.148438 19.308594 L 64.441406 19.808594 L 64.71875 20.308594 L 64.988281 20.820313 L 65.261719 21.328125 L 65.511719 21.851563 L 65.988281 22.890625 L 66.210938 23.421875 L 66.429688 23.949219 L 66.640625 24.488281 L 66.828125 25.03125 L 67.019531 25.570313 L 67.199219 26.121094 L 67.371094 26.671875 L 67.53125 27.21875 L 67.679688 27.769531 L 67.820313 28.328125 L 67.949219 28.890625 L 68.070313 29.449219 L 68.179688 30.019531 L 68.28125 30.578125 L 68.371094 31.148438 L 68.449219 31.71875 L 68.519531 32.289063 L 68.578125 32.859375 L 68.628906 33.429688 L 68.671875 34.011719 L 68.699219 34.578125 L 68.71875 35.148438 L 68.730469 35.730469 L 68.730469 36.300781 L 68.71875 36.878906 L 68.699219 37.449219 L 68.660156 38.019531 L 68.621094 38.601563 L 68.570313 39.171875 L 68.511719 39.738281 L 68.441406 40.308594 L 68.359375 40.878906 L 68.269531 41.449219 L 68.171875 42.011719 L 68.058594 42.578125 L 67.941406 43.140625 L 67.808594 43.699219 L 67.671875 44.261719 L 67.519531 44.808594 L 67.359375 45.359375 L 67.191406 45.910156 L 67.011719 46.460938 L 66.628906 47.539063 L 66.421875 48.078125 L 66.199219 48.609375 L 65.980469 49.140625 L 65.738281 49.660156 L 65.5 50.179688 L 65.238281 50.699219 L 64.980469 51.210938 L 64.710938 51.710938 L 64.429688 52.21875 L 64.140625 52.710938 L 63.839844 53.199219 L 63.53125 53.691406 L 63.21875 54.171875 L 62.898438 54.640625 L 62.570313 55.109375 L 62.230469 55.578125 L 61.878906 56.03125 L 61.519531 56.488281 L 61.160156 56.929688 L 60.789063 57.371094 L 60.410156 57.800781 L 60.019531 58.230469 L 59.628906 58.640625 L 59.230469 59.058594 L 58.820313 59.460938 L 58.398438 59.859375 L 36 36 L 36 3.269531 "/>
</g>
</svg>
