<?xml version="1.0" encoding="UTF-8"?>
<svg xmlns="http://www.w3.org/2000/svg" xmlns:xlink="http://www.w3.org/1999/xlink" width="72pt" height="72pt" viewBox="0 0 72 72" version="1.1">
<g id="surface966">
<path style="fill:none;stroke-width:1.07;stroke-linecap:round;stroke-linejoin:round;stroke:rgb(0%,0%,0%);stroke-opacity:1;stroke-miterlimit:10;" d="M 36 3.269531 L 36.570313 3.28125 L 37.140625 3.289063 L 37.710938 3.320313 L 38.289063 3.351563 L 38.859375 3.398438 L 39.421875 3.449219 L 39.988281 3.519531 L 40.558594 3.589844 L 41.128906 3.679688 L 41.691406 3.769531 L 42.808594 3.988281 L 43.371094 4.109375 L 43.929688 4.25 L 44.480469 4.390625 L 45.03125 4.539063 L 45.578125 4.710938 L 46.121094 4.878906 L 46.671875 5.058594 L 47.210938 5.25 L 47.738281 5.449219 L 48.269531 5.660156 L 48.800781 5.878906 L 49.328125 6.109375 L 49.851563 6.351563 L 50.359375 6.589844 L 50.871094 6.851563 L 51.378906 7.109375 L 52.378906 7.671875 L 52.871094 7.960938 L 53.359375 8.261719 L 53.839844 8.558594 L 54.320313 8.878906 L 54.789063 9.199219 L 55.261719 9.539063 L 55.71875 9.878906 L 56.171875 10.230469 L 56.621094 10.578125 L 57.058594 10.949219 L 57.488281 11.320313 L 57.921875 11.699219 L 58.339844 12.078125 L 58.761719 12.480469 L 59.160156 12.878906 L 59.558594 13.289063 L 59.960938 13.699219 L 60.339844 14.128906 L 60.71875 14.550781 L 61.089844 14.988281 L 61.460938 15.429688 L 61.808594 15.878906 L 62.160156 16.328125 L 62.5 16.789063 L 62.828125 17.261719 L 63.148438 17.730469 L 63.46875 18.210938 L 63.78125 18.691406 L 64.070313 19.179688 L 64.359375 19.671875 L 64.921875 20.671875 L 65.179688 21.179688 L 65.429688 21.691406 L 65.679688 22.210938 L 65.921875 22.730469 L 66.140625 23.25 L 66.359375 23.78125 L 66.570313 24.320313 L 66.769531 24.851563 L 66.960938 25.390625 L 67.140625 25.929688 L 67.308594 26.480469 L 67.46875 27.03125 L 67.628906 27.578125 L 67.769531 28.128906 L 67.898438 28.691406 L 68.140625 29.808594 L 68.238281 30.371094 L 68.328125 30.929688 L 68.421875 31.5 L 68.488281 32.070313 L 68.550781 32.640625 L 68.609375 33.199219 L 68.648438 33.78125 L 68.691406 34.351563 L 68.710938 34.921875 L 68.71875 35.488281 L 68.730469 36.058594 L 68.71875 36.628906 L 68.710938 37.199219 L 68.679688 37.78125 L 68.601563 38.921875 L 68.539063 39.488281 L 68.480469 40.050781 L 68.398438 40.621094 L 68.308594 41.191406 L 68.21875 41.75 L 68.109375 42.308594 L 68 42.871094 L 67.871094 43.429688 L 67.738281 43.988281 L 67.441406 45.089844 L 67.28125 45.640625 L 66.921875 46.71875 L 66.730469 47.261719 L 66.53125 47.800781 L 66.320313 48.328125 L 66.101563 48.859375 L 65.871094 49.378906 L 65.628906 49.898438 L 65.378906 50.421875 L 65.121094 50.929688 L 64.859375 51.429688 L 64.578125 51.941406 L 64.300781 52.429688 L 64.011719 52.929688 L 63.710938 53.410156 L 63.398438 53.890625 L 63.089844 54.371094 L 62.761719 54.839844 L 62.429688 55.308594 L 62.089844 55.761719 L 61.738281 56.21875 L 61.378906 56.660156 L 61.011719 57.101563 L 60.640625 57.539063 L 60.261719 57.96875 L 59.871094 58.390625 L 59.480469 58.800781 L 59.078125 59.210938 L 58.671875 59.609375 L 58.25 60 L 57.828125 60.378906 L 57.398438 60.761719 L 56.960938 61.128906 L 56.519531 61.488281 L 56.070313 61.851563 L 55.621094 62.199219 L 55.160156 62.53125 L 54.691406 62.859375 L 54.21875 63.191406 L 53.738281 63.5 L 53.261719 63.808594 L 52.769531 64.101563 L 52.28125 64.390625 L 51.78125 64.671875 L 51.269531 64.941406 L 50.769531 65.210938 L 50.25 65.460938 L 49.738281 65.710938 L 49.210938 65.941406 L 48.691406 66.171875 L 48.160156 66.378906 L 47.628906 66.589844 L 47.089844 66.789063 L 46.550781 66.980469 L 46.011719 67.160156 L 45.460938 67.328125 L 44.910156 67.488281 L 44.359375 67.640625 L 43.808594 67.78125 L 42.691406 68.039063 L 42.128906 68.148438 L 41.570313 68.25 L 41.011719 68.339844 L 40.441406 68.421875 L 39.871094 68.5 L 39.300781 68.558594 L 38.160156 68.660156 L 37.589844 68.691406 L 37.019531 68.710938 L 36.449219 68.71875 L 35.878906 68.730469 L 35.308594 68.71875 L 34.730469 68.699219 L 34.160156 68.679688 L 33.589844 68.640625 L 33.019531 68.589844 L 32.449219 68.53125 L 31.890625 68.46875 L 31.320313 68.390625 L 30.75 68.300781 L 30.191406 68.210938 L 29.628906 68.101563 L 28.511719 67.859375 L 27.960938 67.71875 L 27.398438 67.578125 L 26.851563 67.421875 L 26.300781 67.261719 L 25.761719 67.078125 L 25.21875 66.898438 L 24.679688 66.710938 L 24.140625 66.5 L 23.609375 66.289063 L 23.089844 66.070313 L 22.558594 65.839844 L 22.039063 65.601563 L 21.53125 65.351563 L 21.019531 65.101563 L 20.511719 64.828125 L 20.011719 64.558594 L 19.511719 64.269531 L 19.019531 63.980469 L 18.539063 63.679688 L 18.050781 63.371094 L 17.578125 63.050781 L 17.109375 62.71875 L 16.648438 62.390625 L 16.191406 62.050781 L 15.738281 61.699219 L 15.289063 61.339844 L 14.851563 60.96875 L 14.421875 60.601563 L 13.988281 60.21875 L 13.570313 59.828125 L 13.160156 59.441406 L 12.75 59.03125 L 12.351563 58.621094 L 11.960938 58.210938 L 11.578125 57.78125 L 11.199219 57.351563 L 10.828125 56.921875 L 10.46875 56.46875 L 10.109375 56.03125 L 9.429688 55.109375 L 9.101563 54.640625 L 8.78125 54.171875 L 8.46875 53.691406 L 8.160156 53.210938 L 7.859375 52.71875 L 7.578125 52.21875 L 7.300781 51.71875 L 7.03125 51.21875 L 6.769531 50.710938 L 6.511719 50.199219 L 6.269531 49.679688 L 6.03125 49.160156 L 5.808594 48.628906 L 5.589844 48.101563 L 5.390625 47.570313 L 5.191406 47.03125 L 5 46.488281 L 4.820313 45.949219 L 4.648438 45.398438 L 4.488281 44.859375 L 4.339844 44.300781 L 4.199219 43.75 L 4.070313 43.191406 L 3.949219 42.628906 L 3.839844 42.070313 L 3.738281 41.511719 L 3.648438 40.949219 L 3.570313 40.378906 L 3.429688 39.238281 L 3.378906 38.671875 L 3.339844 38.101563 L 3.308594 37.53125 L 3.289063 36.960938 L 3.28125 36.390625 L 3.269531 35.820313 L 3.28125 35.25 L 3.300781 34.671875 L 3.328125 34.101563 L 3.371094 33.53125 L 3.410156 32.960938 L 3.46875 32.390625 L 3.539063 31.828125 L 3.621094 31.261719 L 3.710938 30.691406 L 3.800781 30.128906 L 3.910156 29.570313 L 4.03125 29.011719 L 4.160156 28.449219 L 4.289063 27.898438 L 4.441406 27.339844 L 4.589844 26.789063 L 4.761719 26.25 L 4.941406 25.699219 L 5.121094 25.160156 L 5.308594 24.621094 L 5.730469 23.558594 L 5.949219 23.03125 L 6.179688 22.511719 L 6.421875 21.988281 L 6.671875 21.46875 L 6.929688 20.960938 L 7.46875 19.960938 L 7.761719 19.460938 L 8.050781 18.96875 L 8.351563 18.480469 L 8.660156 18 L 8.980469 17.53125 L 9.308594 17.058594 L 9.648438 16.601563 L 9.988281 16.140625 L 10.339844 15.691406 L 10.699219 15.238281 L 11.058594 14.800781 L 11.441406 14.371094 L 11.820313 13.941406 L 12.210938 13.53125 L 12.609375 13.109375 L 13.011719 12.710938 L 13.421875 12.308594 L 13.839844 11.921875 L 14.261719 11.539063 L 14.691406 11.160156 L 15.128906 10.789063 L 15.570313 10.429688 L 16.019531 10.078125 L 16.480469 9.730469 L 16.941406 9.390625 L 17.878906 8.75 L 18.359375 8.429688 L 18.851563 8.128906 L 19.339844 7.828125 L 19.828125 7.550781 L 20.328125 7.269531 L 20.828125 7 L 21.339844 6.738281 L 21.859375 6.488281 L 22.371094 6.238281 L 22.898438 6.011719 L 23.421875 5.789063 L 23.949219 5.570313 L 36 36 L 36 3.269531 "/>
</g>
</svg>
