<?xml version="1.0" encoding="UTF-8"?>
<svg xmlns="http://www.w3.org/2000/svg" xmlns:xlink="http://www.w3.org/1999/xlink" width="72pt" height="72pt" viewBox="0 0 72 72" version="1.1">
<g id="surface581">
<path style="fill:none;stroke-width:1.07;stroke-linecap:round;stroke-linejoin:round;stroke:rgb(0%,0%,0%);stroke-opacity:1;stroke-miterlimit:10;" d="M 36 3.269531 L 36.570313 3.28125 L 37.148438 3.289063 L 38.289063 3.351563 L 38.859375 3.398438 L 39.429688 3.449219 L 40.570313 3.589844 L 41.140625 3.679688 L 41.699219 3.769531 L 42.261719 3.878906 L 42.828125 3.988281 L 43.390625 4.121094 L 43.941406 4.25 L 44.5 4.398438 L 45.050781 4.550781 L 45.601563 4.710938 L 46.148438 4.878906 L 46.691406 5.070313 L 47.230469 5.261719 L 47.769531 5.460938 L 48.300781 5.671875 L 48.828125 5.890625 L 49.351563 6.121094 L 49.871094 6.359375 L 50.390625 6.609375 L 50.898438 6.859375 L 51.410156 7.128906 L 51.910156 7.398438 L 52.410156 7.691406 L 52.910156 7.980469 L 53.390625 8.28125 L 53.878906 8.589844 L 54.351563 8.898438 L 54.828125 9.230469 L 55.289063 9.558594 L 55.75 9.898438 L 56.199219 10.25 L 56.648438 10.609375 L 57.53125 11.351563 L 57.960938 11.730469 L 58.378906 12.121094 L 58.789063 12.519531 L 59.199219 12.921875 L 59.601563 13.328125 L 60 13.738281 L 60.378906 14.171875 L 60.761719 14.601563 L 61.128906 15.039063 L 61.488281 15.480469 L 61.851563 15.929688 L 62.199219 16.378906 L 62.539063 16.851563 L 62.871094 17.308594 L 63.511719 18.269531 L 63.808594 18.75 L 64.109375 19.238281 L 64.398438 19.730469 L 64.679688 20.230469 L 36 36 L 36 3.269531 "/>
</g>
</svg>
