<?xml version="1.0" encoding="UTF-8"?>
<svg xmlns="http://www.w3.org/2000/svg" xmlns:xlink="http://www.w3.org/1999/xlink" width="72pt" height="72pt" viewBox="0 0 72 72" version="1.1">
<g id="surface666">
<path style="fill:none;stroke-width:1.07;stroke-linecap:round;stroke-linejoin:round;stroke:rgb(0%,0%,0%);stroke-opacity:1;stroke-miterlimit:10;" d="M 36 3.269531 L 36.570313 3.28125 L 37.148438 3.289063 L 38.289063 3.351563 L 38.859375 3.398438 L 39.429688 3.449219 L 40.570313 3.589844 L 41.140625 3.679688 L 41.699219 3.769531 L 42.261719 3.878906 L 42.828125 3.988281 L 43.390625 4.121094 L 43.941406 4.25 L 44.5 4.398438 L 45.050781 4.550781 L 45.601563 4.710938 L 46.148438 4.878906 L 46.691406 5.070313 L 47.230469 5.261719 L 47.769531 5.460938 L 48.300781 5.671875 L 48.828125 5.890625 L 49.351563 6.121094 L 49.871094 6.359375 L 50.390625 6.609375 L 50.898438 6.859375 L 51.410156 7.128906 L 51.910156 7.398438 L 52.410156 7.691406 L 52.910156 7.980469 L 53.390625 8.28125 L 53.878906 8.589844 L 54.351563 8.898438 L 54.828125 9.230469 L 55.289063 9.558594 L 55.75 9.898438 L 56.199219 10.25 L 56.648438 10.609375 L 57.53125 11.351563 L 57.960938 11.730469 L 58.378906 12.121094 L 58.789063 12.519531 L 59.199219 12.921875 L 59.601563 13.328125 L 60 13.738281 L 60.378906 14.171875 L 60.761719 14.601563 L 61.128906 15.039063 L 61.488281 15.480469 L 61.851563 15.929688 L 62.199219 16.378906 L 62.539063 16.851563 L 62.871094 17.308594 L 63.511719 18.269531 L 63.808594 18.75 L 64.109375 19.238281 L 64.398438 19.730469 L 64.679688 20.230469 L 64.949219 20.738281 L 65.210938 21.25 L 65.46875 21.761719 L 65.710938 22.28125 L 65.949219 22.800781 L 66.171875 23.328125 L 66.390625 23.859375 L 66.601563 24.390625 L 66.800781 24.929688 L 66.988281 25.46875 L 67.171875 26.019531 L 67.339844 26.558594 L 67.5 27.109375 L 67.648438 27.671875 L 67.789063 28.21875 L 67.921875 28.78125 L 68.039063 29.339844 L 68.148438 29.898438 L 68.261719 30.460938 L 68.351563 31.03125 L 68.429688 31.601563 L 68.5 32.171875 L 68.558594 32.738281 L 68.621094 33.308594 L 68.660156 33.878906 L 68.691406 34.449219 L 68.710938 35.019531 L 68.71875 35.601563 L 68.730469 36.171875 L 68.71875 36.738281 L 68.699219 37.308594 L 68.671875 37.890625 L 68.628906 38.460938 L 68.589844 39.03125 L 68.53125 39.601563 L 68.460938 40.171875 L 68.378906 40.738281 L 68.289063 41.300781 L 68.199219 41.871094 L 68.089844 42.429688 L 67.96875 42.988281 L 67.839844 43.550781 L 67.710938 44.109375 L 67.558594 44.660156 L 67.238281 45.761719 L 67.058594 46.308594 L 66.878906 46.851563 L 66.679688 47.390625 L 66.480469 47.921875 L 66.269531 48.449219 L 65.808594 49.511719 L 65.570313 50.03125 L 65.320313 50.539063 L 65.058594 51.050781 L 64.789063 51.558594 L 64.519531 52.058594 L 64.230469 52.558594 L 63.941406 53.050781 L 63.628906 53.539063 L 36 36 L 36 3.269531 "/>
</g>
</svg>
