<?xml version="1.0" encoding="UTF-8"?>
<svg xmlns="http://www.w3.org/2000/svg" xmlns:xlink="http://www.w3.org/1999/xlink" width="72pt" height="72pt" viewBox="0 0 72 72" version="1.1">
<g id="surface721">
<path style="fill:none;stroke-width:1.07;stroke-linecap:round;stroke-linejoin:round;stroke:rgb(0%,0%,0%);stroke-opacity:1;stroke-miterlimit:10;" d="M 36 3.269531 L 36.570313 3.28125 L 37.148438 3.289063 L 37.71875 3.320313 L 38.300781 3.351563 L 38.871094 3.398438 L 39.441406 3.449219 L 40.011719 3.519531 L 40.578125 3.601563 L 41.148438 3.679688 L 41.71875 3.78125 L 42.28125 3.878906 L 42.851563 4 L 43.410156 4.121094 L 43.96875 4.261719 L 44.519531 4.398438 L 45.078125 4.558594 L 45.628906 4.71875 L 46.171875 4.890625 L 46.71875 5.078125 L 47.261719 5.269531 L 47.800781 5.46875 L 48.328125 5.691406 L 48.859375 5.910156 L 49.390625 6.140625 L 49.910156 6.378906 L 50.429688 6.628906 L 50.941406 6.878906 L 51.449219 7.148438 L 51.960938 7.429688 L 52.460938 7.710938 L 52.949219 8 L 53.441406 8.308594 L 53.921875 8.621094 L 54.398438 8.941406 L 54.871094 9.261719 L 55.339844 9.601563 L 55.800781 9.941406 L 56.25 10.289063 L 56.699219 10.648438 L 57.148438 11.019531 L 57.578125 11.398438 L 58.011719 11.78125 L 58.429688 12.171875 L 58.851563 12.570313 L 59.660156 13.378906 L 60.050781 13.800781 L 60.808594 14.660156 L 61.179688 15.101563 L 61.550781 15.539063 L 61.898438 16 L 62.25 16.449219 L 62.589844 16.921875 L 62.921875 17.390625 L 63.238281 17.859375 L 63.558594 18.351563 L 63.859375 18.828125 L 64.160156 19.320313 L 64.449219 19.820313 L 64.730469 20.320313 L 65 20.828125 L 65.261719 21.339844 L 65.761719 22.378906 L 65.988281 22.898438 L 66.21875 23.429688 L 66.429688 23.960938 L 66.640625 24.5 L 66.839844 25.039063 L 67.03125 25.578125 L 67.199219 26.128906 L 67.371094 26.679688 L 67.53125 27.230469 L 67.679688 27.789063 L 67.820313 28.339844 L 67.949219 28.898438 L 68.070313 29.46875 L 68.179688 30.03125 L 68.28125 30.601563 L 68.371094 31.160156 L 68.449219 31.730469 L 68.519531 32.300781 L 68.578125 32.878906 L 68.628906 33.449219 L 68.671875 34.019531 L 68.699219 34.601563 L 68.71875 35.171875 L 68.730469 35.738281 L 68.730469 36.320313 L 68.71875 36.890625 L 68.691406 37.46875 L 68.660156 38.039063 L 68.621094 38.621094 L 68.570313 39.191406 L 68.511719 39.761719 L 68.441406 40.328125 L 68.359375 40.898438 L 68.269531 41.46875 L 68.171875 42.03125 L 68.058594 42.601563 L 67.800781 43.71875 L 67.660156 44.269531 L 67.511719 44.828125 L 67.351563 45.378906 L 67.179688 45.929688 L 67 46.480469 L 66.820313 47.019531 L 66.621094 47.558594 L 66.410156 48.101563 L 66.191406 48.628906 L 65.96875 49.160156 L 65.730469 49.679688 L 65.488281 50.199219 L 65.230469 50.71875 L 64.96875 51.230469 L 64.699219 51.730469 L 64.421875 52.230469 L 64.128906 52.730469 L 63.828125 53.21875 L 63.519531 53.710938 L 63.210938 54.191406 L 62.878906 54.660156 L 62.550781 55.128906 L 62.210938 55.601563 L 61.859375 56.050781 L 61.511719 56.5 L 61.140625 56.949219 L 60.769531 57.390625 L 60.390625 57.820313 L 60.011719 58.238281 L 59.609375 58.660156 L 59.210938 59.070313 L 58.800781 59.480469 L 58.378906 59.871094 L 57.960938 60.261719 L 57.53125 60.648438 L 57.101563 61.019531 L 56.648438 61.390625 L 56.199219 61.75 L 55.75 62.101563 L 55.289063 62.441406 L 54.820313 62.769531 L 54.351563 63.101563 L 53.871094 63.421875 L 53.378906 63.730469 L 52.898438 64.03125 L 52.398438 64.320313 L 51.898438 64.601563 L 51.398438 64.878906 L 50.890625 65.148438 L 49.851563 65.648438 L 49.328125 65.890625 L 48.800781 66.121094 L 48.269531 66.339844 L 47.738281 66.550781 L 47.199219 66.75 L 46.660156 66.941406 L 46.109375 67.128906 L 36 36 L 36 3.269531 "/>
</g>
</svg>
