<?xml version="1.0" encoding="UTF-8"?>
<svg xmlns="http://www.w3.org/2000/svg" xmlns:xlink="http://www.w3.org/1999/xlink" width="72pt" height="72pt" viewBox="0 0 72 72" version="1.1">
<g id="surface596">
<path style="fill:none;stroke-width:1.07;stroke-linecap:round;stroke-linejoin:round;stroke:rgb(0%,0%,0%);stroke-opacity:1;stroke-miterlimit:10;" d="M 36 3.269531 L 36.578125 3.28125 L 37.160156 3.289063 L 37.738281 3.320313 L 38.320313 3.351563 L 38.890625 3.398438 L 39.46875 3.460938 L 40.039063 3.519531 L 40.621094 3.601563 L 41.761719 3.78125 L 42.328125 3.890625 L 42.898438 4.011719 L 43.460938 4.140625 L 44.03125 4.269531 L 44.589844 4.421875 L 45.140625 4.578125 L 45.699219 4.738281 L 46.25 4.921875 L 46.800781 5.109375 L 47.339844 5.300781 L 47.890625 5.511719 L 48.421875 5.71875 L 48.960938 5.949219 L 49.488281 6.179688 L 50.011719 6.421875 L 50.53125 6.679688 L 51.050781 6.941406 L 51.558594 7.210938 L 52.070313 7.488281 L 52.570313 7.78125 L 53.070313 8.078125 L 53.558594 8.378906 L 54.050781 8.699219 L 54.53125 9.019531 L 55 9.351563 L 55.46875 9.691406 L 55.929688 10.039063 L 56.390625 10.398438 L 56.839844 10.761719 L 57.28125 11.140625 L 57.71875 11.519531 L 58.148438 11.910156 L 58.570313 12.300781 L 58.988281 12.710938 L 59.398438 13.121094 L 59.800781 13.53125 L 60.191406 13.960938 L 60.578125 14.390625 L 60.960938 14.828125 L 61.328125 15.269531 L 61.691406 15.71875 L 62.039063 16.179688 L 62.390625 16.648438 L 62.730469 17.121094 L 63.058594 17.589844 L 63.378906 18.070313 L 63.691406 18.558594 L 64 19.050781 L 64.289063 19.550781 L 64.578125 20.058594 L 64.859375 20.558594 L 65.128906 21.078125 L 65.390625 21.601563 L 65.640625 22.121094 L 65.878906 22.640625 L 66.109375 23.179688 L 66.328125 23.710938 L 66.75 24.789063 L 66.941406 25.339844 L 67.128906 25.890625 L 36 36 L 36 3.269531 "/>
</g>
</svg>
