<?xml version="1.0" encoding="UTF-8"?>
<svg xmlns="http://www.w3.org/2000/svg" xmlns:xlink="http://www.w3.org/1999/xlink" width="72pt" height="72pt" viewBox="0 0 72 72" version="1.1">
<g id="surface771">
<path style="fill:none;stroke-width:1.07;stroke-linecap:round;stroke-linejoin:round;stroke:rgb(0%,0%,0%);stroke-opacity:1;stroke-miterlimit:10;" d="M 36 3.269531 L 36.570313 3.28125 L 37.148438 3.289063 L 38.289063 3.351563 L 38.871094 3.398438 L 39.441406 3.449219 L 40.011719 3.519531 L 40.578125 3.589844 L 41.148438 3.679688 L 41.710938 3.769531 L 42.28125 3.878906 L 43.398438 4.121094 L 43.960938 4.25 L 44.511719 4.398438 L 45.070313 4.550781 L 45.621094 4.71875 L 46.160156 4.890625 L 46.710938 5.070313 L 47.789063 5.46875 L 48.320313 5.679688 L 48.851563 5.898438 L 49.371094 6.128906 L 49.898438 6.371094 L 50.410156 6.621094 L 50.929688 6.878906 L 51.441406 7.140625 L 51.941406 7.421875 L 52.441406 7.699219 L 52.929688 7.988281 L 53.421875 8.289063 L 53.898438 8.601563 L 54.378906 8.921875 L 54.851563 9.25 L 55.320313 9.578125 L 55.78125 9.929688 L 56.238281 10.28125 L 56.679688 10.640625 L 57.128906 11 L 57.558594 11.378906 L 57.988281 11.761719 L 58.410156 12.148438 L 58.828125 12.550781 L 59.230469 12.949219 L 59.628906 13.359375 L 60.03125 13.78125 L 60.410156 14.199219 L 60.789063 14.640625 L 61.160156 15.070313 L 61.53125 15.519531 L 61.878906 15.96875 L 62.230469 16.429688 L 62.570313 16.890625 L 62.898438 17.359375 L 63.21875 17.828125 L 63.539063 18.308594 L 63.839844 18.800781 L 64.140625 19.289063 L 64.429688 19.789063 L 64.710938 20.289063 L 64.980469 20.789063 L 65.238281 21.308594 L 65.5 21.820313 L 65.738281 22.339844 L 65.980469 22.859375 L 66.199219 23.390625 L 66.421875 23.921875 L 66.820313 25 L 67.011719 25.539063 L 67.191406 26.089844 L 67.359375 26.628906 L 67.519531 27.191406 L 67.671875 27.738281 L 67.808594 28.300781 L 67.941406 28.859375 L 68.058594 29.421875 L 68.171875 29.980469 L 68.269531 30.550781 L 68.359375 31.109375 L 68.441406 31.679688 L 68.511719 32.25 L 68.570313 32.820313 L 68.621094 33.390625 L 68.660156 33.96875 L 68.691406 34.539063 L 68.71875 35.109375 L 68.730469 35.691406 L 68.730469 36.261719 L 68.71875 36.828125 L 68.699219 37.410156 L 68.671875 37.980469 L 68.628906 38.550781 L 68.578125 39.128906 L 68.519531 39.699219 L 68.449219 40.269531 L 68.371094 40.839844 L 68.28125 41.398438 L 68.179688 41.96875 L 68.070313 42.53125 L 67.949219 43.089844 L 67.820313 43.648438 L 67.679688 44.210938 L 67.53125 44.761719 L 67.371094 45.320313 L 67.210938 45.859375 L 67.03125 46.410156 L 66.839844 46.949219 L 66.640625 47.488281 L 66.441406 48.03125 L 66.21875 48.558594 L 66 49.089844 L 65.761719 49.609375 L 65.519531 50.128906 L 65.269531 50.648438 L 64.730469 51.671875 L 64.460938 52.171875 L 64.171875 52.660156 L 63.871094 53.160156 L 63.570313 53.640625 L 62.929688 54.601563 L 62.601563 55.070313 L 62.261719 55.53125 L 61.910156 55.988281 L 61.558594 56.441406 L 61.199219 56.890625 L 60.828125 57.320313 L 60.449219 57.761719 L 60.058594 58.179688 L 59.671875 58.601563 L 59.269531 59.011719 L 58.859375 59.421875 L 58.449219 59.808594 L 58.03125 60.199219 L 57.601563 60.589844 L 57.171875 60.960938 L 56.71875 61.328125 L 56.28125 61.691406 L 55.820313 62.039063 L 54.898438 62.71875 L 54.429688 63.050781 L 53.949219 63.371094 L 53.46875 63.679688 L 52.980469 63.980469 L 52.480469 64.269531 L 51.988281 64.558594 L 51.480469 64.828125 L 50.96875 65.101563 L 50.460938 65.359375 L 49.941406 65.609375 L 49.421875 65.851563 L 48.898438 66.078125 L 48.371094 66.300781 L 47.828125 66.511719 L 47.300781 66.71875 L 46.761719 66.910156 L 46.210938 67.089844 L 45.671875 67.269531 L 45.121094 67.429688 L 44.558594 67.589844 L 44.011719 67.730469 L 43.449219 67.871094 L 42.890625 67.988281 L 42.328125 68.109375 L 41.761719 68.21875 L 41.199219 68.308594 L 40.628906 68.398438 L 39.488281 68.539063 L 38.921875 68.601563 L 38.351563 68.640625 L 37.769531 68.679688 L 37.199219 68.710938 L 36.628906 68.71875 L 36.050781 68.730469 L 35.480469 68.71875 L 34.898438 68.710938 L 34.328125 68.679688 L 33.761719 68.648438 L 33.191406 68.609375 L 32.609375 68.550781 L 32.039063 68.488281 L 31.46875 68.410156 L 30.910156 68.328125 L 30.339844 68.230469 L 29.78125 68.128906 L 29.210938 68.019531 L 28.648438 67.890625 L 28.089844 67.761719 L 27.539063 67.609375 L 26.980469 67.460938 L 26.429688 67.300781 L 25.890625 67.128906 L 36 36 L 36 3.269531 "/>
</g>
</svg>
