<?xml version="1.0" encoding="UTF-8"?>
<svg xmlns="http://www.w3.org/2000/svg" xmlns:xlink="http://www.w3.org/1999/xlink" width="72pt" height="72pt" viewBox="0 0 72 72" version="1.1">
<g id="surface941">
<path style="fill:none;stroke-width:1.07;stroke-linecap:round;stroke-linejoin:round;stroke:rgb(0%,0%,0%);stroke-opacity:1;stroke-miterlimit:10;" d="M 36 3.269531 L 36.570313 3.28125 L 37.140625 3.289063 L 37.710938 3.320313 L 38.289063 3.351563 L 38.859375 3.398438 L 39.429688 3.449219 L 39.988281 3.519531 L 40.558594 3.589844 L 41.128906 3.679688 L 41.691406 3.769531 L 42.808594 3.988281 L 43.371094 4.109375 L 43.929688 4.25 L 44.480469 4.390625 L 45.03125 4.539063 L 45.578125 4.710938 L 46.128906 4.878906 L 46.671875 5.058594 L 47.210938 5.25 L 47.738281 5.449219 L 48.269531 5.660156 L 48.800781 5.878906 L 49.328125 6.109375 L 49.851563 6.351563 L 50.359375 6.589844 L 50.878906 6.851563 L 51.378906 7.109375 L 52.378906 7.671875 L 52.871094 7.960938 L 53.359375 8.261719 L 54.320313 8.878906 L 54.789063 9.210938 L 55.261719 9.539063 L 55.71875 9.878906 L 56.171875 10.230469 L 56.621094 10.578125 L 57.058594 10.949219 L 57.488281 11.320313 L 57.921875 11.699219 L 58.339844 12.089844 L 58.761719 12.480469 L 59.160156 12.878906 L 59.558594 13.289063 L 59.960938 13.699219 L 60.71875 14.558594 L 61.089844 14.988281 L 61.460938 15.429688 L 61.808594 15.878906 L 62.160156 16.328125 L 62.5 16.789063 L 62.828125 17.261719 L 63.148438 17.730469 L 63.46875 18.210938 L 63.78125 18.691406 L 64.070313 19.179688 L 64.359375 19.671875 L 64.648438 20.171875 L 64.921875 20.671875 L 65.179688 21.179688 L 65.441406 21.691406 L 65.679688 22.210938 L 65.921875 22.730469 L 66.140625 23.261719 L 66.359375 23.789063 L 66.570313 24.320313 L 66.769531 24.851563 L 66.960938 25.390625 L 67.140625 25.941406 L 67.308594 26.480469 L 67.46875 27.03125 L 67.628906 27.578125 L 67.769531 28.140625 L 67.898438 28.691406 L 68.140625 29.808594 L 68.238281 30.371094 L 68.328125 30.941406 L 68.421875 31.5 L 68.488281 32.070313 L 68.550781 32.640625 L 68.609375 33.210938 L 68.648438 33.78125 L 68.691406 34.351563 L 68.710938 34.921875 L 68.71875 35.488281 L 68.730469 36.058594 L 68.71875 36.640625 L 68.679688 37.78125 L 68.601563 38.921875 L 68.539063 39.488281 L 68.46875 40.058594 L 68.398438 40.621094 L 68.308594 41.191406 L 68.21875 41.75 L 68.109375 42.320313 L 68 42.878906 L 67.871094 43.429688 L 67.738281 43.988281 L 67.441406 45.089844 L 67.269531 45.640625 L 67.101563 46.191406 L 66.921875 46.730469 L 66.730469 47.269531 L 66.53125 47.800781 L 66.308594 48.328125 L 66.089844 48.859375 L 65.859375 49.390625 L 65.628906 49.910156 L 65.378906 50.421875 L 65.121094 50.929688 L 64.859375 51.441406 L 64.578125 51.941406 L 64.300781 52.441406 L 64.011719 52.929688 L 63.710938 53.421875 L 63.398438 53.898438 L 63.078125 54.371094 L 62.761719 54.839844 L 62.421875 55.308594 L 62.078125 55.769531 L 61.730469 56.21875 L 61.378906 56.671875 L 61.011719 57.109375 L 60.640625 57.539063 L 60.261719 57.96875 L 59.871094 58.390625 L 59.480469 58.800781 L 59.070313 59.210938 L 58.660156 59.609375 L 58.25 60 L 57.828125 60.390625 L 57.398438 60.761719 L 56.960938 61.128906 L 56.519531 61.5 L 56.070313 61.851563 L 55.609375 62.199219 L 55.148438 62.539063 L 54.691406 62.871094 L 54.210938 63.191406 L 53.738281 63.5 L 53.25 63.808594 L 52.761719 64.109375 L 52.269531 64.398438 L 51.769531 64.679688 L 51.269531 64.949219 L 50.761719 65.210938 L 50.25 65.460938 L 49.730469 65.710938 L 49.210938 65.941406 L 48.679688 66.171875 L 48.160156 66.390625 L 47.621094 66.589844 L 47.089844 66.789063 L 46.550781 66.980469 L 46 67.160156 L 45.460938 67.328125 L 44.910156 67.488281 L 44.359375 67.640625 L 43.800781 67.78125 L 43.25 67.921875 L 42.691406 68.039063 L 42.128906 68.148438 L 41.558594 68.25 L 41 68.339844 L 40.429688 68.429688 L 39.871094 68.5 L 39.300781 68.558594 L 38.160156 68.660156 L 37.589844 68.691406 L 37.019531 68.710938 L 36.441406 68.71875 L 35.871094 68.730469 L 35.300781 68.71875 L 34.160156 68.679688 L 33.589844 68.640625 L 33.019531 68.589844 L 32.449219 68.53125 L 31.878906 68.46875 L 31.308594 68.390625 L 30.75 68.300781 L 30.179688 68.210938 L 29.621094 68.101563 L 29.058594 67.980469 L 28.5 67.859375 L 27.398438 67.578125 L 26.839844 67.421875 L 26.300781 67.261719 L 25.210938 66.898438 L 24.671875 66.699219 L 24.140625 66.5 L 23.609375 66.289063 L 23.078125 66.070313 L 22.558594 65.839844 L 22.039063 65.601563 L 21.519531 65.351563 L 21.011719 65.089844 L 20.5 64.828125 L 20 64.550781 L 19.511719 64.269531 L 19.019531 63.96875 L 18.53125 63.671875 L 18.050781 63.359375 L 17.570313 63.050781 L 17.101563 62.71875 L 16.640625 62.390625 L 16.179688 62.039063 L 15.730469 61.691406 L 15.28125 61.339844 L 14.839844 60.96875 L 14.410156 60.601563 L 13.980469 60.210938 L 13.558594 59.828125 L 13.148438 59.429688 L 12.75 59.03125 L 12.351563 58.621094 L 11.949219 58.199219 L 11.570313 57.78125 L 11.191406 57.351563 L 10.820313 56.910156 L 10.460938 56.46875 L 10.109375 56.019531 L 9.761719 55.558594 L 9.429688 55.101563 L 9.101563 54.628906 L 8.769531 54.160156 L 8.460938 53.679688 L 8.160156 53.199219 L 7.859375 52.710938 L 7.570313 52.21875 L 7.289063 51.71875 L 7.019531 51.210938 L 6.761719 50.699219 L 6.511719 50.191406 L 6.269531 49.671875 L 6.03125 49.148438 L 5.808594 48.628906 L 5.589844 48.101563 L 5.378906 47.558594 L 5.191406 47.03125 L 5 46.488281 L 4.820313 45.941406 L 4.648438 45.398438 L 4.488281 44.851563 L 4.339844 44.289063 L 4.199219 43.738281 L 4.070313 43.179688 L 3.949219 42.621094 L 3.839844 42.058594 L 3.738281 41.5 L 3.648438 40.941406 L 3.570313 40.371094 L 3.488281 39.800781 L 3.429688 39.230469 L 3.378906 38.660156 L 3.339844 38.089844 L 3.308594 37.519531 L 3.269531 36.378906 L 3.269531 35.808594 L 3.28125 35.238281 L 3.300781 34.660156 L 3.328125 34.089844 L 3.371094 33.519531 L 3.410156 32.949219 L 3.46875 32.378906 L 3.539063 31.820313 L 3.621094 31.25 L 3.710938 30.679688 L 3.808594 30.121094 L 3.910156 29.558594 L 4.03125 29 L 4.160156 28.441406 L 4.289063 27.890625 L 4.441406 27.328125 L 4.601563 26.78125 L 4.761719 26.238281 L 4.941406 25.691406 L 5.121094 25.148438 L 5.320313 24.609375 L 5.519531 24.078125 L 5.730469 23.550781 L 5.960938 23.019531 L 6.191406 22.5 L 6.429688 21.980469 L 6.679688 21.460938 L 6.941406 20.949219 L 7.199219 20.449219 L 7.480469 19.949219 L 7.769531 19.449219 L 8.058594 18.960938 L 8.359375 18.46875 L 8.671875 17.988281 L 8.988281 17.519531 L 9.320313 17.050781 L 9.648438 16.589844 L 10 16.128906 L 10.351563 15.679688 L 10.710938 15.230469 L 11.070313 14.789063 L 11.449219 14.359375 L 11.828125 13.941406 L 12.21875 13.519531 L 12.609375 13.101563 L 13.019531 12.699219 L 13.429688 12.300781 L 13.851563 11.910156 L 14.269531 11.53125 L 14.699219 11.148438 L 15.140625 10.78125 L 36 36 L 36 3.269531 "/>
</g>
</svg>
