<?xml version="1.0" encoding="UTF-8"?>
<svg xmlns="http://www.w3.org/2000/svg" xmlns:xlink="http://www.w3.org/1999/xlink" width="72pt" height="72pt" viewBox="0 0 72 72" version="1.1">
<g id="surface976">
<path style="fill:none;stroke-width:1.07;stroke-linecap:round;stroke-linejoin:round;stroke:rgb(0%,0%,0%);stroke-opacity:1;stroke-miterlimit:10;" d="M 36 3.269531 L 36.570313 3.28125 L 37.140625 3.289063 L 37.71875 3.320313 L 38.289063 3.351563 L 38.859375 3.398438 L 39.429688 3.449219 L 40 3.519531 L 40.558594 3.589844 L 41.128906 3.679688 L 41.691406 3.769531 L 42.261719 3.878906 L 42.820313 3.988281 L 43.371094 4.109375 L 43.929688 4.25 L 44.480469 4.390625 L 45.039063 4.539063 L 45.578125 4.710938 L 46.128906 4.878906 L 46.671875 5.058594 L 47.210938 5.25 L 47.75 5.449219 L 48.28125 5.660156 L 48.808594 5.878906 L 49.328125 6.109375 L 49.851563 6.351563 L 50.371094 6.601563 L 50.878906 6.851563 L 51.390625 7.121094 L 51.890625 7.390625 L 52.390625 7.671875 L 52.878906 7.960938 L 53.371094 8.261719 L 53.851563 8.570313 L 54.328125 8.890625 L 54.800781 9.210938 L 55.269531 9.539063 L 55.730469 9.878906 L 56.179688 10.230469 L 56.628906 10.589844 L 57.070313 10.960938 L 57.5 11.328125 L 57.929688 11.710938 L 58.351563 12.089844 L 58.769531 12.488281 L 59.171875 12.890625 L 59.96875 13.710938 L 60.351563 14.140625 L 60.730469 14.570313 L 61.101563 15 L 61.46875 15.441406 L 61.820313 15.890625 L 62.171875 16.351563 L 62.511719 16.808594 L 62.839844 17.269531 L 63.160156 17.75 L 63.480469 18.21875 L 63.78125 18.710938 L 64.078125 19.191406 L 64.371094 19.691406 L 64.648438 20.191406 L 64.929688 20.691406 L 65.191406 21.199219 L 65.441406 21.710938 L 65.691406 22.230469 L 65.921875 22.75 L 66.148438 23.269531 L 66.371094 23.800781 L 66.578125 24.339844 L 66.78125 24.871094 L 66.96875 25.410156 L 67.148438 25.949219 L 67.320313 26.5 L 67.480469 27.050781 L 67.628906 27.601563 L 67.769531 28.160156 L 67.910156 28.710938 L 68.03125 29.269531 L 68.140625 29.828125 L 68.238281 30.398438 L 68.339844 30.960938 L 68.421875 31.53125 L 68.488281 32.089844 L 68.558594 32.660156 L 68.609375 33.230469 L 68.648438 33.800781 L 68.691406 34.371094 L 68.710938 34.949219 L 68.71875 35.519531 L 68.730469 36.089844 L 68.71875 36.660156 L 68.699219 37.230469 L 68.679688 37.808594 L 68.640625 38.378906 L 68.539063 39.519531 L 68.46875 40.078125 L 68.398438 40.648438 L 68.308594 41.21875 L 68.210938 41.78125 L 68.109375 42.339844 L 67.988281 42.898438 L 67.871094 43.460938 L 67.730469 44.019531 L 67.578125 44.570313 L 67.429688 45.121094 L 67.269531 45.671875 L 67.089844 46.21875 L 66.910156 46.761719 L 66.71875 47.300781 L 66.511719 47.828125 L 66.300781 48.359375 L 66.078125 48.890625 L 65.851563 49.410156 L 65.609375 49.929688 L 65.359375 50.449219 L 65.109375 50.960938 L 64.839844 51.46875 L 64.570313 51.96875 L 64.28125 52.46875 L 63.988281 52.960938 L 63.691406 53.449219 L 63.378906 53.929688 L 63.058594 54.398438 L 62.738281 54.871094 L 62.398438 55.339844 L 62.058594 55.800781 L 61.710938 56.25 L 61.351563 56.699219 L 60.988281 57.140625 L 60.230469 58 L 59.839844 58.421875 L 59.449219 58.828125 L 59.050781 59.238281 L 58.640625 59.640625 L 58.21875 60.03125 L 57.800781 60.410156 L 57.371094 60.789063 L 56.929688 61.160156 L 56.488281 61.519531 L 56.039063 61.878906 L 55.578125 62.21875 L 55.121094 62.558594 L 54.648438 62.890625 L 54.179688 63.210938 L 53.699219 63.53125 L 53.21875 63.828125 L 52.730469 64.128906 L 52.230469 64.421875 L 51.738281 64.699219 L 51.230469 64.96875 L 50.71875 65.230469 L 50.210938 65.480469 L 49.691406 65.730469 L 49.171875 65.960938 L 48.640625 66.191406 L 48.109375 66.398438 L 47.578125 66.609375 L 47.039063 66.808594 L 46.5 67 L 45.960938 67.171875 L 45.410156 67.339844 L 44.859375 67.5 L 44.308594 67.648438 L 43.761719 67.789063 L 43.199219 67.929688 L 42.640625 68.050781 L 42.078125 68.160156 L 41.519531 68.261719 L 40.949219 68.351563 L 40.390625 68.429688 L 39.25 68.570313 L 38.679688 68.621094 L 38.109375 68.660156 L 37.539063 68.691406 L 36.96875 68.710938 L 36.390625 68.71875 L 35.820313 68.730469 L 35.25 68.71875 L 34.679688 68.699219 L 34.109375 68.671875 L 33.53125 68.628906 L 32.960938 68.589844 L 32.398438 68.53125 L 31.828125 68.460938 L 31.261719 68.378906 L 30.691406 68.289063 L 30.128906 68.199219 L 29.570313 68.089844 L 29.011719 67.96875 L 28.449219 67.839844 L 27.898438 67.710938 L 27.339844 67.558594 L 26.789063 67.410156 L 26.238281 67.238281 L 25.160156 66.878906 L 24.621094 66.691406 L 24.089844 66.480469 L 23.550781 66.269531 L 23.03125 66.050781 L 22.5 65.808594 L 21.980469 65.570313 L 21.46875 65.320313 L 20.960938 65.070313 L 20.449219 64.800781 L 19.949219 64.519531 L 19.460938 64.238281 L 18.960938 63.941406 L 18.480469 63.640625 L 18 63.328125 L 17.519531 63.011719 L 17.050781 62.691406 L 16.128906 62.011719 L 15.679688 61.660156 L 15.238281 61.300781 L 14.800781 60.929688 L 14.359375 60.558594 L 13.941406 60.171875 L 13.519531 59.78125 L 13.109375 59.390625 L 12.699219 58.980469 L 12.300781 58.570313 L 11.910156 58.148438 L 11.53125 57.730469 L 11.148438 57.300781 L 10.78125 56.859375 L 10.421875 56.421875 L 10.070313 55.96875 L 9.71875 55.511719 L 9.390625 55.050781 L 9.058594 54.578125 L 8.738281 54.109375 L 8.429688 53.628906 L 8.121094 53.140625 L 7.828125 52.648438 L 7.539063 52.160156 L 7.261719 51.660156 L 6.988281 51.148438 L 6.730469 50.640625 L 6.480469 50.128906 L 6.238281 49.609375 L 6 49.089844 L 5.78125 48.558594 L 5.558594 48.03125 L 5.359375 47.5 L 5.160156 46.960938 L 4.980469 46.421875 L 4.800781 45.871094 L 4.628906 45.328125 L 4.46875 44.78125 L 4.320313 44.230469 L 4.179688 43.671875 L 4.058594 43.109375 L 3.941406 42.550781 L 3.828125 41.988281 L 3.730469 41.429688 L 3.640625 40.859375 L 3.558594 40.300781 L 3.488281 39.730469 L 3.429688 39.160156 L 3.378906 38.589844 L 3.300781 37.449219 L 3.28125 36.878906 L 3.269531 36.300781 L 3.269531 35.730469 L 3.28125 35.160156 L 3.300781 34.589844 L 3.328125 34.019531 L 3.371094 33.449219 L 3.421875 32.878906 L 3.480469 32.308594 L 3.550781 31.738281 L 3.628906 31.171875 L 3.71875 30.609375 L 3.820313 30.039063 L 3.929688 29.480469 L 4.050781 28.921875 L 4.179688 28.359375 L 4.308594 27.808594 L 4.460938 27.261719 L 4.621094 26.710938 L 4.789063 26.160156 L 4.960938 25.621094 L 5.148438 25.070313 L 5.351563 24.539063 L 5.550781 24 L 5.769531 23.46875 L 5.988281 22.949219 L 6.21875 22.421875 L 6.460938 21.898438 L 6.71875 21.390625 L 6.96875 20.878906 L 7.238281 20.371094 L 7.519531 19.871094 L 7.808594 19.378906 L 8.101563 18.890625 L 8.410156 18.398438 L 8.71875 17.921875 L 9.039063 17.449219 L 9.371094 16.980469 L 9.699219 16.519531 L 10.050781 16.058594 L 10.398438 15.609375 L 10.761719 15.171875 L 11.128906 14.730469 L 11.5 14.300781 L 11.890625 13.871094 L 12.28125 13.449219 L 12.679688 13.039063 L 13.078125 12.640625 L 13.488281 12.238281 L 13.910156 11.851563 L 14.339844 11.46875 L 14.769531 11.089844 L 15.210938 10.730469 L 15.648438 10.371094 L 16.101563 10.011719 L 16.558594 9.671875 L 17.019531 9.339844 L 17.488281 9.011719 L 17.96875 8.691406 L 18.449219 8.378906 L 18.929688 8.070313 L 19.429688 7.78125 L 19.921875 7.488281 L 20.421875 7.21875 L 20.929688 6.949219 L 21.441406 6.691406 L 21.949219 6.441406 L 22.46875 6.199219 L 22.988281 5.96875 L 24.050781 5.53125 L 24.589844 5.328125 L 25.121094 5.128906 L 25.671875 4.949219 L 26.210938 4.769531 L 26.761719 4.601563 L 27.308594 4.449219 L 27.859375 4.300781 L 36 36 L 36 3.269531 "/>
</g>
</svg>
