<?xml version="1.0" encoding="UTF-8"?>
<svg xmlns="http://www.w3.org/2000/svg" xmlns:xlink="http://www.w3.org/1999/xlink" width="72pt" height="72pt" viewBox="0 0 72 72" version="1.1">
<g id="surface611">
<path style="fill:none;stroke-width:1.07;stroke-linecap:round;stroke-linejoin:round;stroke:rgb(0%,0%,0%);stroke-opacity:1;stroke-miterlimit:10;" d="M 36 3.269531 L 36.578125 3.28125 L 37.148438 3.289063 L 37.730469 3.320313 L 38.308594 3.351563 L 38.878906 3.398438 L 39.449219 3.460938 L 40.03125 3.519531 L 40.601563 3.601563 L 41.171875 3.679688 L 41.738281 3.78125 L 42.300781 3.890625 L 42.871094 4 L 43.429688 4.128906 L 43.988281 4.261719 L 44.550781 4.410156 L 45.109375 4.570313 L 45.660156 4.730469 L 46.761719 5.089844 L 47.300781 5.28125 L 47.839844 5.488281 L 48.371094 5.699219 L 48.910156 5.921875 L 49.429688 6.160156 L 49.960938 6.398438 L 50.480469 6.648438 L 50.988281 6.910156 L 52.011719 7.449219 L 52.511719 7.738281 L 53.488281 8.339844 L 53.980469 8.648438 L 54.460938 8.96875 L 54.929688 9.300781 L 55.398438 9.640625 L 55.859375 9.988281 L 56.320313 10.339844 L 56.761719 10.699219 L 57.210938 11.070313 L 57.640625 11.449219 L 58.070313 11.839844 L 58.488281 12.230469 L 58.910156 12.628906 L 59.320313 13.039063 L 59.71875 13.449219 L 60.109375 13.871094 L 60.5 14.300781 L 60.878906 14.738281 L 61.25 15.179688 L 61.96875 16.078125 L 62.308594 16.539063 L 62.648438 17.011719 L 62.980469 17.480469 L 63.308594 17.960938 L 63.621094 18.441406 L 63.921875 18.929688 L 64.21875 19.429688 L 64.511719 19.929688 L 64.789063 20.429688 L 65.058594 20.941406 L 65.320313 21.460938 L 65.570313 21.96875 L 65.808594 22.5 L 66.050781 23.03125 L 66.269531 23.558594 L 66.480469 24.089844 L 66.691406 24.628906 L 66.878906 25.171875 L 67.070313 25.71875 L 67.25 26.269531 L 67.410156 26.820313 L 67.570313 27.378906 L 67.71875 27.929688 L 67.851563 28.488281 L 67.980469 29.058594 L 68.101563 29.621094 L 68.210938 30.191406 L 68.300781 30.761719 L 68.390625 31.328125 L 68.46875 31.898438 L 36 36 L 36 3.269531 "/>
</g>
</svg>
