<?xml version="1.0" encoding="UTF-8"?>
<svg xmlns="http://www.w3.org/2000/svg" xmlns:xlink="http://www.w3.org/1999/xlink" width="72pt" height="72pt" viewBox="0 0 72 72" version="1.1">
<g id="surface701">
<path style="fill:none;stroke-width:1.07;stroke-linecap:round;stroke-linejoin:round;stroke:rgb(0%,0%,0%);stroke-opacity:1;stroke-miterlimit:10;" d="M 36 3.269531 L 36.570313 3.28125 L 37.148438 3.289063 L 38.289063 3.351563 L 38.859375 3.398438 L 39.429688 3.449219 L 40.570313 3.589844 L 41.710938 3.769531 L 42.828125 3.988281 L 43.390625 4.121094 L 43.949219 4.25 L 44.5 4.398438 L 45.058594 4.550781 L 45.609375 4.710938 L 46.148438 4.890625 L 46.699219 5.070313 L 47.238281 5.261719 L 47.769531 5.460938 L 48.308594 5.679688 L 48.839844 5.898438 L 49.359375 6.121094 L 49.878906 6.359375 L 50.398438 6.609375 L 50.910156 6.871094 L 51.421875 7.128906 L 51.929688 7.410156 L 52.421875 7.691406 L 52.921875 7.980469 L 53.410156 8.289063 L 53.890625 8.589844 L 54.371094 8.910156 L 54.839844 9.238281 L 55.300781 9.570313 L 55.761719 9.910156 L 56.21875 10.269531 L 56.671875 10.621094 L 57.109375 10.988281 L 57.539063 11.359375 L 57.96875 11.738281 L 58.390625 12.128906 L 58.808594 12.53125 L 59.21875 12.929688 L 59.621094 13.339844 L 60.011719 13.761719 L 60.398438 14.179688 L 60.769531 14.621094 L 61.148438 15.050781 L 61.511719 15.5 L 61.859375 15.949219 L 62.210938 16.398438 L 62.550781 16.871094 L 62.878906 17.328125 L 63.519531 18.289063 L 63.828125 18.769531 L 64.121094 19.261719 L 64.410156 19.761719 L 64.691406 20.261719 L 64.960938 20.761719 L 65.230469 21.269531 L 65.480469 21.789063 L 65.71875 22.308594 L 65.960938 22.828125 L 66.191406 23.359375 L 66.398438 23.890625 L 66.609375 24.421875 L 66.808594 24.960938 L 67 25.5 L 67.179688 26.050781 L 67.351563 26.589844 L 67.511719 27.148438 L 67.660156 27.699219 L 67.800781 28.25 L 67.929688 28.808594 L 68.050781 29.371094 L 68.160156 29.941406 L 68.261719 30.5 L 68.351563 31.070313 L 68.429688 31.628906 L 68.511719 32.199219 L 68.570313 32.769531 L 68.621094 33.351563 L 68.660156 33.921875 L 68.691406 34.488281 L 68.710938 35.058594 L 68.730469 35.640625 L 68.730469 36.210938 L 68.71875 36.78125 L 68.699219 37.359375 L 68.671875 37.929688 L 68.628906 38.5 L 68.578125 39.070313 L 68.519531 39.640625 L 68.378906 40.78125 L 68.289063 41.351563 L 68.191406 41.910156 L 68.078125 42.480469 L 67.960938 43.039063 L 67.828125 43.601563 L 67.699219 44.148438 L 67.550781 44.710938 L 67.390625 45.261719 L 67.21875 45.808594 L 67.050781 46.351563 L 66.859375 46.890625 L 66.460938 47.96875 L 66.25 48.5 L 66.019531 49.03125 L 65.789063 49.550781 L 65.550781 50.070313 L 65.300781 50.589844 L 65.039063 51.101563 L 64.769531 51.609375 L 64.488281 52.109375 L 64.199219 52.609375 L 63.910156 53.101563 L 63.601563 53.578125 L 63.289063 54.058594 L 62.96875 54.539063 L 62.640625 55.011719 L 62.300781 55.46875 L 61.960938 55.929688 L 61.601563 56.378906 L 61.238281 56.828125 L 60.871094 57.269531 L 60.5 57.699219 L 60.109375 58.128906 L 59.71875 58.550781 L 59.320313 58.960938 L 58.921875 59.359375 L 58.511719 59.761719 L 58.089844 60.148438 L 57.660156 60.539063 L 57.230469 60.910156 L 56.789063 61.28125 L 56.339844 61.640625 L 55.890625 61.988281 L 55.429688 62.339844 L 54.960938 62.671875 L 54.488281 63 L 54.019531 63.320313 L 53.539063 63.628906 L 36 36 L 36 3.269531 "/>
</g>
</svg>
