<?xml version="1.0" encoding="UTF-8"?>
<svg xmlns="http://www.w3.org/2000/svg" xmlns:xlink="http://www.w3.org/1999/xlink" width="72pt" height="72pt" viewBox="0 0 72 72" version="1.1">
<g id="surface861">
<path style="fill:none;stroke-width:1.07;stroke-linecap:round;stroke-linejoin:round;stroke:rgb(0%,0%,0%);stroke-opacity:1;stroke-miterlimit:10;" d="M 36 3.269531 L 36.570313 3.28125 L 37.148438 3.289063 L 38.289063 3.351563 L 38.859375 3.398438 L 39.429688 3.449219 L 40.570313 3.589844 L 41.140625 3.679688 L 41.699219 3.769531 L 42.261719 3.878906 L 42.820313 3.988281 L 43.378906 4.121094 L 43.941406 4.25 L 44.5 4.390625 L 45.601563 4.710938 L 46.140625 4.878906 L 46.691406 5.070313 L 47.230469 5.261719 L 47.761719 5.460938 L 48.300781 5.671875 L 48.820313 5.890625 L 49.351563 6.121094 L 49.871094 6.359375 L 50.390625 6.601563 L 50.898438 6.859375 L 51.410156 7.128906 L 51.910156 7.398438 L 52.410156 7.679688 L 52.898438 7.980469 L 53.390625 8.28125 L 53.871094 8.578125 L 54.351563 8.898438 L 54.820313 9.230469 L 55.289063 9.558594 L 55.75 9.898438 L 56.199219 10.25 L 56.648438 10.609375 L 57.089844 10.96875 L 57.519531 11.351563 L 57.949219 11.730469 L 58.371094 12.121094 L 58.789063 12.511719 L 59.199219 12.910156 L 59.601563 13.320313 L 59.988281 13.738281 L 60.378906 14.160156 L 60.761719 14.589844 L 61.128906 15.03125 L 61.488281 15.46875 L 61.851563 15.921875 L 62.191406 16.378906 L 62.53125 16.839844 L 62.859375 17.308594 L 63.191406 17.78125 L 63.5 18.261719 L 63.808594 18.738281 L 64.109375 19.230469 L 64.390625 19.730469 L 64.679688 20.230469 L 64.949219 20.730469 L 65.210938 21.238281 L 65.460938 21.75 L 65.710938 22.269531 L 65.941406 22.789063 L 66.171875 23.320313 L 66.390625 23.851563 L 66.601563 24.378906 L 66.800781 24.921875 L 66.980469 25.460938 L 67.160156 26.011719 L 67.328125 26.550781 L 67.488281 27.101563 L 67.648438 27.660156 L 67.789063 28.210938 L 67.921875 28.769531 L 68.039063 29.328125 L 68.148438 29.890625 L 68.25 30.449219 L 68.351563 31.019531 L 68.429688 31.589844 L 68.5 32.160156 L 68.558594 32.71875 L 68.621094 33.300781 L 68.660156 33.871094 L 68.691406 34.441406 L 68.710938 35.011719 L 68.71875 35.578125 L 68.730469 36.160156 L 68.71875 36.730469 L 68.699219 37.300781 L 68.671875 37.871094 L 68.640625 38.449219 L 68.589844 39.019531 L 68.53125 39.589844 L 68.460938 40.160156 L 68.378906 40.71875 L 68.300781 41.289063 L 68.199219 41.851563 L 68.089844 42.421875 L 67.96875 42.980469 L 67.851563 43.539063 L 67.710938 44.089844 L 67.558594 44.648438 L 67.410156 45.199219 L 67.238281 45.75 L 67.070313 46.289063 L 66.878906 46.828125 L 66.691406 47.371094 L 66.480469 47.910156 L 66.269531 48.441406 L 66.050781 48.96875 L 65.820313 49.488281 L 65.578125 50.011719 L 65.328125 50.53125 L 65.070313 51.039063 L 64.800781 51.550781 L 64.519531 52.050781 L 64.238281 52.539063 L 63.941406 53.039063 L 63.640625 53.519531 L 63.328125 54 L 63.011719 54.480469 L 62.679688 54.949219 L 62.351563 55.410156 L 62 55.871094 L 61.648438 56.320313 L 61.289063 56.769531 L 60.921875 57.210938 L 60.550781 57.640625 L 60.171875 58.070313 L 59.78125 58.488281 L 59.378906 58.898438 L 58.96875 59.308594 L 58.558594 59.710938 L 58.140625 60.101563 L 57.71875 60.480469 L 57.289063 60.859375 L 56.851563 61.230469 L 56.398438 61.589844 L 55.949219 61.941406 L 55.5 62.289063 L 55.03125 62.621094 L 54.558594 62.949219 L 54.089844 63.269531 L 53.609375 63.589844 L 53.121094 63.890625 L 52.628906 64.191406 L 52.140625 64.46875 L 51.640625 64.75 L 51.128906 65.019531 L 50.621094 65.28125 L 50.101563 65.53125 L 49.589844 65.769531 L 49.058594 66.011719 L 48.539063 66.230469 L 48 66.449219 L 47.46875 66.648438 L 46.929688 66.851563 L 46.390625 67.03125 L 45.839844 67.210938 L 45.300781 67.378906 L 44.75 67.539063 L 44.191406 67.691406 L 43.640625 67.820313 L 43.078125 67.949219 L 42.519531 68.070313 L 41.960938 68.179688 L 41.390625 68.28125 L 40.820313 68.371094 L 40.261719 68.449219 L 39.691406 68.519531 L 39.121094 68.578125 L 38.550781 68.628906 L 37.980469 68.671875 L 37.398438 68.699219 L 36.828125 68.71875 L 36.261719 68.730469 L 35.691406 68.730469 L 35.109375 68.71875 L 34.539063 68.691406 L 33.96875 68.660156 L 33.398438 68.621094 L 32.828125 68.570313 L 32.261719 68.511719 L 31.691406 68.441406 L 31.121094 68.359375 L 30.558594 68.269531 L 29.988281 68.171875 L 29.429688 68.058594 L 28.871094 67.941406 L 28.308594 67.808594 L 27.75 67.671875 L 27.199219 67.519531 L 26.648438 67.359375 L 26.101563 67.199219 L 25.558594 67.019531 L 25.019531 66.828125 L 23.941406 66.429688 L 23.410156 66.210938 L 22.890625 65.988281 L 22.359375 65.75 L 21.851563 65.511719 L 21.328125 65.261719 L 20.820313 64.988281 L 19.820313 64.449219 L 19.320313 64.160156 L 18.828125 63.859375 L 18.339844 63.558594 L 17.871094 63.238281 L 17.390625 62.921875 L 16.921875 62.589844 L 16 61.910156 L 15.550781 61.550781 L 15.109375 61.191406 L 14.671875 60.820313 L 14.238281 60.449219 L 13.808594 60.058594 L 13.398438 59.671875 L 12.988281 59.269531 L 12.578125 58.859375 L 12.191406 58.449219 L 11.800781 58.03125 L 11.410156 57.601563 L 11.039063 57.171875 L 10.671875 56.730469 L 10.308594 56.28125 L 9.960938 55.828125 L 9.621094 55.371094 L 9.289063 54.898438 L 8.960938 54.429688 L 8.640625 53.960938 L 8.328125 53.480469 L 8.03125 52.988281 L 7.730469 52.5 L 7.449219 52 L 7.171875 51.5 L 6.910156 50.988281 L 6.648438 50.480469 L 6.398438 49.960938 L 6.160156 49.441406 L 5.929688 48.921875 L 5.710938 48.390625 L 5.5 47.859375 L 5.289063 47.320313 L 5.101563 46.78125 L 4.921875 46.238281 L 4.738281 45.691406 L 4.578125 45.148438 L 4.421875 44.589844 L 4.28125 44.039063 L 4.140625 43.480469 L 4.011719 42.921875 L 3.898438 42.359375 L 3.789063 41.800781 L 3.691406 41.238281 L 3.609375 40.671875 L 3.53125 40.101563 L 36 36 L 36 3.269531 "/>
</g>
</svg>
