<?xml version="1.0" encoding="UTF-8"?>
<svg xmlns="http://www.w3.org/2000/svg" xmlns:xlink="http://www.w3.org/1999/xlink" width="72pt" height="72pt" viewBox="0 0 72 72" version="1.1">
<g id="surface811">
<path style="fill:none;stroke-width:1.07;stroke-linecap:round;stroke-linejoin:round;stroke:rgb(0%,0%,0%);stroke-opacity:1;stroke-miterlimit:10;" d="M 36 3.269531 L 36.570313 3.28125 L 37.148438 3.289063 L 38.289063 3.351563 L 38.859375 3.398438 L 39.429688 3.449219 L 40.570313 3.589844 L 41.140625 3.679688 L 41.699219 3.769531 L 42.269531 3.878906 L 42.828125 3.988281 L 43.390625 4.121094 L 43.941406 4.25 L 44.5 4.398438 L 45.050781 4.550781 L 45.601563 4.710938 L 46.148438 4.890625 L 46.691406 5.070313 L 47.230469 5.261719 L 47.769531 5.460938 L 48.300781 5.671875 L 48.828125 5.890625 L 49.359375 6.121094 L 49.878906 6.359375 L 50.390625 6.609375 L 50.910156 6.859375 L 51.410156 7.128906 L 51.921875 7.398438 L 52.421875 7.691406 L 52.910156 7.980469 L 53.398438 8.28125 L 53.878906 8.589844 L 54.359375 8.910156 L 54.828125 9.230469 L 55.300781 9.570313 L 55.761719 9.910156 L 56.210938 10.261719 L 56.660156 10.621094 L 57.101563 10.980469 L 57.53125 11.351563 L 57.960938 11.738281 L 58.378906 12.121094 L 58.800781 12.519531 L 59.210938 12.921875 L 59.609375 13.328125 L 60.390625 14.171875 L 60.761719 14.601563 L 61.140625 15.039063 L 61.5 15.480469 L 61.851563 15.929688 L 62.199219 16.390625 L 62.539063 16.851563 L 62.871094 17.320313 L 63.199219 17.789063 L 63.511719 18.269531 L 63.820313 18.761719 L 64.398438 19.738281 L 64.679688 20.238281 L 64.960938 20.75 L 65.21875 21.261719 L 65.46875 21.769531 L 65.71875 22.289063 L 65.949219 22.808594 L 66.179688 23.339844 L 66.398438 23.871094 L 66.601563 24.398438 L 66.800781 24.941406 L 66.988281 25.480469 L 67.171875 26.03125 L 67.339844 26.570313 L 67.5 27.121094 L 67.648438 27.679688 L 67.789063 28.230469 L 67.921875 28.789063 L 68.039063 29.351563 L 68.160156 29.910156 L 68.261719 30.480469 L 68.351563 31.039063 L 68.429688 31.609375 L 68.570313 32.75 L 68.621094 33.320313 L 68.660156 33.890625 L 68.691406 34.460938 L 68.710938 35.039063 L 68.71875 35.609375 L 68.730469 36.179688 L 68.71875 36.761719 L 68.699219 37.328125 L 68.671875 37.898438 L 68.628906 38.46875 L 68.589844 39.039063 L 68.53125 39.609375 L 68.460938 40.179688 L 68.378906 40.75 L 68.289063 41.320313 L 68.191406 41.878906 L 68.089844 42.441406 L 67.96875 43.011719 L 67.839844 43.558594 L 67.699219 44.121094 L 67.558594 44.679688 L 67.398438 45.230469 L 67.230469 45.78125 L 67.058594 46.320313 L 66.871094 46.859375 L 66.679688 47.398438 L 66.46875 47.941406 L 66.261719 48.46875 L 66.039063 49 L 65.800781 49.519531 L 65.558594 50.039063 L 65.308594 50.558594 L 65.050781 51.070313 L 64.78125 51.570313 L 64.511719 52.078125 L 64.21875 52.570313 L 63.929688 53.070313 L 63.621094 53.550781 L 63.308594 54.03125 L 62.988281 54.511719 L 62.660156 54.980469 L 62.328125 55.441406 L 61.980469 55.898438 L 61.628906 56.351563 L 61.269531 56.800781 L 60.898438 57.238281 L 60.53125 57.671875 L 60.140625 58.101563 L 59.75 58.519531 L 59.351563 58.929688 L 58.949219 59.328125 L 58.539063 59.730469 L 58.121094 60.121094 L 57.691406 60.511719 L 57.261719 60.878906 L 56.820313 61.25 L 55.921875 61.96875 L 55 62.648438 L 54.53125 62.980469 L 54.058594 63.300781 L 53.570313 63.609375 L 53.089844 63.910156 L 52.601563 64.210938 L 52.101563 64.488281 L 51.601563 64.769531 L 51.089844 65.039063 L 50.578125 65.300781 L 50.070313 65.550781 L 49.550781 65.789063 L 48.488281 66.25 L 47.960938 66.460938 L 47.429688 66.671875 L 46.890625 66.859375 L 46.351563 67.050781 L 45.800781 67.230469 L 44.699219 67.550781 L 44.148438 67.699219 L 43.589844 67.828125 L 43.03125 67.960938 L 42.46875 68.078125 L 41.910156 68.191406 L 41.339844 68.289063 L 40.78125 68.378906 L 40.210938 68.460938 L 39.070313 68.578125 L 38.5 68.628906 L 37.929688 68.671875 L 37.359375 68.699219 L 36.78125 68.71875 L 36.210938 68.730469 L 35.640625 68.730469 L 35.058594 68.710938 L 34.488281 68.691406 L 33.921875 68.660156 L 33.351563 68.621094 L 32.78125 68.570313 L 32.210938 68.511719 L 31.640625 68.441406 L 30.5 68.261719 L 29.941406 68.160156 L 29.378906 68.050781 L 28.820313 67.929688 L 28.261719 67.800781 L 27.699219 67.660156 L 27.148438 67.511719 L 26.601563 67.351563 L 26.050781 67.179688 L 25.511719 67 L 24.96875 66.808594 L 23.890625 66.410156 L 23.359375 66.191406 L 22.839844 65.960938 L 22.308594 65.730469 L 21.789063 65.480469 L 21.28125 65.230469 L 20.769531 64.96875 L 20.269531 64.699219 L 19.769531 64.421875 L 19.269531 64.128906 L 18.78125 63.828125 L 17.820313 63.210938 L 17.339844 62.890625 L 16.871094 62.558594 L 16.410156 62.21875 L 15.960938 61.871094 L 15.511719 61.519531 L 15.058594 61.148438 L 14.621094 60.78125 L 14.191406 60.398438 L 13.769531 60.019531 L 13.351563 59.628906 L 12.941406 59.230469 L 12.539063 58.820313 L 12.140625 58.398438 L 36 36 L 36 3.269531 "/>
</g>
</svg>
