<?xml version="1.0" encoding="UTF-8"?>
<svg xmlns="http://www.w3.org/2000/svg" xmlns:xlink="http://www.w3.org/1999/xlink" width="72pt" height="72pt" viewBox="0 0 72 72" version="1.1">
<g id="surface706">
<path style="fill:none;stroke-width:1.07;stroke-linecap:round;stroke-linejoin:round;stroke:rgb(0%,0%,0%);stroke-opacity:1;stroke-miterlimit:10;" d="M 36 3.269531 L 36.570313 3.28125 L 37.140625 3.289063 L 37.71875 3.320313 L 38.289063 3.351563 L 38.859375 3.398438 L 39.429688 3.449219 L 39.988281 3.519531 L 40.558594 3.589844 L 41.128906 3.679688 L 41.691406 3.769531 L 42.808594 3.988281 L 43.371094 4.109375 L 43.929688 4.25 L 44.480469 4.390625 L 45.03125 4.539063 L 45.578125 4.710938 L 46.128906 4.878906 L 46.671875 5.058594 L 47.210938 5.25 L 47.738281 5.449219 L 48.28125 5.660156 L 48.800781 5.878906 L 49.328125 6.109375 L 49.851563 6.351563 L 50.359375 6.589844 L 50.878906 6.851563 L 51.378906 7.109375 L 51.890625 7.390625 L 52.378906 7.671875 L 52.878906 7.960938 L 53.359375 8.261719 L 53.851563 8.570313 L 54.320313 8.878906 L 54.789063 9.210938 L 55.261719 9.539063 L 55.71875 9.878906 L 56.171875 10.230469 L 56.621094 10.578125 L 57.058594 10.949219 L 57.488281 11.320313 L 57.921875 11.699219 L 58.339844 12.089844 L 58.761719 12.480469 L 59.171875 12.878906 L 59.570313 13.289063 L 59.960938 13.710938 L 60.351563 14.128906 L 60.71875 14.558594 L 61.089844 14.988281 L 61.460938 15.429688 L 61.808594 15.878906 L 62.160156 16.339844 L 62.5 16.800781 L 62.828125 17.261719 L 63.160156 17.730469 L 63.46875 18.210938 L 63.78125 18.691406 L 64.078125 19.179688 L 64.371094 19.679688 L 64.648438 20.171875 L 64.921875 20.679688 L 65.179688 21.179688 L 65.441406 21.699219 L 65.679688 22.210938 L 65.921875 22.730469 L 66.148438 23.261719 L 66.359375 23.789063 L 66.570313 24.320313 L 66.769531 24.859375 L 66.960938 25.398438 L 67.140625 25.941406 L 67.308594 26.480469 L 67.46875 27.03125 L 67.628906 27.578125 L 67.769531 28.140625 L 67.898438 28.691406 L 68.140625 29.808594 L 68.238281 30.378906 L 68.328125 30.941406 L 68.421875 31.511719 L 68.488281 32.070313 L 68.550781 32.640625 L 68.609375 33.210938 L 68.648438 33.78125 L 68.691406 34.351563 L 68.710938 34.921875 L 68.71875 35.5 L 68.730469 36.070313 L 68.71875 36.640625 L 68.679688 37.78125 L 68.601563 38.921875 L 68.539063 39.488281 L 68.398438 40.628906 L 68.308594 41.191406 L 68.21875 41.761719 L 68 42.878906 L 67.871094 43.441406 L 67.738281 43.988281 L 67.589844 44.550781 L 67.441406 45.101563 L 67.269531 45.648438 L 67.101563 46.191406 L 66.921875 46.730469 L 66.730469 47.269531 L 66.519531 47.808594 L 66.308594 48.339844 L 66.089844 48.871094 L 65.859375 49.390625 L 65.621094 49.910156 L 65.378906 50.429688 L 65.121094 50.941406 L 64.851563 51.441406 L 64.578125 51.949219 L 64.300781 52.441406 L 64.011719 52.929688 L 63.710938 53.421875 L 63.398438 53.898438 L 63.078125 54.378906 L 62.75 54.851563 L 62.421875 55.308594 L 62.078125 55.769531 L 61.730469 56.230469 L 61.371094 56.671875 L 61.011719 57.109375 L 60.628906 57.550781 L 60.25 57.96875 L 59.871094 58.390625 L 59.46875 58.808594 L 59.070313 59.210938 L 58.660156 59.609375 L 58.238281 60.011719 L 57.820313 60.390625 L 57.390625 60.769531 L 56.960938 61.140625 L 56.511719 61.5 L 56.058594 61.859375 L 55.609375 62.199219 L 55.148438 62.539063 L 54.679688 62.871094 L 54.210938 63.191406 L 53.730469 63.511719 L 53.25 63.808594 L 52.761719 64.109375 L 52.269531 64.398438 L 51.769531 64.679688 L 36 36 L 36 3.269531 "/>
</g>
</svg>
