<?xml version="1.0" encoding="UTF-8"?>
<svg xmlns="http://www.w3.org/2000/svg" xmlns:xlink="http://www.w3.org/1999/xlink" width="72pt" height="72pt" viewBox="0 0 72 72" version="1.1">
<g id="surface761">
<path style="fill:none;stroke-width:1.07;stroke-linecap:round;stroke-linejoin:round;stroke:rgb(0%,0%,0%);stroke-opacity:1;stroke-miterlimit:10;" d="M 36 3.269531 L 36.570313 3.28125 L 37.148438 3.289063 L 38.289063 3.351563 L 38.859375 3.398438 L 39.441406 3.449219 L 40.011719 3.519531 L 40.570313 3.589844 L 41.710938 3.769531 L 42.828125 3.988281 L 43.390625 4.121094 L 43.949219 4.25 L 44.511719 4.398438 L 45.058594 4.550781 L 45.609375 4.710938 L 46.148438 4.890625 L 46.699219 5.070313 L 47.238281 5.261719 L 47.78125 5.460938 L 48.308594 5.679688 L 48.839844 5.898438 L 49.359375 6.128906 L 49.890625 6.359375 L 50.398438 6.609375 L 50.921875 6.871094 L 51.421875 7.140625 L 51.929688 7.410156 L 52.429688 7.691406 L 52.921875 7.988281 L 53.410156 8.289063 L 53.890625 8.601563 L 54.371094 8.910156 L 54.839844 9.238281 L 55.308594 9.570313 L 55.769531 9.921875 L 56.21875 10.269531 L 56.671875 10.628906 L 57.109375 10.988281 L 57.550781 11.371094 L 57.96875 11.75 L 58.398438 12.140625 L 58.808594 12.53125 L 59.21875 12.929688 L 59.621094 13.351563 L 60.011719 13.761719 L 60.398438 14.191406 L 60.78125 14.621094 L 61.148438 15.058594 L 61.511719 15.5 L 61.871094 15.949219 L 62.550781 16.871094 L 62.878906 17.339844 L 63.210938 17.808594 L 63.519531 18.289063 L 63.828125 18.78125 L 64.128906 19.269531 L 64.410156 19.761719 L 64.691406 20.261719 L 64.96875 20.769531 L 65.230469 21.28125 L 65.480469 21.789063 L 65.730469 22.308594 L 65.960938 22.828125 L 66.191406 23.359375 L 66.410156 23.890625 L 66.609375 24.429688 L 66.808594 24.960938 L 67 25.511719 L 67.179688 26.050781 L 67.351563 26.601563 L 67.511719 27.148438 L 67.660156 27.699219 L 67.800781 28.261719 L 67.929688 28.820313 L 68.050781 29.378906 L 68.160156 29.941406 L 68.261719 30.511719 L 68.351563 31.070313 L 68.441406 31.640625 L 68.511719 32.210938 L 68.570313 32.78125 L 68.621094 33.351563 L 68.660156 33.921875 L 68.691406 34.5 L 68.730469 35.640625 L 68.730469 36.21875 L 68.71875 36.789063 L 68.699219 37.359375 L 68.671875 37.941406 L 68.628906 38.511719 L 68.578125 39.078125 L 68.519531 39.648438 L 68.378906 40.789063 L 68.289063 41.351563 L 68.191406 41.921875 L 68.078125 42.480469 L 67.960938 43.039063 L 67.828125 43.601563 L 67.691406 44.160156 L 67.550781 44.710938 L 67.390625 45.269531 L 67.21875 45.808594 L 67.039063 46.359375 L 66.859375 46.898438 L 66.660156 47.441406 L 66.460938 47.980469 L 66.238281 48.511719 L 66.019531 49.039063 L 65.789063 49.558594 L 65.539063 50.078125 L 65.289063 50.601563 L 65.03125 51.109375 L 64.761719 51.609375 L 64.480469 52.121094 L 64.199219 52.609375 L 63.898438 53.101563 L 63.601563 53.589844 L 63.289063 54.070313 L 62.960938 54.550781 L 62.640625 55.019531 L 62.300781 55.480469 L 61.949219 55.941406 L 61.601563 56.390625 L 61.238281 56.839844 L 60.871094 57.28125 L 60.488281 57.710938 L 60.109375 58.128906 L 59.71875 58.550781 L 59.320313 58.960938 L 58.910156 59.371094 L 58.5 59.769531 L 58.078125 60.160156 L 57.648438 60.539063 L 57.21875 60.921875 L 56.78125 61.289063 L 56.328125 61.648438 L 55.878906 62 L 55.421875 62.339844 L 54.960938 62.679688 L 54.480469 63.011719 L 54.011719 63.328125 L 53.53125 63.640625 L 53.039063 63.941406 L 52.550781 64.238281 L 51.550781 64.800781 L 51.039063 65.070313 L 50.53125 65.328125 L 50.011719 65.578125 L 49.488281 65.820313 L 48.96875 66.050781 L 48.441406 66.269531 L 47.910156 66.480469 L 47.371094 66.691406 L 46.828125 66.878906 L 46.289063 67.070313 L 45.738281 67.238281 L 45.191406 67.410156 L 44.640625 67.570313 L 44.089844 67.710938 L 43.53125 67.851563 L 42.96875 67.980469 L 41.851563 68.199219 L 41.28125 68.300781 L 40.710938 68.390625 L 40.140625 68.460938 L 39.578125 68.53125 L 39 68.589844 L 38.429688 68.640625 L 37.859375 68.671875 L 37.289063 68.699219 L 36.710938 68.71875 L 36.140625 68.730469 L 35.570313 68.71875 L 34.988281 68.710938 L 34.421875 68.691406 L 33.851563 68.660156 L 33.28125 68.609375 L 32.699219 68.558594 L 32.128906 68.5 L 31.570313 68.429688 L 30.429688 68.25 L 29.871094 68.148438 L 36 36 L 36 3.269531 "/>
</g>
</svg>
