<?xml version="1.0" encoding="UTF-8"?>
<svg xmlns="http://www.w3.org/2000/svg" xmlns:xlink="http://www.w3.org/1999/xlink" width="72pt" height="72pt" viewBox="0 0 72 72" version="1.1">
<g id="surface801">
<path style="fill:none;stroke-width:1.07;stroke-linecap:round;stroke-linejoin:round;stroke:rgb(0%,0%,0%);stroke-opacity:1;stroke-miterlimit:10;" d="M 36 3.269531 L 36.570313 3.28125 L 37.148438 3.289063 L 38.289063 3.351563 L 38.859375 3.398438 L 39.429688 3.449219 L 40.570313 3.589844 L 41.128906 3.679688 L 41.699219 3.769531 L 42.261719 3.878906 L 42.820313 3.988281 L 43.378906 4.121094 L 43.941406 4.25 L 44.488281 4.390625 L 45.589844 4.710938 L 46.140625 4.878906 L 47.21875 5.261719 L 47.761719 5.460938 L 48.289063 5.671875 L 48.820313 5.890625 L 49.351563 6.121094 L 49.871094 6.359375 L 50.378906 6.601563 L 50.898438 6.859375 L 51.398438 7.121094 L 51.910156 7.398438 L 52.398438 7.679688 L 52.898438 7.96875 L 53.390625 8.269531 L 53.871094 8.578125 L 54.339844 8.898438 L 54.820313 9.21875 L 55.28125 9.558594 L 55.738281 9.898438 L 56.199219 10.25 L 56.640625 10.601563 L 57.078125 10.96875 L 57.519531 11.339844 L 57.949219 11.71875 L 58.371094 12.109375 L 58.78125 12.511719 L 59.191406 12.910156 L 59.988281 13.730469 L 60.371094 14.160156 L 60.75 14.589844 L 61.121094 15.019531 L 61.480469 15.46875 L 61.839844 15.921875 L 62.191406 16.371094 L 62.53125 16.828125 L 62.859375 17.300781 L 63.179688 17.769531 L 63.5 18.25 L 63.800781 18.730469 L 64.101563 19.21875 L 64.390625 19.71875 L 64.671875 20.21875 L 64.941406 20.71875 L 65.199219 21.230469 L 65.460938 21.738281 L 65.699219 22.261719 L 65.941406 22.78125 L 66.171875 23.308594 L 66.378906 23.839844 L 66.589844 24.371094 L 66.789063 24.910156 L 66.980469 25.449219 L 67.160156 25.988281 L 67.328125 26.539063 L 67.488281 27.089844 L 67.640625 27.640625 L 67.78125 28.199219 L 67.921875 28.761719 L 68.039063 29.320313 L 68.148438 29.878906 L 68.25 30.441406 L 68.339844 31.011719 L 68.429688 31.570313 L 68.5 32.140625 L 68.558594 32.710938 L 68.660156 33.851563 L 68.691406 34.421875 L 68.710938 35 L 68.71875 35.570313 L 68.730469 36.140625 L 68.71875 36.710938 L 68.699219 37.289063 L 68.671875 37.859375 L 68.640625 38.429688 L 68.589844 39 L 68.53125 39.570313 L 68.390625 40.710938 L 68.300781 41.269531 L 68.199219 41.839844 L 68.101563 42.398438 L 67.980469 42.960938 L 67.851563 43.519531 L 67.71875 44.078125 L 67.570313 44.628906 L 67.25 45.730469 L 67.070313 46.269531 L 66.890625 46.820313 L 66.691406 47.351563 L 66.488281 47.890625 L 66.28125 48.421875 L 66.058594 48.949219 L 65.820313 49.46875 L 65.578125 49.988281 L 65.339844 50.511719 L 65.078125 51.019531 L 64.808594 51.53125 L 64.53125 52.03125 L 64.25 52.53125 L 63.949219 53.019531 L 63.648438 53.5 L 63.339844 53.988281 L 63.019531 54.460938 L 62.699219 54.929688 L 62.359375 55.398438 L 62.019531 55.851563 L 61.671875 56.308594 L 61.308594 56.75 L 60.941406 57.191406 L 60.558594 57.628906 L 60.179688 58.050781 L 59.789063 58.46875 L 59.398438 58.878906 L 58.988281 59.289063 L 58.578125 59.691406 L 58.160156 60.078125 L 57.738281 60.46875 L 57.308594 60.839844 L 56.871094 61.210938 L 56.421875 61.570313 L 55.96875 61.929688 L 55.519531 62.269531 L 55.050781 62.609375 L 54.589844 62.941406 L 54.109375 63.261719 L 53.148438 63.878906 L 52.660156 64.171875 L 52.160156 64.460938 L 51.660156 64.738281 L 51.148438 65.011719 L 50.640625 65.269531 L 50.128906 65.519531 L 49.609375 65.761719 L 49.089844 66 L 48.558594 66.21875 L 48.03125 66.441406 L 47.5 66.640625 L 46.960938 66.839844 L 46.421875 67.03125 L 45.871094 67.199219 L 45.320313 67.371094 L 44.769531 67.53125 L 44.21875 67.679688 L 43.671875 67.820313 L 43.109375 67.949219 L 42.550781 68.070313 L 41.980469 68.179688 L 41.421875 68.28125 L 40.859375 68.371094 L 40.289063 68.449219 L 39.71875 68.519531 L 39.148438 68.578125 L 38.578125 68.628906 L 38.011719 68.671875 L 37.441406 68.699219 L 36.859375 68.71875 L 36.289063 68.730469 L 35.71875 68.730469 L 35.148438 68.71875 L 34.570313 68.699219 L 34 68.671875 L 33.429688 68.628906 L 32.859375 68.578125 L 32.289063 68.519531 L 31.71875 68.449219 L 31.148438 68.371094 L 30.589844 68.28125 L 30.019531 68.179688 L 29.460938 68.070313 L 28.898438 67.949219 L 28.339844 67.820313 L 27.789063 67.679688 L 27.238281 67.53125 L 26.679688 67.371094 L 26.140625 67.210938 L 25.589844 67.03125 L 24.511719 66.648438 L 23.980469 66.441406 L 23.449219 66.21875 L 22.921875 66 L 22.398438 65.769531 L 21.359375 65.269531 L 20.851563 65.011719 L 20.351563 64.738281 L 19.851563 64.460938 L 19.351563 64.179688 L 18.859375 63.878906 L 18.378906 63.578125 L 17.898438 63.261719 L 17.421875 62.941406 L 16.949219 62.609375 L 16.488281 62.28125 L 16.03125 61.929688 L 15.578125 61.578125 L 15.140625 61.21875 L 36 36 L 36 3.269531 "/>
</g>
</svg>
