<?xml version="1.0" encoding="UTF-8"?>
<svg xmlns="http://www.w3.org/2000/svg" xmlns:xlink="http://www.w3.org/1999/xlink" width="72pt" height="72pt" viewBox="0 0 72 72" version="1.1">
<g id="surface986">
<path style="fill:none;stroke-width:1.07;stroke-linecap:round;stroke-linejoin:round;stroke:rgb(0%,0%,0%);stroke-opacity:1;stroke-miterlimit:10;" d="M 36 3.269531 L 36.570313 3.28125 L 37.140625 3.289063 L 37.71875 3.320313 L 38.289063 3.351563 L 38.859375 3.398438 L 39.429688 3.449219 L 40.570313 3.589844 L 41.128906 3.679688 L 41.699219 3.769531 L 42.261719 3.878906 L 42.820313 3.988281 L 43.378906 4.121094 L 43.941406 4.25 L 44.488281 4.390625 L 45.589844 4.710938 L 46.140625 4.878906 L 46.679688 5.058594 L 47.21875 5.261719 L 47.75 5.460938 L 48.289063 5.671875 L 48.820313 5.890625 L 49.339844 6.109375 L 49.859375 6.351563 L 50.378906 6.601563 L 50.890625 6.859375 L 51.398438 7.121094 L 51.898438 7.390625 L 52.398438 7.679688 L 52.890625 7.96875 L 53.378906 8.269531 L 53.859375 8.578125 L 54.339844 8.890625 L 54.808594 9.21875 L 55.269531 9.550781 L 55.730469 9.890625 L 56.191406 10.238281 L 56.640625 10.601563 L 57.078125 10.960938 L 57.511719 11.339844 L 57.941406 11.71875 L 58.359375 12.101563 L 58.78125 12.5 L 59.179688 12.898438 L 59.578125 13.308594 L 59.980469 13.71875 L 60.738281 14.578125 L 61.109375 15.011719 L 61.480469 15.460938 L 61.828125 15.898438 L 62.179688 16.359375 L 62.519531 16.820313 L 62.851563 17.289063 L 63.171875 17.761719 L 63.488281 18.238281 L 63.789063 18.71875 L 64.089844 19.210938 L 64.378906 19.699219 L 64.660156 20.199219 L 64.929688 20.710938 L 65.199219 21.21875 L 65.449219 21.730469 L 65.699219 22.25 L 66.160156 23.289063 L 66.378906 23.820313 L 66.589844 24.359375 L 66.78125 24.890625 L 66.96875 25.429688 L 67.148438 25.980469 L 67.320313 26.519531 L 67.488281 27.070313 L 67.640625 27.621094 L 67.78125 28.179688 L 67.910156 28.738281 L 68.03125 29.289063 L 68.148438 29.859375 L 68.25 30.421875 L 68.339844 30.980469 L 68.421875 31.550781 L 68.5 32.121094 L 68.558594 32.691406 L 68.609375 33.261719 L 68.660156 33.828125 L 68.691406 34.398438 L 68.710938 34.96875 L 68.71875 35.539063 L 68.730469 36.121094 L 68.71875 36.691406 L 68.699219 37.261719 L 68.679688 37.828125 L 68.640625 38.398438 L 68.589844 38.980469 L 68.53125 39.539063 L 68.46875 40.109375 L 68.390625 40.679688 L 68.300781 41.25 L 68.210938 41.808594 L 68.101563 42.371094 L 67.859375 43.488281 L 67.71875 44.050781 L 67.578125 44.601563 L 67.421875 45.148438 L 67.261719 45.699219 L 66.898438 46.789063 L 66.699219 47.328125 L 66.5 47.859375 L 66.289063 48.390625 L 66.070313 48.921875 L 65.839844 49.449219 L 65.601563 49.96875 L 65.351563 50.480469 L 65.089844 50.988281 L 64.820313 51.5 L 64.550781 52 L 64.261719 52.5 L 63.96875 52.988281 L 63.671875 53.480469 L 63.359375 53.960938 L 62.71875 54.898438 L 62.378906 55.371094 L 62.039063 55.828125 L 61.691406 56.28125 L 61.328125 56.730469 L 60.960938 57.171875 L 60.589844 57.601563 L 60.210938 58.03125 L 59.820313 58.449219 L 59.421875 58.859375 L 59.019531 59.269531 L 58.609375 59.660156 L 58.191406 60.058594 L 57.769531 60.441406 L 57.328125 60.820313 L 56.898438 61.191406 L 56.449219 61.550781 L 56 61.898438 L 55.550781 62.25 L 55.089844 62.589844 L 54.621094 62.921875 L 54.140625 63.238281 L 53.660156 63.550781 L 53.179688 63.859375 L 52.691406 64.148438 L 52.191406 64.441406 L 51.691406 64.71875 L 51.191406 64.988281 L 50.679688 65.25 L 50.171875 65.5 L 49.648438 65.75 L 49.128906 65.980469 L 48.601563 66.199219 L 48.070313 66.421875 L 47.539063 66.628906 L 46.460938 67.011719 L 45.910156 67.191406 L 45.371094 67.359375 L 44.820313 67.519531 L 44.261719 67.671875 L 43.710938 67.808594 L 43.148438 67.941406 L 42.589844 68.058594 L 42.03125 68.171875 L 41.46875 68.269531 L 40.898438 68.359375 L 40.328125 68.441406 L 39.769531 68.511719 L 39.199219 68.570313 L 38.628906 68.621094 L 38.050781 68.660156 L 37.480469 68.691406 L 36.339844 68.730469 L 35.769531 68.730469 L 35.191406 68.71875 L 34.621094 68.699219 L 34.050781 68.671875 L 33.480469 68.628906 L 32.910156 68.578125 L 32.339844 68.519531 L 31.769531 68.449219 L 31.199219 68.371094 L 30.640625 68.289063 L 30.070313 68.191406 L 29.511719 68.078125 L 28.949219 67.960938 L 28.390625 67.828125 L 27.839844 67.691406 L 27.289063 67.550781 L 26.730469 67.390625 L 26.191406 67.21875 L 25.640625 67.050781 L 25.101563 66.859375 L 24.558594 66.660156 L 24.03125 66.460938 L 23.5 66.238281 L 22.96875 66.019531 L 22.449219 65.789063 L 21.929688 65.550781 L 21.410156 65.300781 L 20.898438 65.039063 L 20.398438 64.769531 L 19.898438 64.488281 L 19.398438 64.210938 L 18.421875 63.609375 L 17.941406 63.300781 L 17.46875 62.980469 L 17 62.648438 L 16.078125 61.96875 L 15.179688 61.25 L 14.75 60.890625 L 14.308594 60.511719 L 13.890625 60.128906 L 13.46875 59.738281 L 13.058594 59.339844 L 12.648438 58.929688 L 12.261719 58.519531 L 11.859375 58.101563 L 11.480469 57.679688 L 11.109375 57.25 L 10.738281 56.808594 L 10.378906 56.359375 L 10.03125 55.910156 L 9.679688 55.449219 L 9.351563 54.988281 L 9.019531 54.519531 L 8.699219 54.050781 L 8.390625 53.570313 L 8.078125 53.078125 L 7.789063 52.589844 L 7.5 52.089844 L 6.960938 51.089844 L 6.699219 50.578125 L 6.449219 50.058594 L 6.210938 49.539063 L 5.96875 49.019531 L 5.75 48.488281 L 5.539063 47.960938 L 5.328125 47.429688 L 5.140625 46.890625 L 4.949219 46.351563 L 4.769531 45.800781 L 4.449219 44.699219 L 4.300781 44.148438 L 4.171875 43.589844 L 4.039063 43.039063 L 3.921875 42.480469 L 3.808594 41.910156 L 3.710938 41.351563 L 3.621094 40.78125 L 3.550781 40.21875 L 3.480469 39.648438 L 3.421875 39.078125 L 3.371094 38.511719 L 3.328125 37.941406 L 3.300781 37.371094 L 3.28125 36.789063 L 3.269531 36.21875 L 3.269531 35.648438 L 3.289063 35.078125 L 3.308594 34.511719 L 3.339844 33.929688 L 3.378906 33.359375 L 3.429688 32.789063 L 3.488281 32.21875 L 3.558594 31.648438 L 3.640625 31.089844 L 3.730469 30.519531 L 3.839844 29.960938 L 3.949219 29.398438 L 4.070313 28.839844 L 4.199219 28.28125 L 4.339844 27.730469 L 4.488281 27.171875 L 4.640625 26.621094 L 4.808594 26.078125 L 4.988281 25.53125 L 5.179688 24.988281 L 5.378906 24.449219 L 5.578125 23.921875 L 5.800781 23.390625 L 6.03125 22.859375 L 6.261719 22.339844 L 6.5 21.820313 L 6.761719 21.308594 L 7.019531 20.800781 L 7.289063 20.289063 L 7.570313 19.800781 L 7.851563 19.300781 L 8.148438 18.808594 L 8.460938 18.328125 L 8.769531 17.851563 L 9.089844 17.371094 L 9.421875 16.910156 L 9.761719 16.441406 L 10.101563 15.988281 L 10.820313 15.089844 L 11.191406 14.660156 L 11.949219 13.800781 L 12.339844 13.378906 L 12.738281 12.96875 L 13.558594 12.171875 L 13.980469 11.789063 L 14.410156 11.398438 L 14.839844 11.03125 L 15.28125 10.660156 L 15.730469 10.308594 L 16.179688 9.960938 L 16.640625 9.609375 L 17.109375 9.28125 L 17.578125 8.949219 L 18.050781 8.628906 L 18.53125 8.320313 L 19.019531 8.019531 L 19.511719 7.730469 L 20.011719 7.449219 L 20.511719 7.171875 L 21.019531 6.898438 L 21.53125 6.648438 L 22.039063 6.398438 L 22.558594 6.160156 L 23.089844 5.929688 L 23.621094 5.710938 L 24.148438 5.488281 L 24.679688 5.289063 L 25.21875 5.101563 L 25.761719 4.910156 L 26.308594 4.738281 L 26.859375 4.578125 L 27.410156 4.421875 L 27.960938 4.269531 L 29.078125 4.011719 L 29.640625 3.898438 L 30.199219 3.789063 L 30.761719 3.691406 L 31.328125 3.609375 L 31.898438 3.53125 L 36 36 L 36 3.269531 "/>
</g>
</svg>
