<?xml version="1.0" encoding="UTF-8"?>
<svg xmlns="http://www.w3.org/2000/svg" xmlns:xlink="http://www.w3.org/1999/xlink" width="72pt" height="72pt" viewBox="0 0 72 72" version="1.1">
<g id="surface781">
<path style="fill:none;stroke-width:1.07;stroke-linecap:round;stroke-linejoin:round;stroke:rgb(0%,0%,0%);stroke-opacity:1;stroke-miterlimit:10;" d="M 36 3.269531 L 36.570313 3.28125 L 37.140625 3.289063 L 37.710938 3.320313 L 38.289063 3.351563 L 38.859375 3.398438 L 39.421875 3.449219 L 39.988281 3.519531 L 40.558594 3.589844 L 41.121094 3.679688 L 41.691406 3.769531 L 42.808594 3.988281 L 43.371094 4.109375 L 43.929688 4.25 L 44.480469 4.390625 L 45.03125 4.539063 L 45.578125 4.710938 L 46.121094 4.878906 L 46.660156 5.058594 L 47.199219 5.25 L 47.738281 5.449219 L 48.269531 5.660156 L 48.800781 5.878906 L 49.839844 6.339844 L 50.359375 6.589844 L 50.871094 6.851563 L 51.378906 7.109375 L 51.878906 7.378906 L 52.378906 7.671875 L 52.871094 7.960938 L 53.359375 8.261719 L 53.839844 8.558594 L 54.320313 8.878906 L 54.789063 9.199219 L 55.25 9.53125 L 55.710938 9.878906 L 56.171875 10.21875 L 56.609375 10.578125 L 57.050781 10.941406 L 57.488281 11.320313 L 57.921875 11.691406 L 58.339844 12.078125 L 58.75 12.480469 L 59.160156 12.878906 L 59.558594 13.28125 L 59.949219 13.699219 L 60.339844 14.121094 L 60.71875 14.550781 L 61.089844 14.980469 L 61.449219 15.429688 L 61.808594 15.871094 L 62.148438 16.328125 L 62.828125 17.25 L 63.460938 18.199219 L 63.769531 18.679688 L 64.070313 19.171875 L 64.359375 19.671875 L 64.640625 20.160156 L 64.910156 20.671875 L 65.179688 21.171875 L 65.429688 21.691406 L 65.679688 22.199219 L 65.910156 22.71875 L 66.140625 23.25 L 66.359375 23.78125 L 66.570313 24.308594 L 66.769531 24.839844 L 66.960938 25.378906 L 67.140625 25.921875 L 67.308594 26.46875 L 67.46875 27.019531 L 67.621094 27.570313 L 67.769531 28.121094 L 67.898438 28.679688 L 68.019531 29.238281 L 68.128906 29.800781 L 68.238281 30.359375 L 68.328125 30.921875 L 68.421875 31.488281 L 68.488281 32.058594 L 68.550781 32.628906 L 68.609375 33.191406 L 68.648438 33.761719 L 68.679688 34.339844 L 68.710938 34.910156 L 68.71875 35.480469 L 68.730469 36.050781 L 68.71875 36.621094 L 68.710938 37.191406 L 68.679688 37.761719 L 68.640625 38.339844 L 68.601563 38.910156 L 68.539063 39.46875 L 68.480469 40.039063 L 68.398438 40.609375 L 68.320313 41.171875 L 68.21875 41.738281 L 68.121094 42.300781 L 68 42.859375 L 67.878906 43.421875 L 67.738281 43.96875 L 67.601563 44.53125 L 67.441406 45.078125 L 67.28125 45.628906 L 67.109375 46.171875 L 66.921875 46.710938 L 66.730469 47.25 L 66.53125 47.789063 L 66.320313 48.320313 L 66.101563 48.851563 L 65.871094 49.371094 L 65.628906 49.890625 L 65.390625 50.398438 L 65.128906 50.921875 L 64.871094 51.421875 L 64.308594 52.421875 L 64.019531 52.910156 L 63.71875 53.398438 L 63.410156 53.878906 L 63.089844 54.359375 L 62.769531 54.828125 L 62.441406 55.289063 L 62.089844 55.75 L 61.75 56.210938 L 61.390625 56.648438 L 60.648438 57.53125 L 60.269531 57.949219 L 59.878906 58.371094 L 59.488281 58.789063 L 59.089844 59.191406 L 58.679688 59.589844 L 58.261719 59.988281 L 57.839844 60.371094 L 57.410156 60.75 L 56.980469 61.121094 L 56.53125 61.480469 L 56.089844 61.839844 L 55.628906 62.191406 L 55.171875 62.519531 L 54.710938 62.851563 L 54.230469 63.179688 L 53.761719 63.488281 L 53.269531 63.800781 L 52.78125 64.101563 L 52.289063 64.378906 L 51.289063 64.941406 L 50.78125 65.199219 L 50.269531 65.449219 L 49.75 65.699219 L 48.710938 66.160156 L 48.179688 66.378906 L 47.648438 66.589844 L 47.109375 66.78125 L 46.570313 66.96875 L 46.03125 67.148438 L 45.480469 67.320313 L 44.378906 67.640625 L 43.828125 67.78125 L 43.269531 67.910156 L 42.710938 68.03125 L 42.148438 68.140625 L 41.589844 68.25 L 41.03125 68.339844 L 40.460938 68.421875 L 39.890625 68.488281 L 39.320313 68.558594 L 38.761719 68.609375 L 38.191406 68.648438 L 37.609375 68.691406 L 37.039063 68.710938 L 36.46875 68.71875 L 35.898438 68.730469 L 35.328125 68.71875 L 34.761719 68.699219 L 34.191406 68.679688 L 33.609375 68.640625 L 33.039063 68.589844 L 32.480469 68.539063 L 31.910156 68.46875 L 31.339844 68.390625 L 30.78125 68.308594 L 30.210938 68.210938 L 29.648438 68.109375 L 29.089844 67.988281 L 28.53125 67.859375 L 27.980469 67.730469 L 27.421875 67.578125 L 26.871094 67.429688 L 26.328125 67.261719 L 25.78125 67.089844 L 25.238281 66.910156 L 24.699219 66.71875 L 24.171875 66.511719 L 23.640625 66.300781 L 23.109375 66.078125 L 22.578125 65.851563 L 22.070313 65.609375 L 36 36 L 36 3.269531 "/>
</g>
</svg>
