<?xml version="1.0" encoding="UTF-8"?>
<svg xmlns="http://www.w3.org/2000/svg" xmlns:xlink="http://www.w3.org/1999/xlink" width="72pt" height="72pt" viewBox="0 0 72 72" version="1.1">
<g id="surface961">
<path style="fill:none;stroke-width:1.07;stroke-linecap:round;stroke-linejoin:round;stroke:rgb(0%,0%,0%);stroke-opacity:1;stroke-miterlimit:10;" d="M 36 3.269531 L 36.570313 3.28125 L 37.140625 3.289063 L 37.71875 3.320313 L 38.289063 3.351563 L 38.859375 3.398438 L 39.429688 3.449219 L 40.570313 3.589844 L 41.128906 3.679688 L 41.699219 3.769531 L 42.261719 3.878906 L 42.820313 3.988281 L 43.378906 4.121094 L 43.941406 4.25 L 44.488281 4.390625 L 45.589844 4.710938 L 46.140625 4.878906 L 46.679688 5.058594 L 47.21875 5.261719 L 47.761719 5.460938 L 48.289063 5.671875 L 48.820313 5.890625 L 49.859375 6.351563 L 50.378906 6.601563 L 50.890625 6.859375 L 51.398438 7.121094 L 51.898438 7.398438 L 52.398438 7.679688 L 52.890625 7.96875 L 53.378906 8.269531 L 53.859375 8.578125 L 54.339844 8.890625 L 54.808594 9.21875 L 55.28125 9.550781 L 55.738281 9.890625 L 56.191406 10.238281 L 56.640625 10.601563 L 57.078125 10.960938 L 57.511719 11.339844 L 57.941406 11.71875 L 58.359375 12.101563 L 58.78125 12.5 L 59.191406 12.898438 L 59.589844 13.308594 L 59.980469 13.730469 L 60.359375 14.148438 L 60.738281 14.578125 L 61.480469 15.460938 L 61.828125 15.910156 L 62.179688 16.359375 L 62.519531 16.820313 L 62.851563 17.289063 L 63.171875 17.761719 L 63.488281 18.238281 L 63.800781 18.71875 L 64.089844 19.210938 L 64.378906 19.710938 L 64.941406 20.710938 L 65.199219 21.21875 L 65.449219 21.730469 L 65.699219 22.25 L 65.929688 22.769531 L 66.160156 23.300781 L 66.378906 23.828125 L 66.589844 24.359375 L 66.789063 24.898438 L 66.980469 25.441406 L 67.160156 25.980469 L 67.328125 26.53125 L 67.488281 27.078125 L 67.640625 27.628906 L 67.78125 28.179688 L 67.910156 28.738281 L 68.03125 29.300781 L 68.148438 29.859375 L 68.25 30.421875 L 68.339844 30.988281 L 68.421875 31.558594 L 68.5 32.121094 L 68.558594 32.691406 L 68.609375 33.261719 L 68.660156 33.828125 L 68.691406 34.410156 L 68.710938 34.980469 L 68.71875 35.550781 L 68.730469 36.121094 L 68.71875 36.699219 L 68.679688 37.839844 L 68.640625 38.410156 L 68.589844 38.980469 L 68.53125 39.550781 L 68.46875 40.121094 L 68.390625 40.691406 L 68.300781 41.25 L 68.210938 41.820313 L 68.101563 42.378906 L 67.980469 42.941406 L 67.859375 43.5 L 67.71875 44.058594 L 67.421875 45.160156 L 67.25 45.710938 L 67.078125 46.25 L 66.898438 46.800781 L 66.699219 47.328125 L 66.5 47.871094 L 66.289063 48.398438 L 66.058594 48.929688 L 65.828125 49.449219 L 65.351563 50.488281 L 65.089844 51 L 64.820313 51.511719 L 64.539063 52.011719 L 64.261719 52.511719 L 63.96875 53 L 63.671875 53.480469 L 63.359375 53.96875 L 63.039063 54.441406 L 62.710938 54.910156 L 62.378906 55.378906 L 62.03125 55.828125 L 61.679688 56.289063 L 60.960938 57.171875 L 60.578125 57.609375 L 60.199219 58.03125 L 59.808594 58.449219 L 59.410156 58.871094 L 59.011719 59.269531 L 58.601563 59.671875 L 58.179688 60.058594 L 57.761719 60.449219 L 57.328125 60.820313 L 56.890625 61.191406 L 56.449219 61.550781 L 56 61.910156 L 55.078125 62.589844 L 54.609375 62.921875 L 54.128906 63.238281 L 53.660156 63.558594 L 53.171875 63.859375 L 52.679688 64.160156 L 52.191406 64.441406 L 51.691406 64.71875 L 51.179688 64.988281 L 50.671875 65.25 L 50.160156 65.511719 L 49.640625 65.75 L 49.121094 65.980469 L 48.589844 66.210938 L 48.058594 66.421875 L 47.53125 66.628906 L 46.988281 66.828125 L 46.449219 67.019531 L 45.898438 67.191406 L 45.359375 67.359375 L 44.800781 67.519531 L 44.25 67.671875 L 43.699219 67.808594 L 43.140625 67.941406 L 42.578125 68.058594 L 42.019531 68.171875 L 41.449219 68.269531 L 40.890625 68.359375 L 40.320313 68.441406 L 39.75 68.511719 L 39.179688 68.570313 L 38.609375 68.621094 L 38.039063 68.660156 L 37.46875 68.691406 L 36.328125 68.730469 L 35.75 68.730469 L 35.179688 68.71875 L 34.609375 68.699219 L 34.039063 68.671875 L 33.46875 68.628906 L 32.898438 68.578125 L 32.328125 68.519531 L 31.761719 68.449219 L 31.191406 68.371094 L 30.628906 68.28125 L 30.058594 68.179688 L 29.5 68.078125 L 28.941406 67.960938 L 28.378906 67.828125 L 27.828125 67.691406 L 27.269531 67.539063 L 26.71875 67.378906 L 26.171875 67.21875 L 25.628906 67.039063 L 25.089844 66.851563 L 24.550781 66.660156 L 24.019531 66.449219 L 23.480469 66.238281 L 22.960938 66.019531 L 22.429688 65.78125 L 21.921875 65.539063 L 21.398438 65.289063 L 20.890625 65.03125 L 20.378906 64.761719 L 19.878906 64.480469 L 19.390625 64.199219 L 18.898438 63.898438 L 18.410156 63.601563 L 17.929688 63.289063 L 17.460938 62.96875 L 16.988281 62.640625 L 16.53125 62.300781 L 16.070313 61.960938 L 15.621094 61.601563 L 15.171875 61.238281 L 14.730469 60.878906 L 14.300781 60.5 L 13.878906 60.121094 L 13.460938 59.730469 L 13.050781 59.328125 L 12.640625 58.921875 L 12.238281 58.511719 L 11.851563 58.089844 L 11.46875 57.671875 L 11.101563 57.230469 L 10.730469 56.789063 L 10.371094 56.351563 L 10.019531 55.898438 L 9.671875 55.441406 L 9.339844 54.980469 L 9.011719 54.511719 L 8.691406 54.03125 L 8.378906 53.550781 L 8.070313 53.070313 L 7.78125 52.570313 L 7.488281 52.078125 L 7.21875 51.578125 L 6.949219 51.070313 L 6.691406 50.558594 L 6.441406 50.050781 L 6.199219 49.53125 L 5.96875 49 L 5.738281 48.480469 L 5.53125 47.941406 L 5.328125 47.410156 L 5.128906 46.871094 L 4.949219 46.328125 L 4.769531 45.78125 L 4.601563 45.238281 L 4.449219 44.691406 L 4.300781 44.128906 L 4.160156 43.578125 L 4.03125 43.019531 L 3.921875 42.460938 L 3.808594 41.898438 L 3.710938 41.328125 L 3.621094 40.769531 L 3.539063 40.199219 L 3.46875 39.628906 L 3.421875 39.058594 L 3.371094 38.488281 L 3.328125 37.921875 L 3.300781 37.351563 L 3.28125 36.78125 L 3.269531 36.199219 L 3.269531 35.628906 L 3.308594 34.488281 L 3.339844 33.910156 L 3.378906 33.339844 L 3.429688 32.769531 L 3.488281 32.199219 L 3.570313 31.640625 L 3.648438 31.070313 L 3.738281 30.5 L 3.839844 29.941406 L 3.949219 29.378906 L 4.070313 28.820313 L 4.199219 28.261719 L 4.339844 27.710938 L 4.488281 27.148438 L 4.648438 26.601563 L 4.820313 26.058594 L 5 25.511719 L 5.191406 24.96875 L 5.378906 24.429688 L 5.589844 23.898438 L 5.808594 23.371094 L 6.03125 22.839844 L 6.269531 22.320313 L 6.511719 21.800781 L 6.761719 21.289063 L 7.03125 20.78125 L 7.300781 20.28125 L 7.578125 19.78125 L 7.859375 19.28125 L 8.160156 18.789063 L 8.46875 18.308594 L 8.78125 17.828125 L 9.101563 17.359375 L 9.429688 16.890625 L 9.769531 16.429688 L 10.121094 15.96875 L 10.46875 15.519531 L 10.828125 15.078125 L 11.199219 14.640625 L 11.578125 14.210938 L 11.96875 13.789063 L 12.359375 13.371094 L 12.761719 12.960938 L 13.171875 12.558594 L 13.578125 12.160156 L 14 11.769531 L 14.429688 11.390625 L 14.859375 11.019531 L 15.300781 10.648438 L 15.75 10.289063 L 16.199219 9.941406 L 17.121094 9.261719 L 17.589844 8.941406 L 18.070313 8.621094 L 18.550781 8.308594 L 19.039063 8.011719 L 19.53125 7.71875 L 20.03125 7.429688 L 20.53125 7.160156 L 21.039063 6.890625 L 21.550781 6.640625 L 22.070313 6.390625 L 36 36 L 36 3.269531 "/>
</g>
</svg>
