<?xml version="1.0" encoding="UTF-8"?>
<svg xmlns="http://www.w3.org/2000/svg" xmlns:xlink="http://www.w3.org/1999/xlink" width="72pt" height="72pt" viewBox="0 0 72 72" version="1.1">
<g id="surface626">
<path style="fill:none;stroke-width:1.07;stroke-linecap:round;stroke-linejoin:round;stroke:rgb(0%,0%,0%);stroke-opacity:1;stroke-miterlimit:10;" d="M 36 3.269531 L 36.570313 3.28125 L 37.148438 3.289063 L 37.71875 3.320313 L 38.300781 3.351563 L 38.871094 3.398438 L 39.441406 3.449219 L 40.011719 3.519531 L 40.578125 3.601563 L 41.148438 3.679688 L 41.71875 3.78125 L 42.28125 3.878906 L 42.851563 4 L 43.410156 4.121094 L 43.96875 4.261719 L 44.519531 4.398438 L 45.078125 4.558594 L 45.628906 4.71875 L 46.179688 4.898438 L 46.71875 5.078125 L 47.261719 5.269531 L 47.800781 5.46875 L 48.328125 5.691406 L 48.871094 5.910156 L 49.390625 6.140625 L 49.910156 6.378906 L 50.429688 6.628906 L 50.949219 6.890625 L 51.460938 7.148438 L 52.460938 7.710938 L 52.949219 8.011719 L 53.441406 8.308594 L 53.929688 8.621094 L 54.398438 8.941406 L 54.878906 9.269531 L 55.339844 9.601563 L 55.800781 9.949219 L 56.261719 10.300781 L 56.710938 10.660156 L 57.148438 11.019531 L 57.578125 11.398438 L 58.011719 11.78125 L 58.441406 12.171875 L 58.851563 12.570313 L 59.261719 12.980469 L 59.660156 13.390625 L 60.050781 13.808594 L 60.441406 14.230469 L 60.820313 14.671875 L 61.191406 15.101563 L 61.910156 16 L 62.589844 16.921875 L 62.921875 17.390625 L 63.25 17.871094 L 63.558594 18.351563 L 63.871094 18.839844 L 64.160156 19.328125 L 64.449219 19.828125 L 64.730469 20.328125 L 65 20.839844 L 65.261719 21.351563 L 65.519531 21.871094 L 65.761719 22.390625 L 66 22.910156 L 66.21875 23.441406 L 66.441406 23.96875 L 66.640625 24.511719 L 66.839844 25.050781 L 67.03125 25.589844 L 67.210938 26.140625 L 67.371094 26.691406 L 67.53125 27.238281 L 67.679688 27.800781 L 67.820313 28.351563 L 67.949219 28.910156 L 68.070313 29.480469 L 68.179688 30.039063 L 68.28125 30.609375 L 68.371094 31.179688 L 68.449219 31.738281 L 68.519531 32.320313 L 68.578125 32.890625 L 68.628906 33.460938 L 68.671875 34.03125 L 68.699219 34.609375 L 68.71875 35.179688 L 68.730469 35.761719 L 68.730469 36.328125 L 68.710938 36.910156 L 68.691406 37.480469 L 68.660156 38.050781 L 36 36 L 36 3.269531 "/>
</g>
</svg>
