<?xml version="1.0" encoding="UTF-8"?>
<svg xmlns="http://www.w3.org/2000/svg" xmlns:xlink="http://www.w3.org/1999/xlink" width="72pt" height="72pt" viewBox="0 0 72 72" version="1.1">
<g id="surface551">
<path style="fill:none;stroke-width:1.07;stroke-linecap:round;stroke-linejoin:round;stroke:rgb(0%,0%,0%);stroke-opacity:1;stroke-miterlimit:10;" d="M 36 3.269531 L 36.578125 3.28125 L 37.160156 3.289063 L 37.738281 3.320313 L 38.320313 3.351563 L 38.898438 3.398438 L 39.46875 3.460938 L 40.050781 3.519531 L 40.621094 3.601563 L 41.199219 3.691406 L 41.769531 3.789063 L 42.339844 3.890625 L 42.910156 4.011719 L 43.46875 4.140625 L 44.039063 4.269531 L 44.601563 4.421875 L 45.160156 4.578125 L 46.261719 4.921875 L 46.808594 5.109375 L 47.359375 5.308594 L 47.898438 5.511719 L 48.441406 5.730469 L 48.96875 5.949219 L 49.5 6.191406 L 50.03125 6.429688 L 50.550781 6.691406 L 51.070313 6.949219 L 51.578125 7.21875 L 52.089844 7.5 L 52.589844 7.789063 L 53.089844 8.089844 L 53.578125 8.398438 L 54.070313 8.710938 L 54.550781 9.039063 L 55.019531 9.371094 L 55.488281 9.710938 L 55.949219 10.058594 L 56.410156 10.421875 L 56.859375 10.78125 L 36 36 L 36 3.269531 "/>
</g>
</svg>
