<?xml version="1.0" encoding="UTF-8"?>
<svg xmlns="http://www.w3.org/2000/svg" xmlns:xlink="http://www.w3.org/1999/xlink" width="72pt" height="72pt" viewBox="0 0 72 72" version="1.1">
<g id="surface996">
<path style="fill:none;stroke-width:1.07;stroke-linecap:round;stroke-linejoin:round;stroke:rgb(0%,0%,0%);stroke-opacity:1;stroke-miterlimit:10;" d="M 36 3.269531 L 36.570313 3.28125 L 37.148438 3.289063 L 38.289063 3.351563 L 38.859375 3.398438 L 39.429688 3.449219 L 40.570313 3.589844 L 41.128906 3.679688 L 41.699219 3.769531 L 42.261719 3.878906 L 42.820313 3.988281 L 43.378906 4.121094 L 43.941406 4.25 L 44.488281 4.390625 L 45.050781 4.550781 L 45.589844 4.710938 L 46.140625 4.878906 L 47.21875 5.261719 L 47.761719 5.460938 L 48.289063 5.671875 L 48.820313 5.890625 L 49.351563 6.121094 L 49.871094 6.359375 L 50.378906 6.601563 L 50.898438 6.859375 L 51.398438 7.121094 L 51.910156 7.398438 L 52.398438 7.679688 L 52.898438 7.96875 L 53.390625 8.269531 L 53.871094 8.578125 L 54.351563 8.898438 L 54.820313 9.21875 L 55.28125 9.558594 L 55.738281 9.898438 L 56.199219 10.25 L 56.640625 10.609375 L 57.089844 10.96875 L 57.519531 11.339844 L 57.949219 11.71875 L 58.371094 12.109375 L 58.78125 12.511719 L 59.191406 12.910156 L 59.988281 13.730469 L 60.371094 14.160156 L 60.75 14.589844 L 61.121094 15.019531 L 61.480469 15.46875 L 61.839844 15.921875 L 62.191406 16.371094 L 62.53125 16.828125 L 62.859375 17.300781 L 63.179688 17.769531 L 63.5 18.25 L 63.800781 18.738281 L 64.101563 19.21875 L 64.390625 19.71875 L 64.671875 20.21875 L 64.941406 20.71875 L 65.210938 21.230469 L 65.460938 21.738281 L 65.699219 22.261719 L 65.941406 22.78125 L 66.171875 23.308594 L 66.378906 23.839844 L 66.589844 24.371094 L 66.789063 24.910156 L 66.980469 25.449219 L 67.160156 26 L 67.328125 26.539063 L 67.488281 27.089844 L 67.640625 27.640625 L 67.78125 28.199219 L 67.921875 28.761719 L 68.039063 29.320313 L 68.148438 29.878906 L 68.25 30.441406 L 68.339844 31.011719 L 68.429688 31.570313 L 68.5 32.140625 L 68.558594 32.710938 L 68.660156 33.851563 L 68.691406 34.429688 L 68.710938 35 L 68.71875 35.570313 L 68.730469 36.140625 L 68.71875 36.71875 L 68.699219 37.289063 L 68.671875 37.859375 L 68.640625 38.429688 L 68.589844 39 L 68.53125 39.570313 L 68.390625 40.710938 L 68.300781 41.28125 L 68.199219 41.839844 L 68.089844 42.398438 L 67.980469 42.960938 L 67.851563 43.519531 L 67.710938 44.078125 L 67.570313 44.628906 L 67.25 45.730469 L 67.070313 46.28125 L 66.890625 46.820313 L 66.691406 47.359375 L 66.488281 47.890625 L 66.28125 48.421875 L 66.050781 48.949219 L 65.820313 49.480469 L 65.578125 50 L 65.328125 50.511719 L 65.078125 51.019531 L 64.808594 51.53125 L 64.53125 52.03125 L 64.25 52.53125 L 63.949219 53.019531 L 63.648438 53.511719 L 63.339844 53.988281 L 63.019531 54.460938 L 62.691406 54.929688 L 62.359375 55.398438 L 62.019531 55.859375 L 61.660156 56.308594 L 61.300781 56.761719 L 60.941406 57.191406 L 60.558594 57.628906 L 60.179688 58.050781 L 59.789063 58.46875 L 59.390625 58.890625 L 58.988281 59.289063 L 58.578125 59.691406 L 58.160156 60.078125 L 57.738281 60.46875 L 57.300781 60.839844 L 56.871094 61.210938 L 56.421875 61.570313 L 55.96875 61.929688 L 55.511719 62.269531 L 55.050781 62.609375 L 54.578125 62.941406 L 54.109375 63.261719 L 53.628906 63.570313 L 53.140625 63.878906 L 52.648438 64.171875 L 52.160156 64.460938 L 51.660156 64.738281 L 51.148438 65.011719 L 50.640625 65.269531 L 50.128906 65.519531 L 49.609375 65.761719 L 49.078125 66 L 48.558594 66.21875 L 48.03125 66.441406 L 47.488281 66.640625 L 46.949219 66.839844 L 46.410156 67.03125 L 45.871094 67.199219 L 45.320313 67.371094 L 44.769531 67.53125 L 44.21875 67.679688 L 43.660156 67.820313 L 43.101563 67.949219 L 42.539063 68.070313 L 41.980469 68.179688 L 41.421875 68.28125 L 40.851563 68.371094 L 40.28125 68.449219 L 39.71875 68.519531 L 39.148438 68.578125 L 38.570313 68.628906 L 38 68.671875 L 37.429688 68.699219 L 36.859375 68.71875 L 36.289063 68.730469 L 35.710938 68.730469 L 35.140625 68.71875 L 34.570313 68.699219 L 34 68.671875 L 33.429688 68.628906 L 32.851563 68.578125 L 32.28125 68.519531 L 31.71875 68.449219 L 31.148438 68.371094 L 30.578125 68.28125 L 30.019531 68.179688 L 29.460938 68.070313 L 28.898438 67.949219 L 28.339844 67.820313 L 27.78125 67.679688 L 27.230469 67.53125 L 26.679688 67.371094 L 26.128906 67.199219 L 25.589844 67.03125 L 25.050781 66.839844 L 24.511719 66.640625 L 23.96875 66.441406 L 23.441406 66.21875 L 22.921875 66 L 22.390625 65.761719 L 21.871094 65.519531 L 21.359375 65.269531 L 20.851563 65.011719 L 20.339844 64.738281 L 19.839844 64.460938 L 19.351563 64.171875 L 18.859375 63.878906 L 18.371094 63.570313 L 17.890625 63.261719 L 17.421875 62.941406 L 16.949219 62.609375 L 16.488281 62.269531 L 16.03125 61.929688 L 15.578125 61.570313 L 15.128906 61.210938 L 14.699219 60.839844 L 14.261719 60.46875 L 13.839844 60.078125 L 13.421875 59.691406 L 13.011719 59.289063 L 12.609375 58.890625 L 12.210938 58.46875 L 11.820313 58.050781 L 11.441406 57.628906 L 11.058594 57.191406 L 10.699219 56.761719 L 10.339844 56.308594 L 9.980469 55.859375 L 9.640625 55.398438 L 9.308594 54.929688 L 8.980469 54.460938 L 8.660156 53.988281 L 8.351563 53.511719 L 8.050781 53.019531 L 7.75 52.53125 L 7.46875 52.03125 L 7.191406 51.53125 L 6.921875 51.019531 L 6.671875 50.511719 L 6.421875 50 L 6.179688 49.480469 L 5.949219 48.949219 L 5.71875 48.421875 L 5.511719 47.890625 L 5.308594 47.359375 L 5.109375 46.820313 L 4.929688 46.28125 L 4.75 45.730469 L 4.429688 44.628906 L 4.289063 44.078125 L 4.148438 43.519531 L 4.019531 42.960938 L 3.910156 42.398438 L 3.800781 41.839844 L 3.699219 41.28125 L 3.609375 40.710938 L 3.46875 39.570313 L 3.410156 39 L 3.359375 38.429688 L 3.328125 37.859375 L 3.300781 37.289063 L 3.28125 36.71875 L 3.269531 36.140625 L 3.28125 35.570313 L 3.289063 35 L 3.308594 34.429688 L 3.339844 33.851563 L 3.441406 32.710938 L 3.5 32.140625 L 3.570313 31.570313 L 3.660156 31.011719 L 3.75 30.441406 L 3.851563 29.878906 L 3.960938 29.320313 L 4.078125 28.761719 L 4.21875 28.199219 L 4.359375 27.640625 L 4.511719 27.089844 L 4.671875 26.539063 L 4.839844 26 L 5.019531 25.449219 L 5.210938 24.910156 L 5.410156 24.371094 L 5.621094 23.839844 L 5.828125 23.308594 L 6.058594 22.78125 L 6.300781 22.261719 L 6.539063 21.738281 L 6.789063 21.230469 L 7.058594 20.71875 L 7.328125 20.21875 L 7.609375 19.71875 L 7.898438 19.21875 L 8.199219 18.738281 L 8.5 18.25 L 8.820313 17.769531 L 9.140625 17.300781 L 9.46875 16.828125 L 9.808594 16.371094 L 10.160156 15.921875 L 10.519531 15.46875 L 10.878906 15.019531 L 11.25 14.589844 L 11.628906 14.160156 L 12.011719 13.730469 L 12.808594 12.910156 L 13.21875 12.511719 L 13.628906 12.109375 L 14.050781 11.71875 L 14.480469 11.339844 L 14.910156 10.96875 L 15.359375 10.609375 L 15.800781 10.25 L 16.261719 9.898438 L 16.71875 9.558594 L 17.179688 9.21875 L 17.648438 8.898438 L 18.128906 8.578125 L 18.609375 8.269531 L 19.101563 7.96875 L 19.601563 7.679688 L 20.089844 7.398438 L 20.601563 7.121094 L 21.101563 6.859375 L 21.621094 6.601563 L 22.128906 6.359375 L 22.648438 6.121094 L 23.179688 5.890625 L 23.710938 5.671875 L 24.238281 5.460938 L 24.78125 5.261719 L 25.859375 4.878906 L 26.410156 4.710938 L 26.949219 4.550781 L 27.511719 4.390625 L 28.058594 4.25 L 28.621094 4.121094 L 29.179688 3.988281 L 29.738281 3.878906 L 30.300781 3.769531 L 30.871094 3.679688 L 31.429688 3.589844 L 32.570313 3.449219 L 33.140625 3.398438 L 33.710938 3.351563 L 34.851563 3.289063 L 35.429688 3.28125 L 36 3.269531 L 36 36 L 36 3.269531 "/>
</g>
</svg>
