<?xml version="1.0" encoding="UTF-8"?>
<svg xmlns="http://www.w3.org/2000/svg" xmlns:xlink="http://www.w3.org/1999/xlink" width="72pt" height="72pt" viewBox="0 0 72 72" version="1.1">
<g id="surface711">
<path style="fill:none;stroke-width:1.07;stroke-linecap:round;stroke-linejoin:round;stroke:rgb(0%,0%,0%);stroke-opacity:1;stroke-miterlimit:10;" d="M 36 3.269531 L 36.570313 3.28125 L 37.148438 3.289063 L 38.289063 3.351563 L 38.871094 3.398438 L 39.441406 3.449219 L 40.011719 3.519531 L 40.578125 3.589844 L 41.148438 3.679688 L 41.710938 3.78125 L 42.28125 3.878906 L 43.398438 4.121094 L 43.960938 4.25 L 44.511719 4.398438 L 45.070313 4.550781 L 45.621094 4.71875 L 46.160156 4.890625 L 46.710938 5.070313 L 47.789063 5.46875 L 48.320313 5.679688 L 48.851563 5.898438 L 49.378906 6.128906 L 49.898438 6.371094 L 50.421875 6.621094 L 50.929688 6.878906 L 51.441406 7.140625 L 51.941406 7.421875 L 52.441406 7.699219 L 52.929688 7.988281 L 53.421875 8.300781 L 53.910156 8.609375 L 54.378906 8.921875 L 54.859375 9.25 L 55.78125 9.929688 L 56.238281 10.28125 L 56.691406 10.640625 L 57.128906 11.011719 L 57.558594 11.378906 L 57.988281 11.761719 L 58.410156 12.148438 L 58.828125 12.550781 L 59.238281 12.949219 L 59.640625 13.359375 L 60.03125 13.78125 L 60.421875 14.210938 L 60.789063 14.640625 L 61.171875 15.078125 L 61.53125 15.519531 L 61.878906 15.96875 L 62.230469 16.429688 L 62.570313 16.890625 L 62.898438 17.359375 L 63.539063 18.320313 L 63.851563 18.800781 L 64.140625 19.289063 L 64.429688 19.789063 L 64.710938 20.289063 L 64.980469 20.800781 L 65.238281 21.308594 L 65.5 21.820313 L 65.738281 22.339844 L 65.980469 22.871094 L 66.199219 23.398438 L 66.421875 23.929688 L 66.628906 24.460938 L 67.011719 25.539063 L 67.191406 26.089844 L 67.359375 26.640625 L 67.519531 27.191406 L 67.671875 27.738281 L 67.808594 28.300781 L 67.941406 28.859375 L 68.058594 29.421875 L 68.171875 29.988281 L 68.269531 30.550781 L 68.359375 31.121094 L 68.441406 31.691406 L 68.511719 32.261719 L 68.570313 32.828125 L 68.621094 33.398438 L 68.660156 33.96875 L 68.691406 34.550781 L 68.71875 35.121094 L 68.730469 35.691406 L 68.730469 36.269531 L 68.71875 36.839844 L 68.699219 37.410156 L 68.671875 37.988281 L 68.628906 38.558594 L 68.578125 39.128906 L 68.519531 39.699219 L 68.449219 40.269531 L 68.371094 40.839844 L 68.28125 41.410156 L 68.179688 41.980469 L 68.070313 42.539063 L 67.949219 43.101563 L 67.820313 43.660156 L 67.679688 44.21875 L 67.53125 44.769531 L 67.371094 45.320313 L 67.199219 45.871094 L 67.019531 46.421875 L 66.839844 46.960938 L 66.640625 47.5 L 66.429688 48.039063 L 66.21875 48.570313 L 65.988281 49.101563 L 65.761719 49.621094 L 65.519531 50.140625 L 65.261719 50.660156 L 65 51.171875 L 64.730469 51.671875 L 64.449219 52.171875 L 64.160156 52.671875 L 63.871094 53.160156 L 63.558594 53.648438 L 63.25 54.128906 L 62.921875 54.601563 L 62.589844 55.070313 L 62.261719 55.539063 L 61.910156 56 L 61.550781 56.449219 L 61.191406 56.890625 L 60.820313 57.328125 L 60.441406 57.761719 L 60.058594 58.191406 L 59.660156 58.609375 L 59.261719 59.019531 L 58.859375 59.421875 L 58.441406 59.820313 L 58.019531 60.210938 L 57.160156 60.96875 L 56.71875 61.339844 L 56.269531 61.699219 L 55.820313 62.050781 L 55.359375 62.390625 L 54.890625 62.730469 L 54.421875 63.050781 L 53.941406 63.371094 L 53.460938 63.679688 L 52.96875 63.980469 L 52.480469 64.28125 L 51.980469 64.558594 L 51.46875 64.839844 L 50.960938 65.109375 L 50.449219 65.359375 L 49.929688 65.609375 L 36 36 L 36 3.269531 "/>
</g>
</svg>
