<?xml version="1.0" encoding="UTF-8"?>
<svg xmlns="http://www.w3.org/2000/svg" xmlns:xlink="http://www.w3.org/1999/xlink" width="72pt" height="72pt" viewBox="0 0 72 72" version="1.1">
<g id="surface776">
<path style="fill:none;stroke-width:1.07;stroke-linecap:round;stroke-linejoin:round;stroke:rgb(0%,0%,0%);stroke-opacity:1;stroke-miterlimit:10;" d="M 36 3.269531 L 36.570313 3.28125 L 37.148438 3.289063 L 38.289063 3.351563 L 38.859375 3.398438 L 39.429688 3.449219 L 40.570313 3.589844 L 41.128906 3.679688 L 41.699219 3.769531 L 42.261719 3.878906 L 42.820313 3.988281 L 43.378906 4.121094 L 43.941406 4.25 L 44.5 4.390625 L 45.601563 4.710938 L 46.140625 4.878906 L 46.691406 5.070313 L 47.230469 5.261719 L 47.761719 5.460938 L 48.289063 5.671875 L 48.820313 5.890625 L 49.351563 6.121094 L 49.871094 6.359375 L 50.390625 6.601563 L 50.898438 6.859375 L 51.410156 7.128906 L 51.910156 7.398438 L 52.410156 7.679688 L 52.898438 7.96875 L 53.390625 8.269531 L 53.871094 8.578125 L 54.351563 8.898438 L 54.820313 9.230469 L 55.289063 9.558594 L 55.75 9.898438 L 56.199219 10.25 L 56.648438 10.609375 L 57.089844 10.96875 L 57.519531 11.351563 L 57.949219 11.730469 L 58.371094 12.109375 L 58.789063 12.511719 L 59.199219 12.910156 L 59.601563 13.320313 L 59.988281 13.738281 L 60.378906 14.160156 L 60.75 14.589844 L 61.128906 15.03125 L 61.488281 15.46875 L 61.839844 15.921875 L 62.191406 16.378906 L 62.53125 16.839844 L 62.859375 17.308594 L 63.191406 17.78125 L 63.5 18.261719 L 63.808594 18.738281 L 64.101563 19.230469 L 64.390625 19.730469 L 64.671875 20.21875 L 64.949219 20.730469 L 65.210938 21.238281 L 65.460938 21.75 L 65.710938 22.269531 L 65.941406 22.789063 L 66.171875 23.320313 L 66.390625 23.851563 L 66.601563 24.378906 L 66.789063 24.921875 L 66.980469 25.460938 L 67.160156 26 L 67.328125 26.550781 L 67.488281 27.101563 L 67.640625 27.648438 L 67.789063 28.210938 L 67.921875 28.769531 L 68.039063 29.328125 L 68.148438 29.890625 L 68.25 30.449219 L 68.351563 31.019531 L 68.429688 31.578125 L 68.5 32.148438 L 68.558594 32.71875 L 68.621094 33.289063 L 68.660156 33.859375 L 68.691406 34.441406 L 68.710938 35.011719 L 68.71875 35.578125 L 68.730469 36.148438 L 68.71875 36.730469 L 68.699219 37.300781 L 68.671875 37.871094 L 68.640625 38.441406 L 68.589844 39.011719 L 68.53125 39.578125 L 68.390625 40.71875 L 68.300781 41.289063 L 68.199219 41.851563 L 67.980469 42.96875 L 67.851563 43.53125 L 67.710938 44.089844 L 67.570313 44.640625 L 67.410156 45.191406 L 67.238281 45.738281 L 67.070313 46.289063 L 66.878906 46.828125 L 66.691406 47.371094 L 66.488281 47.898438 L 66.269531 48.441406 L 66.050781 48.960938 L 65.820313 49.488281 L 65.578125 50.011719 L 65.328125 50.519531 L 65.070313 51.039063 L 64.800781 51.539063 L 64.238281 52.539063 L 63.949219 53.03125 L 63.640625 53.519531 L 63.328125 54 L 63.011719 54.480469 L 62.691406 54.949219 L 62.011719 55.871094 L 61.648438 56.320313 L 61.289063 56.769531 L 60.929688 57.210938 L 60.171875 58.070313 L 59.78125 58.488281 L 59.378906 58.898438 L 58.980469 59.300781 L 58.570313 59.699219 L 58.148438 60.089844 L 57.71875 60.480469 L 57.289063 60.851563 L 56.851563 61.21875 L 56.410156 61.578125 L 55.960938 61.941406 L 55.039063 62.621094 L 54.570313 62.949219 L 54.089844 63.269531 L 53.609375 63.578125 L 53.128906 63.890625 L 52.640625 64.179688 L 52.140625 64.46875 L 51.640625 64.75 L 51.140625 65.019531 L 50.621094 65.28125 L 50.109375 65.53125 L 49.589844 65.769531 L 49.070313 66.011719 L 48.539063 66.230469 L 48.011719 66.441406 L 47.46875 66.648438 L 46.941406 66.851563 L 46.398438 67.03125 L 45.851563 67.210938 L 45.300781 67.378906 L 44.75 67.539063 L 44.199219 67.679688 L 43.640625 67.820313 L 43.078125 67.949219 L 42.519531 68.070313 L 41.960938 68.179688 L 41.398438 68.28125 L 40.828125 68.371094 L 40.261719 68.449219 L 39.699219 68.519531 L 39.128906 68.578125 L 38.558594 68.628906 L 37.980469 68.671875 L 37.410156 68.699219 L 36.839844 68.71875 L 36.269531 68.730469 L 35.691406 68.730469 L 35.121094 68.71875 L 34.550781 68.699219 L 33.980469 68.660156 L 33.398438 68.621094 L 32.828125 68.570313 L 32.261719 68.511719 L 31.699219 68.441406 L 31.128906 68.359375 L 30.558594 68.269531 L 30 68.171875 L 29.441406 68.058594 L 28.878906 67.941406 L 28.320313 67.808594 L 27.761719 67.671875 L 27.210938 67.519531 L 26.660156 67.371094 L 26.109375 67.199219 L 25.570313 67.019531 L 25.019531 66.828125 L 24.488281 66.640625 L 23.949219 66.429688 L 36 36 L 36 3.269531 "/>
</g>
</svg>
