<?xml version="1.0" encoding="UTF-8"?>
<svg xmlns="http://www.w3.org/2000/svg" xmlns:xlink="http://www.w3.org/1999/xlink" width="72pt" height="72pt" viewBox="0 0 72 72" version="1.1">
<g id="surface586">
<path style="fill:none;stroke-width:1.07;stroke-linecap:round;stroke-linejoin:round;stroke:rgb(0%,0%,0%);stroke-opacity:1;stroke-miterlimit:10;" d="M 36 3.269531 L 36.578125 3.28125 L 37.160156 3.289063 L 37.730469 3.320313 L 38.308594 3.351563 L 38.890625 3.398438 L 39.460938 3.460938 L 40.039063 3.519531 L 40.609375 3.601563 L 41.75 3.78125 L 42.320313 3.890625 L 42.890625 4.011719 L 43.449219 4.128906 L 44.011719 4.269531 L 44.570313 4.421875 L 45.128906 4.570313 L 45.679688 4.738281 L 46.238281 4.910156 L 46.78125 5.101563 L 47.328125 5.300781 L 47.871094 5.5 L 48.410156 5.710938 L 48.941406 5.941406 L 49.46875 6.171875 L 49.988281 6.410156 L 50.511719 6.671875 L 51.03125 6.929688 L 51.539063 7.199219 L 52.050781 7.480469 L 53.050781 8.058594 L 53.539063 8.371094 L 54.019531 8.679688 L 54.5 9 L 54.980469 9.339844 L 55.441406 9.671875 L 55.910156 10.019531 L 56.808594 10.738281 L 57.25 11.109375 L 57.691406 11.488281 L 58.121094 11.878906 L 58.539063 12.28125 L 58.960938 12.679688 L 59.371094 13.089844 L 59.769531 13.5 L 60.550781 14.359375 L 60.929688 14.789063 L 61.300781 15.238281 L 61.660156 15.691406 L 62.019531 16.140625 L 62.699219 17.078125 L 63.03125 17.550781 L 63.351563 18.03125 L 63.671875 18.519531 L 63.96875 19.011719 L 64.269531 19.511719 L 64.550781 20.011719 L 64.828125 20.519531 L 65.101563 21.03125 L 65.359375 21.539063 L 65.609375 22.070313 L 36 36 L 36 3.269531 "/>
</g>
</svg>
