<?xml version="1.0" encoding="UTF-8"?>
<svg xmlns="http://www.w3.org/2000/svg" xmlns:xlink="http://www.w3.org/1999/xlink" width="72pt" height="72pt" viewBox="0 0 72 72" version="1.1">
<g id="surface661">
<path style="fill:none;stroke-width:1.07;stroke-linecap:round;stroke-linejoin:round;stroke:rgb(0%,0%,0%);stroke-opacity:1;stroke-miterlimit:10;" d="M 36 3.269531 L 36.578125 3.28125 L 37.148438 3.289063 L 37.71875 3.320313 L 38.300781 3.351563 L 38.871094 3.398438 L 39.441406 3.449219 L 40.019531 3.519531 L 40.589844 3.601563 L 41.148438 3.679688 L 41.71875 3.78125 L 42.289063 3.878906 L 42.851563 4 L 43.410156 4.121094 L 43.96875 4.261719 L 44.53125 4.398438 L 45.078125 4.558594 L 45.628906 4.71875 L 46.179688 4.898438 L 46.71875 5.078125 L 47.269531 5.269531 L 47.800781 5.480469 L 48.339844 5.691406 L 48.871094 5.910156 L 49.398438 6.140625 L 49.921875 6.378906 L 50.441406 6.628906 L 50.949219 6.890625 L 51.460938 7.148438 L 51.960938 7.429688 L 52.460938 7.71875 L 52.960938 8.011719 L 53.449219 8.308594 L 53.929688 8.621094 L 54.410156 8.941406 L 54.878906 9.269531 L 55.351563 9.609375 L 55.808594 9.949219 L 56.261719 10.300781 L 56.710938 10.660156 L 57.160156 11.03125 L 57.589844 11.398438 L 58.019531 11.789063 L 58.441406 12.179688 L 58.859375 12.578125 L 59.671875 13.390625 L 60.058594 13.808594 L 60.449219 14.238281 L 60.820313 14.671875 L 61.191406 15.109375 L 61.558594 15.558594 L 61.910156 16.011719 L 62.261719 16.46875 L 62.601563 16.929688 L 62.929688 17.398438 L 63.570313 18.359375 L 63.871094 18.851563 L 64.171875 19.339844 L 64.460938 19.839844 L 64.738281 20.339844 L 65.011719 20.851563 L 65.269531 21.359375 L 65.769531 22.398438 L 66 22.921875 L 66.230469 23.449219 L 66.441406 23.980469 L 66.648438 24.519531 L 66.851563 25.058594 L 67.03125 25.609375 L 67.210938 26.148438 L 67.378906 26.699219 L 67.539063 27.25 L 67.691406 27.808594 L 67.828125 28.371094 L 68.070313 29.488281 L 68.179688 30.058594 L 68.28125 30.621094 L 68.371094 31.191406 L 68.449219 31.761719 L 68.519531 32.328125 L 68.578125 32.898438 L 68.628906 33.480469 L 68.671875 34.050781 L 68.699219 34.621094 L 68.71875 35.199219 L 68.730469 35.769531 L 68.730469 36.351563 L 68.710938 36.921875 L 68.691406 37.5 L 68.660156 38.070313 L 68.621094 38.648438 L 68.570313 39.21875 L 68.511719 39.789063 L 68.441406 40.359375 L 68.261719 41.5 L 68.160156 42.058594 L 68.050781 42.628906 L 67.929688 43.191406 L 67.800781 43.75 L 67.660156 44.308594 L 67.339844 45.410156 L 67.171875 45.960938 L 66.988281 46.511719 L 66.800781 47.050781 L 66.609375 47.589844 L 66.398438 48.128906 L 66.179688 48.660156 L 65.949219 49.191406 L 65.71875 49.710938 L 65.21875 50.75 L 64.949219 51.261719 L 64.679688 51.769531 L 36 36 L 36 3.269531 "/>
</g>
</svg>
