<?xml version="1.0" encoding="UTF-8"?>
<svg xmlns="http://www.w3.org/2000/svg" xmlns:xlink="http://www.w3.org/1999/xlink" width="72pt" height="72pt" viewBox="0 0 72 72" version="1.1">
<g id="surface556">
<path style="fill:none;stroke-width:1.07;stroke-linecap:round;stroke-linejoin:round;stroke:rgb(0%,0%,0%);stroke-opacity:1;stroke-miterlimit:10;" d="M 36 3.269531 L 36.570313 3.28125 L 37.148438 3.289063 L 38.289063 3.351563 L 38.871094 3.398438 L 39.441406 3.449219 L 40.011719 3.519531 L 40.578125 3.589844 L 41.140625 3.679688 L 41.710938 3.769531 L 42.269531 3.878906 L 42.839844 3.988281 L 43.398438 4.121094 L 43.949219 4.25 L 44.511719 4.398438 L 45.058594 4.550781 L 45.609375 4.71875 L 46.160156 4.890625 L 46.699219 5.070313 L 47.238281 5.261719 L 47.78125 5.46875 L 48.308594 5.679688 L 48.839844 5.898438 L 49.371094 6.128906 L 49.890625 6.371094 L 50.410156 6.621094 L 50.921875 6.871094 L 51.429688 7.140625 L 51.929688 7.410156 L 52.929688 7.988281 L 53.410156 8.289063 L 53.898438 8.601563 L 54.378906 8.921875 L 54.851563 9.238281 L 55.308594 9.578125 L 55.769531 9.921875 L 56.230469 10.269531 L 56.679688 10.628906 L 57.121094 11 L 57.550781 11.371094 L 57.980469 11.75 L 58.398438 12.140625 L 36 36 L 36 3.269531 "/>
</g>
</svg>
