<?xml version="1.0" encoding="UTF-8"?>
<svg xmlns="http://www.w3.org/2000/svg" xmlns:xlink="http://www.w3.org/1999/xlink" width="72pt" height="72pt" viewBox="0 0 72 72" version="1.1">
<g id="surface691">
<path style="fill:none;stroke-width:1.07;stroke-linecap:round;stroke-linejoin:round;stroke:rgb(0%,0%,0%);stroke-opacity:1;stroke-miterlimit:10;" d="M 36 3.269531 L 36.570313 3.28125 L 37.148438 3.289063 L 38.289063 3.351563 L 38.859375 3.398438 L 39.429688 3.449219 L 40.570313 3.589844 L 41.128906 3.679688 L 41.699219 3.769531 L 42.261719 3.878906 L 42.820313 3.988281 L 43.378906 4.121094 L 43.941406 4.25 L 44.488281 4.390625 L 45.050781 4.550781 L 45.601563 4.710938 L 46.140625 4.878906 L 47.21875 5.261719 L 47.761719 5.460938 L 48.289063 5.671875 L 48.820313 5.890625 L 49.351563 6.121094 L 49.871094 6.359375 L 50.378906 6.601563 L 50.898438 6.859375 L 51.398438 7.128906 L 51.910156 7.398438 L 52.410156 7.679688 L 52.898438 7.96875 L 53.390625 8.269531 L 53.871094 8.578125 L 54.351563 8.898438 L 54.820313 9.21875 L 55.28125 9.558594 L 55.738281 9.898438 L 56.199219 10.25 L 56.648438 10.609375 L 57.089844 10.96875 L 57.519531 11.339844 L 57.949219 11.71875 L 58.371094 12.109375 L 58.789063 12.511719 L 59.191406 12.910156 L 59.589844 13.320313 L 59.988281 13.738281 L 60.371094 14.160156 L 60.75 14.589844 L 61.121094 15.03125 L 61.488281 15.46875 L 61.839844 15.921875 L 62.191406 16.371094 L 62.53125 16.828125 L 62.859375 17.300781 L 63.179688 17.769531 L 63.5 18.25 L 63.800781 18.738281 L 64.101563 19.230469 L 64.390625 19.71875 L 64.671875 20.21875 L 64.941406 20.71875 L 65.210938 21.230469 L 65.710938 22.269531 L 66.171875 23.308594 L 66.390625 23.839844 L 66.589844 24.378906 L 66.789063 24.910156 L 66.980469 25.449219 L 67.160156 26 L 67.328125 26.550781 L 67.488281 27.101563 L 67.640625 27.648438 L 67.78125 28.199219 L 67.921875 28.761719 L 68.039063 29.320313 L 68.148438 29.878906 L 68.25 30.449219 L 68.339844 31.011719 L 68.429688 31.578125 L 68.5 32.148438 L 68.558594 32.71875 L 68.660156 33.859375 L 68.691406 34.429688 L 68.710938 35 L 68.71875 35.570313 L 68.730469 36.148438 L 68.71875 36.71875 L 68.699219 37.289063 L 68.671875 37.859375 L 68.640625 38.441406 L 68.589844 39.011719 L 68.53125 39.578125 L 68.460938 40.148438 L 68.390625 40.710938 L 68.300781 41.28125 L 68.199219 41.839844 L 68.089844 42.410156 L 67.980469 42.96875 L 67.851563 43.53125 L 67.710938 44.078125 L 67.570313 44.640625 L 67.410156 45.191406 L 67.25 45.738281 L 67.070313 46.28125 L 66.890625 46.820313 L 66.691406 47.359375 L 66.488281 47.898438 L 66.28125 48.429688 L 66.050781 48.960938 L 65.820313 49.480469 L 65.578125 50 L 65.328125 50.519531 L 65.070313 51.03125 L 64.808594 51.53125 L 64.53125 52.039063 L 64.238281 52.53125 L 63.949219 53.019531 L 63.648438 53.511719 L 63.339844 53.988281 L 63.019531 54.46875 L 62.691406 54.941406 L 62.359375 55.398438 L 62.011719 55.859375 L 61.660156 56.308594 L 61.300781 56.761719 L 60.929688 57.199219 L 60.558594 57.628906 L 60.179688 58.058594 L 59.789063 58.480469 L 59.390625 58.890625 L 58.988281 59.300781 L 58.570313 59.699219 L 58.160156 60.089844 L 57.730469 60.46875 L 57.300781 60.851563 L 56.859375 61.21875 L 36 36 L 36 3.269531 "/>
</g>
</svg>
