<?xml version="1.0" encoding="UTF-8"?>
<svg xmlns="http://www.w3.org/2000/svg" xmlns:xlink="http://www.w3.org/1999/xlink" width="72pt" height="72pt" viewBox="0 0 72 72" version="1.1">
<g id="surface851">
<path style="fill:none;stroke-width:1.07;stroke-linecap:round;stroke-linejoin:round;stroke:rgb(0%,0%,0%);stroke-opacity:1;stroke-miterlimit:10;" d="M 36 3.269531 L 36.570313 3.28125 L 37.140625 3.289063 L 37.71875 3.320313 L 38.289063 3.351563 L 38.859375 3.398438 L 39.429688 3.449219 L 40.570313 3.589844 L 41.128906 3.679688 L 41.699219 3.769531 L 42.261719 3.878906 L 42.820313 3.988281 L 43.378906 4.121094 L 43.941406 4.25 L 44.488281 4.390625 L 45.589844 4.710938 L 46.140625 4.878906 L 46.679688 5.058594 L 47.21875 5.261719 L 47.75 5.460938 L 48.289063 5.671875 L 48.820313 5.890625 L 49.859375 6.351563 L 50.378906 6.601563 L 50.890625 6.859375 L 51.398438 7.121094 L 51.898438 7.390625 L 52.398438 7.679688 L 52.890625 7.96875 L 53.378906 8.269531 L 53.859375 8.578125 L 54.339844 8.890625 L 54.808594 9.21875 L 55.28125 9.550781 L 55.738281 9.890625 L 56.191406 10.238281 L 56.640625 10.601563 L 57.078125 10.960938 L 57.511719 11.339844 L 57.941406 11.71875 L 58.359375 12.101563 L 58.78125 12.5 L 59.179688 12.898438 L 59.578125 13.308594 L 59.980469 13.730469 L 60.359375 14.148438 L 60.738281 14.578125 L 61.109375 15.011719 L 61.480469 15.460938 L 61.828125 15.910156 L 62.179688 16.359375 L 62.519531 16.820313 L 62.851563 17.289063 L 63.171875 17.761719 L 63.488281 18.238281 L 63.800781 18.71875 L 64.089844 19.210938 L 64.378906 19.710938 L 64.941406 20.710938 L 65.199219 21.21875 L 65.449219 21.730469 L 65.699219 22.25 L 65.929688 22.769531 L 66.160156 23.300781 L 66.378906 23.820313 L 66.589844 24.359375 L 66.789063 24.898438 L 66.980469 25.441406 L 67.160156 25.980469 L 67.328125 26.53125 L 67.488281 27.070313 L 67.640625 27.628906 L 67.78125 28.179688 L 67.910156 28.738281 L 68.03125 29.300781 L 68.148438 29.859375 L 68.25 30.421875 L 68.339844 30.988281 L 68.421875 31.550781 L 68.5 32.121094 L 68.558594 32.691406 L 68.609375 33.261719 L 68.660156 33.828125 L 68.691406 34.398438 L 68.710938 34.980469 L 68.71875 35.550781 L 68.730469 36.121094 L 68.71875 36.691406 L 68.699219 37.269531 L 68.679688 37.839844 L 68.640625 38.410156 L 68.589844 38.980469 L 68.53125 39.550781 L 68.46875 40.121094 L 68.390625 40.691406 L 68.300781 41.25 L 68.210938 41.820313 L 68.101563 42.378906 L 67.980469 42.941406 L 67.859375 43.5 L 67.71875 44.050781 L 67.578125 44.609375 L 67.421875 45.160156 L 67.25 45.710938 L 67.078125 46.25 L 66.898438 46.789063 L 66.699219 47.328125 L 66.5 47.871094 L 66.289063 48.398438 L 66.070313 48.929688 L 65.839844 49.449219 L 65.601563 49.96875 L 65.351563 50.488281 L 65.089844 51 L 64.820313 51.5 L 64.550781 52.011719 L 64.261719 52.5 L 63.96875 52.988281 L 63.671875 53.480469 L 63.359375 53.960938 L 63.039063 54.441406 L 62.710938 54.910156 L 62.378906 55.371094 L 62.03125 55.828125 L 61.679688 56.28125 L 61.320313 56.730469 L 60.960938 57.171875 L 60.578125 57.601563 L 60.199219 58.03125 L 59.808594 58.449219 L 59.421875 58.859375 L 59.011719 59.269531 L 58.601563 59.671875 L 58.179688 60.058594 L 57.761719 60.441406 L 57.328125 60.820313 L 56.890625 61.191406 L 56.449219 61.550781 L 56 61.910156 L 55.078125 62.589844 L 54.609375 62.921875 L 54.140625 63.238281 L 53.660156 63.550781 L 53.171875 63.859375 L 52.679688 64.160156 L 52.191406 64.441406 L 51.691406 64.71875 L 51.179688 64.988281 L 50.671875 65.25 L 50.160156 65.511719 L 49.640625 65.75 L 49.121094 65.980469 L 48.589844 66.210938 L 48.058594 66.421875 L 47.53125 66.628906 L 46.988281 66.828125 L 46.449219 67.011719 L 45.910156 67.191406 L 45.359375 67.359375 L 44.808594 67.519531 L 44.261719 67.671875 L 43.699219 67.808594 L 43.140625 67.941406 L 42.578125 68.058594 L 42.019531 68.171875 L 41.460938 68.269531 L 40.890625 68.359375 L 40.328125 68.441406 L 39.761719 68.511719 L 39.191406 68.570313 L 38.621094 68.621094 L 38.050781 68.660156 L 37.480469 68.691406 L 36.898438 68.710938 L 36.328125 68.730469 L 35.761719 68.730469 L 35.191406 68.71875 L 34.609375 68.699219 L 34.039063 68.671875 L 33.46875 68.628906 L 32.898438 68.578125 L 32.328125 68.519531 L 31.761719 68.449219 L 31.199219 68.371094 L 30.628906 68.28125 L 30.070313 68.179688 L 29.5 68.078125 L 28.941406 67.960938 L 28.390625 67.828125 L 27.828125 67.691406 L 27.28125 67.539063 L 26.730469 67.390625 L 26.179688 67.21875 L 25.628906 67.039063 L 25.089844 66.859375 L 24.550781 66.660156 L 24.019531 66.460938 L 23.488281 66.238281 L 22.960938 66.019531 L 22.441406 65.789063 L 21.921875 65.539063 L 21.398438 65.289063 L 20.890625 65.03125 L 20.390625 64.761719 L 19.890625 64.488281 L 19.390625 64.199219 L 18.898438 63.910156 L 18.421875 63.601563 L 17.941406 63.289063 L 17.460938 62.96875 L 16.988281 62.640625 L 16.53125 62.308594 L 16.070313 61.960938 L 15.621094 61.609375 L 15.179688 61.25 L 14.738281 60.878906 L 13.878906 60.121094 L 13.460938 59.730469 L 13.050781 59.328125 L 12.648438 58.929688 L 12.25 58.511719 L 11.859375 58.101563 L 11.46875 57.671875 L 11.101563 57.238281 L 10.730469 56.800781 L 10.371094 56.351563 L 10.019531 55.898438 L 9.679688 55.441406 L 9.339844 54.980469 L 9.011719 54.511719 L 8.691406 54.039063 L 8.378906 53.558594 L 8.078125 53.070313 L 7.78125 52.578125 L 7.21875 51.578125 L 6.949219 51.078125 L 6.691406 50.570313 L 6.441406 50.050781 L 6.199219 49.53125 L 5.96875 49.011719 L 5.53125 47.949219 L 5.328125 47.421875 L 5.128906 46.878906 L 4.949219 46.339844 L 4.769531 45.789063 L 4.609375 45.238281 L 4.449219 44.691406 L 4.300781 44.140625 L 36 36 L 36 3.269531 "/>
</g>
</svg>
