<?xml version="1.0" encoding="UTF-8"?>
<svg xmlns="http://www.w3.org/2000/svg" xmlns:xlink="http://www.w3.org/1999/xlink" width="72pt" height="72pt" viewBox="0 0 72 72" version="1.1">
<g id="surface911">
<path style="fill:none;stroke-width:1.07;stroke-linecap:round;stroke-linejoin:round;stroke:rgb(0%,0%,0%);stroke-opacity:1;stroke-miterlimit:10;" d="M 36 3.269531 L 36.570313 3.28125 L 37.148438 3.289063 L 38.289063 3.351563 L 38.859375 3.398438 L 39.429688 3.449219 L 40.570313 3.589844 L 41.128906 3.679688 L 41.699219 3.769531 L 42.261719 3.878906 L 42.820313 3.988281 L 43.378906 4.121094 L 43.941406 4.25 L 44.488281 4.390625 L 45.589844 4.710938 L 46.140625 4.878906 L 47.21875 5.261719 L 47.761719 5.460938 L 48.289063 5.671875 L 48.820313 5.890625 L 49.339844 6.121094 L 49.871094 6.359375 L 50.378906 6.601563 L 50.890625 6.859375 L 51.398438 7.121094 L 51.910156 7.398438 L 52.398438 7.679688 L 52.898438 7.96875 L 53.378906 8.269531 L 53.871094 8.578125 L 54.339844 8.898438 L 54.820313 9.21875 L 55.28125 9.558594 L 55.738281 9.898438 L 56.191406 10.25 L 56.640625 10.601563 L 57.078125 10.96875 L 57.519531 11.339844 L 57.949219 11.71875 L 58.371094 12.109375 L 58.78125 12.5 L 59.191406 12.910156 L 59.589844 13.320313 L 59.980469 13.730469 L 60.371094 14.160156 L 60.75 14.589844 L 61.121094 15.019531 L 61.480469 15.460938 L 61.839844 15.910156 L 62.191406 16.371094 L 62.53125 16.828125 L 62.859375 17.300781 L 63.179688 17.769531 L 63.488281 18.25 L 63.800781 18.730469 L 64.101563 19.21875 L 64.390625 19.71875 L 64.671875 20.21875 L 64.941406 20.71875 L 65.199219 21.230469 L 65.460938 21.738281 L 65.699219 22.261719 L 65.941406 22.78125 L 66.171875 23.308594 L 66.378906 23.839844 L 66.589844 24.371094 L 66.789063 24.910156 L 66.980469 25.449219 L 67.160156 25.988281 L 67.328125 26.539063 L 67.488281 27.089844 L 67.640625 27.640625 L 67.78125 28.199219 L 67.910156 28.75 L 68.039063 29.308594 L 68.148438 29.871094 L 68.25 30.441406 L 68.339844 31 L 68.429688 31.570313 L 68.5 32.140625 L 68.558594 32.710938 L 68.660156 33.851563 L 68.691406 34.421875 L 68.710938 34.988281 L 68.71875 35.570313 L 68.730469 36.140625 L 68.71875 36.710938 L 68.699219 37.28125 L 68.671875 37.859375 L 68.640625 38.429688 L 68.589844 39 L 68.53125 39.570313 L 68.460938 40.140625 L 68.390625 40.699219 L 68.300781 41.269531 L 68.199219 41.828125 L 68.101563 42.398438 L 67.980469 42.960938 L 67.851563 43.519531 L 67.71875 44.070313 L 67.570313 44.628906 L 67.25 45.730469 L 66.890625 46.808594 L 66.699219 47.351563 L 66.488281 47.890625 L 66.28125 48.421875 L 66.058594 48.949219 L 65.828125 49.46875 L 65.589844 49.988281 L 65.339844 50.511719 L 65.078125 51.019531 L 64.808594 51.519531 L 64.539063 52.03125 L 64.25 52.519531 L 63.960938 53.011719 L 63.648438 53.5 L 63.03125 54.460938 L 62.699219 54.929688 L 62.019531 55.851563 L 61.671875 56.300781 L 61.308594 56.75 L 60.941406 57.191406 L 60.570313 57.621094 L 60.191406 58.050781 L 59.800781 58.46875 L 59.398438 58.878906 L 58.988281 59.289063 L 58.578125 59.691406 L 58.171875 60.078125 L 57.738281 60.460938 L 57.308594 60.839844 L 56.871094 61.210938 L 56.429688 61.570313 L 55.980469 61.921875 L 55.519531 62.269531 L 55.058594 62.609375 L 54.589844 62.941406 L 54.109375 63.261719 L 53.640625 63.570313 L 53.148438 63.871094 L 52.660156 64.171875 L 52.160156 64.460938 L 51.660156 64.738281 L 51.160156 65.011719 L 50.648438 65.269531 L 50.128906 65.519531 L 49.621094 65.761719 L 49.089844 65.988281 L 48.570313 66.21875 L 48.03125 66.429688 L 47.5 66.640625 L 46.960938 66.839844 L 46.421875 67.019531 L 45.878906 67.199219 L 45.328125 67.371094 L 44.78125 67.53125 L 44.230469 67.679688 L 43.671875 67.820313 L 43.109375 67.949219 L 42.550781 68.058594 L 41.988281 68.171875 L 41.429688 68.269531 L 40.859375 68.359375 L 40.289063 68.441406 L 39.730469 68.511719 L 39.160156 68.570313 L 38.578125 68.628906 L 38.011719 68.671875 L 37.441406 68.699219 L 36.871094 68.71875 L 36.300781 68.730469 L 35.71875 68.730469 L 35.148438 68.71875 L 34.578125 68.699219 L 34.011719 68.671875 L 33.441406 68.628906 L 32.871094 68.578125 L 32.300781 68.519531 L 31.730469 68.449219 L 31.160156 68.371094 L 30.589844 68.28125 L 30.03125 68.179688 L 29.46875 68.070313 L 28.910156 67.949219 L 28.351563 67.820313 L 27.789063 67.679688 L 27.238281 67.53125 L 26.691406 67.378906 L 26.140625 67.210938 L 25.601563 67.03125 L 25.058594 66.839844 L 24.519531 66.648438 L 23.980469 66.441406 L 23.449219 66.230469 L 22.929688 66 L 22.398438 65.769531 L 21.878906 65.53125 L 21.371094 65.28125 L 20.859375 65.011719 L 20.351563 64.75 L 19.851563 64.46875 L 19.359375 64.179688 L 18.871094 63.878906 L 18.378906 63.578125 L 17.898438 63.269531 L 17.429688 62.949219 L 16.960938 62.621094 L 16.039063 61.941406 L 15.589844 61.578125 L 15.140625 61.21875 L 14.710938 60.851563 L 14.269531 60.480469 L 13.851563 60.089844 L 13.429688 59.699219 L 13.019531 59.300781 L 12.621094 58.898438 L 12.21875 58.480469 L 11.828125 58.058594 L 11.449219 57.640625 L 11.070313 57.199219 L 10.699219 56.769531 L 10.339844 56.320313 L 9.988281 55.871094 L 9.308594 54.949219 L 8.988281 54.480469 L 8.671875 54 L 8.359375 53.519531 L 8.050781 53.03125 L 7.761719 52.539063 L 7.199219 51.539063 L 6.929688 51.039063 L 6.671875 50.519531 L 6.421875 50.011719 L 6.179688 49.488281 L 5.949219 48.96875 L 5.730469 48.441406 L 5.519531 47.910156 L 5.308594 47.371094 L 5.121094 46.828125 L 4.929688 46.289063 L 4.761719 45.75 L 4.589844 45.199219 L 4.441406 44.648438 L 4.289063 44.089844 L 4.148438 43.539063 L 4.03125 42.980469 L 3.910156 42.421875 L 3.800781 41.851563 L 3.699219 41.289063 L 3.621094 40.71875 L 3.539063 40.160156 L 3.46875 39.589844 L 3.410156 39.019531 L 3.359375 38.449219 L 3.328125 37.878906 L 3.300781 37.300781 L 3.28125 36.730469 L 3.269531 36.160156 L 3.28125 35.589844 L 3.289063 35.011719 L 3.308594 34.441406 L 3.339844 33.871094 L 3.378906 33.300781 L 3.441406 32.730469 L 3.5 32.160156 L 3.570313 31.589844 L 3.648438 31.019531 L 3.75 30.460938 L 3.851563 29.890625 L 3.960938 29.328125 L 4.078125 28.769531 L 4.210938 28.21875 L 4.351563 27.660156 L 4.5 27.109375 L 4.660156 26.558594 L 4.828125 26.011719 L 5.011719 25.46875 L 5.199219 24.929688 L 5.398438 24.390625 L 5.609375 23.859375 L 5.828125 23.328125 L 6.050781 22.800781 L 6.289063 22.28125 L 6.53125 21.761719 L 6.789063 21.25 L 7.050781 20.738281 L 7.320313 20.230469 L 36 36 L 36 3.269531 "/>
</g>
</svg>
