<?xml version="1.0" encoding="UTF-8"?>
<svg xmlns="http://www.w3.org/2000/svg" xmlns:xlink="http://www.w3.org/1999/xlink" width="72pt" height="72pt" viewBox="0 0 72 72" version="1.1">
<g id="surface926">
<path style="fill:none;stroke-width:1.07;stroke-linecap:round;stroke-linejoin:round;stroke:rgb(0%,0%,0%);stroke-opacity:1;stroke-miterlimit:10;" d="M 36 3.269531 L 36.570313 3.28125 L 37.140625 3.289063 L 37.71875 3.320313 L 38.289063 3.351563 L 38.859375 3.398438 L 39.429688 3.449219 L 40 3.519531 L 40.558594 3.589844 L 41.128906 3.679688 L 41.691406 3.769531 L 42.261719 3.878906 L 42.820313 3.988281 L 43.378906 4.109375 L 43.929688 4.25 L 44.488281 4.390625 L 45.589844 4.710938 L 46.128906 4.878906 L 46.671875 5.058594 L 47.210938 5.25 L 47.75 5.449219 L 48.28125 5.660156 L 48.808594 5.878906 L 49.339844 6.109375 L 49.859375 6.351563 L 50.371094 6.601563 L 50.878906 6.851563 L 51.390625 7.121094 L 51.890625 7.390625 L 52.390625 7.671875 L 52.890625 7.960938 L 53.371094 8.261719 L 53.859375 8.570313 L 54.328125 8.890625 L 54.800781 9.210938 L 55.269531 9.550781 L 55.730469 9.890625 L 56.179688 10.238281 L 56.628906 10.589844 L 57.070313 10.960938 L 57.511719 11.328125 L 57.929688 11.710938 L 58.351563 12.101563 L 58.769531 12.488281 L 59.179688 12.890625 L 59.578125 13.300781 L 59.96875 13.71875 L 60.359375 14.140625 L 60.738281 14.570313 L 61.109375 15.011719 L 61.46875 15.449219 L 61.820313 15.898438 L 62.171875 16.351563 L 62.511719 16.808594 L 62.839844 17.28125 L 63.171875 17.75 L 63.789063 18.710938 L 64.089844 19.199219 L 64.378906 19.691406 L 64.660156 20.191406 L 64.929688 20.699219 L 65.191406 21.199219 L 65.449219 21.71875 L 65.691406 22.230469 L 65.929688 22.761719 L 66.148438 23.28125 L 66.371094 23.808594 L 66.578125 24.339844 L 66.78125 24.878906 L 66.96875 25.421875 L 67.148438 25.960938 L 67.320313 26.511719 L 67.480469 27.058594 L 67.628906 27.609375 L 67.78125 28.160156 L 67.910156 28.71875 L 68.03125 29.28125 L 68.25 30.398438 L 68.339844 30.96875 L 68.421875 31.539063 L 68.488281 32.101563 L 68.558594 32.671875 L 68.609375 33.238281 L 68.648438 33.808594 L 68.691406 34.378906 L 68.710938 34.960938 L 68.71875 35.53125 L 68.730469 36.101563 L 68.71875 36.671875 L 68.699219 37.238281 L 68.679688 37.820313 L 68.640625 38.390625 L 68.539063 39.53125 L 68.46875 40.101563 L 68.390625 40.660156 L 68.308594 41.230469 L 68.210938 41.789063 L 68.101563 42.351563 L 67.988281 42.921875 L 67.859375 43.46875 L 67.730469 44.03125 L 67.578125 44.578125 L 67.429688 45.128906 L 67.261719 45.679688 L 67.089844 46.230469 L 66.898438 46.769531 L 66.710938 47.308594 L 66.511719 47.839844 L 66.300781 48.371094 L 66.078125 48.898438 L 65.851563 49.429688 L 65.609375 49.949219 L 65.359375 50.460938 L 65.101563 50.96875 L 64.828125 51.480469 L 64.558594 51.980469 L 64.28125 52.480469 L 63.980469 52.96875 L 63.679688 53.460938 L 63.371094 53.941406 L 62.730469 54.878906 L 62.390625 55.351563 L 62.050781 55.808594 L 61.699219 56.261719 L 61.339844 56.710938 L 60.980469 57.148438 L 60.601563 57.578125 L 60.21875 58.011719 L 59.828125 58.429688 L 59.441406 58.839844 L 59.039063 59.25 L 58.628906 59.648438 L 58.210938 60.039063 L 57.78125 60.421875 L 57.351563 60.800781 L 56.921875 61.171875 L 56.46875 61.53125 L 56.019531 61.890625 L 55.570313 62.230469 L 55.109375 62.570313 L 54.640625 62.898438 L 54.171875 63.21875 L 53.691406 63.539063 L 53.199219 63.839844 L 52.710938 64.140625 L 52.21875 64.429688 L 51.71875 64.699219 L 51.21875 64.980469 L 50.710938 65.238281 L 50.191406 65.488281 L 49.679688 65.730469 L 49.148438 65.96875 L 48.628906 66.191406 L 48.101563 66.410156 L 47.558594 66.621094 L 47.03125 66.808594 L 46.488281 67 L 45.941406 67.179688 L 45.398438 67.351563 L 44.851563 67.511719 L 44.289063 67.660156 L 43.738281 67.800781 L 43.179688 67.929688 L 42.621094 68.050781 L 42.058594 68.160156 L 41.5 68.261719 L 40.929688 68.351563 L 40.371094 68.429688 L 39.800781 68.511719 L 39.230469 68.570313 L 38.660156 68.621094 L 38.089844 68.660156 L 37.519531 68.691406 L 36.941406 68.710938 L 36.371094 68.730469 L 35.800781 68.730469 L 35.230469 68.71875 L 34.660156 68.699219 L 34.078125 68.671875 L 33.511719 68.628906 L 32.941406 68.578125 L 32.371094 68.53125 L 31.808594 68.460938 L 31.238281 68.378906 L 30.671875 68.289063 L 30.109375 68.191406 L 29.550781 68.078125 L 28.988281 67.96875 L 28.429688 67.839844 L 27.871094 67.699219 L 27.320313 67.558594 L 26.769531 67.398438 L 26.21875 67.230469 L 25.679688 67.058594 L 25.140625 66.871094 L 24.601563 66.679688 L 24.058594 66.46875 L 23.53125 66.261719 L 23.011719 66.039063 L 22.480469 65.808594 L 21.960938 65.558594 L 21.449219 65.308594 L 20.941406 65.058594 L 20.429688 64.789063 L 19.929688 64.511719 L 19.441406 64.230469 L 18.941406 63.929688 L 18.460938 63.628906 L 17.980469 63.320313 L 17.5 63 L 17.03125 62.671875 L 16.570313 62.339844 L 16.109375 61.988281 L 15.660156 61.640625 L 15.21875 61.28125 L 14.78125 60.910156 L 14.339844 60.539063 L 13.921875 60.160156 L 13.5 59.769531 L 13.089844 59.371094 L 12.679688 58.960938 L 12.28125 58.550781 L 11.890625 58.140625 L 11.511719 57.710938 L 11.128906 57.28125 L 10.410156 56.398438 L 10.050781 55.949219 L 9.710938 55.488281 L 9.371094 55.03125 L 9.039063 54.558594 L 8.71875 54.078125 L 8.410156 53.601563 L 8.109375 53.121094 L 7.808594 52.628906 L 7.53125 52.128906 L 7.25 51.628906 L 6.980469 51.128906 L 6.71875 50.621094 L 6.46875 50.101563 L 6.230469 49.578125 L 5.988281 49.058594 L 5.769531 48.53125 L 5.550781 48 L 5.351563 47.46875 L 5.148438 46.929688 L 4.789063 45.851563 L 4.621094 45.300781 L 4.460938 44.75 L 4.320313 44.199219 L 4.179688 43.640625 L 4.050781 43.078125 L 3.929688 42.519531 L 3.820313 41.960938 L 3.71875 41.398438 L 3.628906 40.828125 L 3.550781 40.269531 L 3.480469 39.699219 L 3.421875 39.128906 L 3.371094 38.558594 L 3.328125 37.988281 L 3.300781 37.421875 L 3.28125 36.851563 L 3.269531 36.269531 L 3.269531 35.699219 L 3.28125 35.128906 L 3.300781 34.558594 L 3.328125 33.980469 L 3.429688 32.839844 L 3.488281 32.269531 L 3.558594 31.710938 L 3.640625 31.140625 L 3.730469 30.570313 L 3.828125 30.011719 L 3.929688 29.449219 L 4.050781 28.890625 L 4.179688 28.328125 L 4.320313 27.78125 L 4.46875 27.21875 L 4.628906 26.671875 L 4.800781 26.128906 L 4.96875 25.578125 L 5.160156 25.039063 L 5.359375 24.5 L 5.558594 23.96875 L 5.78125 23.441406 L 6 22.910156 L 6.238281 22.390625 L 6.480469 21.871094 L 6.730469 21.359375 L 6.988281 20.851563 L 7.261719 20.339844 L 7.539063 19.839844 L 7.828125 19.351563 L 8.121094 18.859375 L 8.421875 18.371094 L 8.738281 17.890625 L 9.058594 17.421875 L 9.390625 16.949219 L 9.71875 16.488281 L 10.070313 16.03125 L 10.421875 15.578125 L 10.78125 15.140625 L 36 36 L 36 3.269531 "/>
</g>
</svg>
