<?xml version="1.0" encoding="UTF-8"?>
<svg xmlns="http://www.w3.org/2000/svg" xmlns:xlink="http://www.w3.org/1999/xlink" width="72pt" height="72pt" viewBox="0 0 72 72" version="1.1">
<g id="surface571">
<path style="fill:none;stroke-width:1.07;stroke-linecap:round;stroke-linejoin:round;stroke:rgb(0%,0%,0%);stroke-opacity:1;stroke-miterlimit:10;" d="M 36 3.269531 L 36.578125 3.28125 L 37.160156 3.289063 L 37.75 3.320313 L 38.328125 3.359375 L 38.910156 3.398438 L 39.488281 3.460938 L 40.058594 3.53125 L 40.640625 3.601563 L 41.21875 3.691406 L 41.789063 3.789063 L 42.359375 3.898438 L 43.5 4.140625 L 44.058594 4.28125 L 44.628906 4.429688 L 45.191406 4.589844 L 45.738281 4.761719 L 46.300781 4.941406 L 46.851563 5.121094 L 47.398438 5.320313 L 47.941406 5.53125 L 49.019531 5.96875 L 49.550781 6.210938 L 50.070313 6.449219 L 50.601563 6.710938 L 51.121094 6.96875 L 51.628906 7.25 L 52.140625 7.53125 L 52.640625 7.820313 L 53.140625 8.121094 L 53.628906 8.429688 L 54.121094 8.75 L 54.601563 9.070313 L 55.078125 9.410156 L 55.550781 9.75 L 56.011719 10.101563 L 56.46875 10.460938 L 56.921875 10.828125 L 57.371094 11.210938 L 57.800781 11.589844 L 58.230469 11.980469 L 58.660156 12.378906 L 59.480469 13.199219 L 59.878906 13.621094 L 60.28125 14.050781 L 60.660156 14.488281 L 61.039063 14.929688 L 61.78125 15.828125 L 62.128906 16.300781 L 62.480469 16.761719 L 36 36 L 36 3.269531 "/>
</g>
</svg>
