<?xml version="1.0" encoding="UTF-8"?>
<svg xmlns="http://www.w3.org/2000/svg" xmlns:xlink="http://www.w3.org/1999/xlink" width="72pt" height="72pt" viewBox="0 0 72 72" version="1.1">
<g id="surface786">
<path style="fill:none;stroke-width:1.07;stroke-linecap:round;stroke-linejoin:round;stroke:rgb(0%,0%,0%);stroke-opacity:1;stroke-miterlimit:10;" d="M 36 3.269531 L 36.570313 3.28125 L 37.148438 3.289063 L 38.289063 3.351563 L 38.859375 3.398438 L 39.429688 3.449219 L 40.570313 3.589844 L 41.140625 3.679688 L 41.699219 3.769531 L 42.269531 3.878906 L 42.828125 3.988281 L 43.390625 4.121094 L 43.949219 4.25 L 44.5 4.398438 L 45.050781 4.550781 L 45.601563 4.710938 L 46.148438 4.890625 L 46.691406 5.070313 L 47.230469 5.261719 L 47.769531 5.460938 L 48.300781 5.671875 L 48.828125 5.890625 L 49.359375 6.121094 L 49.878906 6.359375 L 50.398438 6.609375 L 50.910156 6.871094 L 51.421875 7.128906 L 52.421875 7.691406 L 52.910156 7.980469 L 53.398438 8.28125 L 53.890625 8.589844 L 54.359375 8.910156 L 54.828125 9.238281 L 55.300781 9.570313 L 55.761719 9.910156 L 56.210938 10.261719 L 56.660156 10.621094 L 57.101563 10.988281 L 57.539063 11.359375 L 57.96875 11.738281 L 58.390625 12.128906 L 58.800781 12.53125 L 59.210938 12.929688 L 59.609375 13.339844 L 60.011719 13.761719 L 60.390625 14.179688 L 60.769531 14.609375 L 61.140625 15.050781 L 61.5 15.488281 L 61.859375 15.941406 L 62.210938 16.398438 L 62.550781 16.859375 L 62.878906 17.328125 L 63.199219 17.800781 L 63.519531 18.28125 L 63.820313 18.769531 L 64.121094 19.261719 L 64.410156 19.75 L 64.691406 20.25 L 64.960938 20.761719 L 65.21875 21.269531 L 65.480469 21.78125 L 65.71875 22.300781 L 65.960938 22.820313 L 66.179688 23.351563 L 66.398438 23.878906 L 66.609375 24.410156 L 66.808594 24.949219 L 67.171875 26.039063 L 67.339844 26.578125 L 67.5 27.140625 L 67.648438 27.691406 L 67.800781 28.238281 L 67.929688 28.800781 L 68.050781 29.359375 L 68.160156 29.929688 L 68.261719 30.488281 L 68.351563 31.058594 L 68.429688 31.621094 L 68.511719 32.191406 L 68.570313 32.761719 L 68.621094 33.328125 L 68.660156 33.910156 L 68.691406 34.480469 L 68.730469 35.621094 L 68.730469 36.199219 L 68.71875 36.769531 L 68.699219 37.339844 L 68.671875 37.921875 L 68.628906 38.488281 L 68.578125 39.058594 L 68.53125 39.628906 L 68.460938 40.199219 L 68.378906 40.769531 L 68.289063 41.328125 L 68.191406 41.898438 L 68.078125 42.460938 L 67.960938 43.019531 L 67.839844 43.578125 L 67.699219 44.140625 L 67.550781 44.691406 L 67.390625 45.238281 L 67.230469 45.789063 L 67.050781 46.339844 L 66.871094 46.878906 L 66.671875 47.421875 L 66.46875 47.960938 L 66.25 48.488281 L 66.03125 49.019531 L 65.800781 49.539063 L 65.300781 50.578125 L 65.039063 51.089844 L 64.5 52.089844 L 64.210938 52.589844 L 63.910156 53.078125 L 63.609375 53.570313 L 63.300781 54.050781 L 62.980469 54.53125 L 62.648438 55 L 61.96875 55.921875 L 61.621094 56.371094 L 61.25 56.820313 L 60.890625 57.25 L 60.511719 57.691406 L 60.128906 58.109375 L 59.730469 58.53125 L 59.339844 58.949219 L 58.929688 59.351563 L 58.519531 59.75 L 58.101563 60.140625 L 57.671875 60.519531 L 57.238281 60.898438 L 56.800781 61.269531 L 56.351563 61.628906 L 55.898438 61.980469 L 55.441406 62.328125 L 54.980469 62.660156 L 54.511719 62.988281 L 54.03125 63.308594 L 53.550781 63.621094 L 53.070313 63.929688 L 52.570313 64.21875 L 52.078125 64.511719 L 51.578125 64.78125 L 51.070313 65.050781 L 50.558594 65.308594 L 50.039063 65.558594 L 49.519531 65.800781 L 49 66.039063 L 48.46875 66.261719 L 47.941406 66.46875 L 47.398438 66.679688 L 46.859375 66.871094 L 46.320313 67.058594 L 45.769531 67.230469 L 45.230469 67.398438 L 44.671875 67.558594 L 44.121094 67.699219 L 43.558594 67.839844 L 43 67.96875 L 42.441406 68.089844 L 41.878906 68.191406 L 41.308594 68.289063 L 40.75 68.378906 L 40.179688 68.460938 L 39.609375 68.53125 L 39.039063 68.589844 L 38.46875 68.628906 L 37.898438 68.671875 L 37.320313 68.699219 L 36.75 68.71875 L 36.179688 68.730469 L 35.601563 68.71875 L 35.03125 68.710938 L 34.460938 68.691406 L 33.890625 68.660156 L 33.308594 68.621094 L 32.738281 68.558594 L 32.171875 68.5 L 31.601563 68.429688 L 31.039063 68.351563 L 30.46875 68.261719 L 29.910156 68.148438 L 29.339844 68.039063 L 28.78125 67.921875 L 28.230469 67.789063 L 27.671875 67.648438 L 27.121094 67.5 L 26.570313 67.339844 L 26.019531 67.171875 L 25.46875 66.988281 L 24.929688 66.800781 L 24.390625 66.601563 L 23.328125 66.179688 L 22.800781 65.949219 L 22.28125 65.710938 L 21.761719 65.46875 L 21.25 65.210938 L 20.738281 64.949219 L 20.230469 64.679688 L 36 36 L 36 3.269531 "/>
</g>
</svg>
