<?xml version="1.0" encoding="UTF-8"?>
<svg xmlns="http://www.w3.org/2000/svg" xmlns:xlink="http://www.w3.org/1999/xlink" width="72pt" height="72pt" viewBox="0 0 72 72" version="1.1">
<g id="surface821">
<path style="fill:none;stroke-width:1.07;stroke-linecap:round;stroke-linejoin:round;stroke:rgb(0%,0%,0%);stroke-opacity:1;stroke-miterlimit:10;" d="M 36 3.269531 L 36.570313 3.28125 L 37.148438 3.289063 L 38.289063 3.351563 L 38.859375 3.398438 L 39.441406 3.449219 L 40.011719 3.519531 L 40.570313 3.589844 L 41.710938 3.769531 L 42.828125 3.988281 L 43.390625 4.121094 L 43.949219 4.25 L 44.511719 4.398438 L 45.058594 4.550781 L 45.609375 4.710938 L 46.160156 4.890625 L 46.699219 5.070313 L 47.238281 5.261719 L 47.78125 5.460938 L 48.308594 5.679688 L 48.839844 5.898438 L 49.371094 6.128906 L 49.890625 6.359375 L 50.398438 6.609375 L 50.921875 6.871094 L 51.429688 7.140625 L 51.929688 7.410156 L 52.429688 7.691406 L 52.921875 7.988281 L 53.410156 8.289063 L 53.890625 8.601563 L 54.371094 8.910156 L 54.839844 9.238281 L 55.308594 9.578125 L 55.769531 9.921875 L 56.21875 10.269531 L 56.671875 10.628906 L 57.109375 10.988281 L 57.550781 11.371094 L 57.980469 11.75 L 58.398438 12.140625 L 58.808594 12.53125 L 59.21875 12.941406 L 59.621094 13.351563 L 60.011719 13.761719 L 60.398438 14.191406 L 60.78125 14.621094 L 61.148438 15.058594 L 61.511719 15.5 L 61.871094 15.949219 L 62.21875 16.410156 L 62.550781 16.871094 L 62.890625 17.339844 L 63.210938 17.808594 L 63.519531 18.289063 L 63.828125 18.78125 L 64.128906 19.269531 L 64.421875 19.761719 L 64.699219 20.261719 L 64.96875 20.769531 L 65.230469 21.28125 L 65.480469 21.789063 L 65.730469 22.308594 L 65.960938 22.839844 L 66.191406 23.359375 L 66.410156 23.890625 L 66.808594 24.96875 L 67 25.511719 L 67.179688 26.050781 L 67.351563 26.601563 L 67.511719 27.148438 L 67.660156 27.710938 L 67.800781 28.261719 L 67.929688 28.820313 L 68.050781 29.378906 L 68.160156 29.949219 L 68.261719 30.511719 L 68.351563 31.078125 L 68.441406 31.640625 L 68.511719 32.210938 L 68.570313 32.78125 L 68.621094 33.359375 L 68.660156 33.929688 L 68.691406 34.5 L 68.710938 35.070313 L 68.730469 35.648438 L 68.730469 36.21875 L 68.71875 36.789063 L 68.699219 37.371094 L 68.671875 37.941406 L 68.628906 38.511719 L 68.578125 39.078125 L 68.519531 39.648438 L 68.449219 40.21875 L 68.371094 40.789063 L 68.289063 41.359375 L 68.191406 41.921875 L 68.078125 42.488281 L 67.960938 43.050781 L 67.828125 43.609375 L 67.691406 44.160156 L 67.539063 44.71875 L 67.390625 45.269531 L 67.21875 45.820313 L 67.039063 46.359375 L 66.859375 46.910156 L 66.660156 47.449219 L 66.238281 48.511719 L 66.019531 49.039063 L 65.78125 49.570313 L 65.539063 50.089844 L 65.289063 50.601563 L 65.03125 51.109375 L 64.761719 51.621094 L 64.480469 52.121094 L 64.191406 52.621094 L 63.898438 53.109375 L 63.589844 53.601563 L 63.28125 54.078125 L 62.960938 54.550781 L 62.628906 55.019531 L 62.289063 55.488281 L 61.949219 55.941406 L 61.601563 56.398438 L 60.859375 57.28125 L 60.488281 57.710938 L 60.101563 58.140625 L 59.710938 58.558594 L 59.308594 58.96875 L 58.910156 59.371094 L 58.488281 59.769531 L 58.070313 60.160156 L 57.648438 60.550781 L 57.210938 60.921875 L 56.769531 61.289063 L 56.328125 61.648438 L 55.871094 62 L 55.410156 62.351563 L 54.949219 62.679688 L 54.480469 63.011719 L 54 63.328125 L 53.519531 63.640625 L 53.03125 63.941406 L 52.539063 64.238281 L 51.539063 64.800781 L 51.03125 65.070313 L 50.519531 65.328125 L 50.011719 65.578125 L 49.488281 65.820313 L 48.960938 66.050781 L 47.898438 66.488281 L 47.359375 66.691406 L 46.820313 66.890625 L 46.28125 67.070313 L 45.730469 67.25 L 45.191406 67.410156 L 44.628906 67.570313 L 44.078125 67.710938 L 43.519531 67.851563 L 42.960938 67.980469 L 42.398438 68.101563 L 41.839844 68.199219 L 41.269531 68.300781 L 40.710938 68.390625 L 39.570313 68.53125 L 39 68.589844 L 38.421875 68.640625 L 37.851563 68.671875 L 37.28125 68.699219 L 36.710938 68.71875 L 36.128906 68.730469 L 35.558594 68.71875 L 34.988281 68.710938 L 34.410156 68.691406 L 33.839844 68.660156 L 32.699219 68.558594 L 32.128906 68.5 L 31.558594 68.421875 L 30.988281 68.339844 L 30.421875 68.25 L 29.859375 68.148438 L 29.300781 68.03125 L 28.738281 67.910156 L 28.179688 67.78125 L 27.621094 67.640625 L 27.070313 67.488281 L 26.519531 67.320313 L 25.96875 67.148438 L 25.429688 66.96875 L 24.878906 66.78125 L 24.351563 66.578125 L 23.808594 66.371094 L 23.28125 66.160156 L 22.761719 65.929688 L 22.230469 65.691406 L 21.71875 65.449219 L 21.199219 65.191406 L 20.691406 64.929688 L 20.191406 64.648438 L 19.691406 64.371094 L 19.191406 64.078125 L 18.699219 63.78125 L 18.21875 63.480469 L 17.738281 63.160156 L 17.269531 62.839844 L 16.800781 62.5 L 16.339844 62.160156 L 15.878906 61.808594 L 15.429688 61.460938 L 14.988281 61.089844 L 14.550781 60.71875 L 14.121094 60.339844 L 13.699219 59.949219 L 13.28125 59.558594 L 12.871094 59.160156 L 12.46875 58.75 L 12.078125 58.328125 L 11.691406 57.910156 L 11.308594 57.480469 L 10.941406 57.039063 L 10.570313 56.601563 L 10.210938 56.148438 L 9.859375 55.699219 L 9.519531 55.238281 L 36 36 L 36 3.269531 "/>
</g>
</svg>
