<?xml version="1.0" encoding="UTF-8"?>
<svg xmlns="http://www.w3.org/2000/svg" xmlns:xlink="http://www.w3.org/1999/xlink" width="72pt" height="72pt" viewBox="0 0 72 72" version="1.1">
<g id="surface916">
<path style="fill:none;stroke-width:1.07;stroke-linecap:round;stroke-linejoin:round;stroke:rgb(0%,0%,0%);stroke-opacity:1;stroke-miterlimit:10;" d="M 36 3.269531 L 36.570313 3.28125 L 37.140625 3.289063 L 37.71875 3.320313 L 38.289063 3.351563 L 38.859375 3.398438 L 39.429688 3.449219 L 39.988281 3.519531 L 40.558594 3.589844 L 41.128906 3.679688 L 41.691406 3.769531 L 42.808594 3.988281 L 43.371094 4.109375 L 43.929688 4.25 L 44.480469 4.390625 L 45.03125 4.539063 L 45.578125 4.710938 L 46.128906 4.878906 L 46.671875 5.058594 L 47.210938 5.25 L 47.738281 5.449219 L 48.28125 5.660156 L 48.800781 5.878906 L 49.328125 6.109375 L 49.851563 6.351563 L 50.359375 6.589844 L 50.878906 6.851563 L 51.378906 7.109375 L 51.890625 7.390625 L 52.378906 7.671875 L 52.878906 7.960938 L 53.359375 8.261719 L 53.851563 8.570313 L 54.320313 8.878906 L 54.789063 9.210938 L 55.261719 9.539063 L 55.71875 9.878906 L 56.171875 10.230469 L 56.621094 10.578125 L 57.058594 10.949219 L 57.488281 11.320313 L 57.921875 11.699219 L 58.339844 12.089844 L 58.761719 12.480469 L 59.171875 12.878906 L 59.570313 13.289063 L 59.960938 13.710938 L 60.351563 14.128906 L 60.71875 14.558594 L 61.089844 14.988281 L 61.460938 15.429688 L 61.808594 15.878906 L 62.160156 16.339844 L 62.5 16.800781 L 62.828125 17.261719 L 63.160156 17.730469 L 63.46875 18.210938 L 63.78125 18.691406 L 64.078125 19.179688 L 64.371094 19.679688 L 64.648438 20.171875 L 64.921875 20.679688 L 65.179688 21.179688 L 65.441406 21.699219 L 65.679688 22.210938 L 65.921875 22.730469 L 66.148438 23.261719 L 66.359375 23.789063 L 66.570313 24.320313 L 66.769531 24.859375 L 66.960938 25.398438 L 67.140625 25.941406 L 67.308594 26.480469 L 67.46875 27.03125 L 67.628906 27.578125 L 67.769531 28.140625 L 67.898438 28.691406 L 68.140625 29.808594 L 68.238281 30.378906 L 68.328125 30.941406 L 68.421875 31.511719 L 68.488281 32.070313 L 68.550781 32.640625 L 68.609375 33.210938 L 68.648438 33.78125 L 68.691406 34.351563 L 68.710938 34.921875 L 68.71875 35.5 L 68.730469 36.070313 L 68.71875 36.640625 L 68.679688 37.78125 L 68.601563 38.921875 L 68.539063 39.488281 L 68.398438 40.628906 L 68.308594 41.191406 L 68.21875 41.761719 L 68 42.878906 L 67.871094 43.441406 L 67.738281 43.988281 L 67.589844 44.550781 L 67.441406 45.101563 L 67.269531 45.648438 L 67.101563 46.191406 L 66.921875 46.730469 L 66.730469 47.269531 L 66.519531 47.808594 L 66.308594 48.339844 L 66.089844 48.871094 L 65.859375 49.390625 L 65.621094 49.910156 L 65.378906 50.429688 L 65.121094 50.941406 L 64.851563 51.441406 L 64.578125 51.949219 L 64.300781 52.441406 L 64.011719 52.929688 L 63.710938 53.421875 L 63.398438 53.898438 L 63.078125 54.378906 L 62.75 54.851563 L 62.421875 55.308594 L 62.078125 55.769531 L 61.730469 56.230469 L 61.371094 56.671875 L 61.011719 57.109375 L 60.628906 57.550781 L 60.25 57.96875 L 59.871094 58.390625 L 59.46875 58.808594 L 59.070313 59.210938 L 58.660156 59.609375 L 58.238281 60.011719 L 57.820313 60.390625 L 57.390625 60.769531 L 56.960938 61.140625 L 56.511719 61.5 L 56.058594 61.859375 L 55.609375 62.199219 L 55.148438 62.539063 L 54.679688 62.871094 L 54.210938 63.191406 L 53.730469 63.511719 L 53.25 63.808594 L 52.761719 64.109375 L 52.269531 64.398438 L 51.769531 64.679688 L 51.261719 64.949219 L 50.75 65.210938 L 50.238281 65.46875 L 49.71875 65.710938 L 49.199219 65.949219 L 48.679688 66.171875 L 48.148438 66.390625 L 47.621094 66.601563 L 47.078125 66.789063 L 46.539063 66.980469 L 46 67.160156 L 45.449219 67.328125 L 44.898438 67.488281 L 44.351563 67.640625 L 43.800781 67.789063 L 43.238281 67.921875 L 42.679688 68.039063 L 42.121094 68.148438 L 41.558594 68.25 L 40.988281 68.339844 L 40.429688 68.429688 L 39.859375 68.5 L 39.289063 68.558594 L 38.148438 68.660156 L 37.578125 68.691406 L 37.011719 68.710938 L 36.441406 68.71875 L 35.859375 68.730469 L 35.289063 68.71875 L 34.71875 68.699219 L 34.148438 68.671875 L 33.578125 68.640625 L 33.011719 68.589844 L 32.441406 68.53125 L 31.871094 68.46875 L 31.300781 68.390625 L 30.738281 68.300781 L 30.179688 68.199219 L 29.609375 68.101563 L 29.050781 67.980469 L 28.5 67.859375 L 27.941406 67.71875 L 26.839844 67.421875 L 25.738281 67.078125 L 25.199219 66.890625 L 24.660156 66.699219 L 24.128906 66.5 L 23.601563 66.289063 L 23.070313 66.070313 L 22.550781 65.828125 L 22.03125 65.601563 L 21.511719 65.351563 L 21 65.089844 L 20 64.550781 L 19.5 64.261719 L 19.011719 63.96875 L 18.519531 63.671875 L 18.039063 63.359375 L 17.570313 63.039063 L 17.101563 62.710938 L 16.628906 62.378906 L 16.171875 62.039063 L 15.71875 61.691406 L 15.28125 61.328125 L 14.839844 60.960938 L 14.398438 60.589844 L 13.980469 60.210938 L 13.558594 59.820313 L 13.140625 59.421875 L 12.738281 59.019531 L 12.339844 58.609375 L 11.949219 58.191406 L 11.558594 57.769531 L 11.191406 57.339844 L 10.820313 56.898438 L 10.460938 56.460938 L 10.101563 56.011719 L 9.421875 55.089844 L 9.089844 54.628906 L 8.769531 54.148438 L 8.460938 53.671875 L 8.148438 53.191406 L 7.851563 52.699219 L 7.570313 52.210938 L 7.289063 51.710938 L 7.019531 51.199219 L 6.761719 50.691406 L 6.5 50.179688 L 6.261719 49.660156 L 5.800781 48.621094 L 5.589844 48.089844 L 5.378906 47.550781 L 5.179688 47.019531 L 4.988281 46.480469 L 4.820313 45.929688 L 4.648438 45.390625 L 4.488281 44.839844 L 4.339844 44.28125 L 4.199219 43.730469 L 4.070313 43.171875 L 3.949219 42.609375 L 3.839844 42.050781 L 3.738281 41.488281 L 3.648438 40.921875 L 3.558594 40.359375 L 3.488281 39.789063 L 3.429688 39.21875 L 3.378906 38.648438 L 3.339844 38.078125 L 3.308594 37.511719 L 3.269531 36.371094 L 3.269531 35.800781 L 3.28125 35.21875 L 3.300781 34.648438 L 3.328125 34.078125 L 3.371094 33.511719 L 3.421875 32.941406 L 3.46875 32.371094 L 3.539063 31.800781 L 3.621094 31.238281 L 3.710938 30.671875 L 3.808594 30.109375 L 3.921875 29.550781 L 4.03125 28.988281 L 4.160156 28.429688 L 4.300781 27.871094 L 4.441406 27.320313 L 4.601563 26.769531 L 4.769531 26.21875 L 4.941406 25.679688 L 5.128906 25.140625 L 5.320313 24.601563 L 5.53125 24.070313 L 5.738281 23.539063 L 5.960938 23.011719 L 6.191406 22.488281 L 6.429688 21.96875 L 6.679688 21.449219 L 6.941406 20.941406 L 7.210938 20.441406 L 7.488281 19.941406 L 7.769531 19.441406 L 8.070313 18.949219 L 8.371094 18.460938 L 36 36 L 36 3.269531 "/>
</g>
</svg>
