<?xml version="1.0" encoding="UTF-8"?>
<svg xmlns="http://www.w3.org/2000/svg" xmlns:xlink="http://www.w3.org/1999/xlink" width="72pt" height="72pt" viewBox="0 0 72 72" version="1.1">
<g id="surface621">
<path style="fill:none;stroke-width:1.07;stroke-linecap:round;stroke-linejoin:round;stroke:rgb(0%,0%,0%);stroke-opacity:1;stroke-miterlimit:10;" d="M 36 3.269531 L 36.578125 3.28125 L 37.148438 3.289063 L 37.730469 3.320313 L 38.308594 3.351563 L 38.878906 3.398438 L 39.460938 3.460938 L 40.03125 3.519531 L 40.609375 3.601563 L 41.179688 3.679688 L 41.75 3.78125 L 42.308594 3.890625 L 42.878906 4 L 43.441406 4.128906 L 44.558594 4.410156 L 45.121094 4.570313 L 45.671875 4.730469 L 46.21875 4.910156 L 46.769531 5.101563 L 47.308594 5.289063 L 47.851563 5.5 L 48.390625 5.710938 L 48.921875 5.929688 L 49.449219 6.171875 L 49.980469 6.410156 L 50.5 6.660156 L 51.011719 6.921875 L 51.519531 7.191406 L 52.03125 7.46875 L 52.53125 7.75 L 53.03125 8.050781 L 53.519531 8.359375 L 54 8.671875 L 54.480469 8.988281 L 54.960938 9.320313 L 55.421875 9.660156 L 55.878906 10.011719 L 56.339844 10.359375 L 56.789063 10.71875 L 57.230469 11.101563 L 57.671875 11.46875 L 58.101563 11.859375 L 58.519531 12.25 L 58.941406 12.660156 L 59.339844 13.058594 L 59.75 13.480469 L 60.140625 13.898438 L 60.53125 14.328125 L 60.898438 14.769531 L 61.28125 15.210938 L 61.640625 15.660156 L 61.988281 16.121094 L 62.339844 16.578125 L 62.679688 17.039063 L 63.011719 17.519531 L 63.328125 18 L 63.640625 18.480469 L 63.949219 18.96875 L 64.25 19.46875 L 64.53125 19.96875 L 64.808594 20.480469 L 65.078125 20.988281 L 65.339844 21.5 L 65.589844 22.019531 L 65.828125 22.550781 L 66.070313 23.078125 L 66.289063 23.609375 L 66.5 24.148438 L 66.710938 24.691406 L 66.898438 25.230469 L 67.089844 25.78125 L 67.269531 26.328125 L 67.429688 26.878906 L 67.589844 27.441406 L 67.871094 28.558594 L 68 29.121094 L 68.109375 29.691406 L 68.21875 30.25 L 68.320313 30.820313 L 68.398438 31.390625 L 68.480469 31.96875 L 68.539063 32.539063 L 68.601563 33.121094 L 68.648438 33.691406 L 68.679688 34.269531 L 68.710938 34.851563 L 68.71875 35.421875 L 68.730469 36 L 36 36 L 36 3.269531 "/>
</g>
</svg>
