<?xml version="1.0" encoding="UTF-8"?>
<svg xmlns="http://www.w3.org/2000/svg" xmlns:xlink="http://www.w3.org/1999/xlink" width="72pt" height="72pt" viewBox="0 0 72 72" version="1.1">
<g id="surface651">
<path style="fill:none;stroke-width:1.07;stroke-linecap:round;stroke-linejoin:round;stroke:rgb(0%,0%,0%);stroke-opacity:1;stroke-miterlimit:10;" d="M 36 3.269531 L 36.570313 3.28125 L 37.148438 3.289063 L 37.71875 3.320313 L 38.300781 3.351563 L 38.871094 3.398438 L 39.441406 3.449219 L 40.011719 3.519531 L 40.578125 3.589844 L 41.148438 3.679688 L 41.710938 3.78125 L 42.28125 3.878906 L 43.398438 4.121094 L 43.960938 4.261719 L 44.519531 4.398438 L 45.070313 4.550781 L 45.621094 4.71875 L 46.171875 4.890625 L 46.710938 5.070313 L 47.789063 5.46875 L 48.320313 5.679688 L 48.851563 5.898438 L 49.378906 6.128906 L 49.898438 6.371094 L 50.421875 6.621094 L 50.929688 6.878906 L 51.441406 7.140625 L 51.941406 7.421875 L 52.441406 7.699219 L 52.941406 8 L 53.429688 8.300781 L 53.910156 8.609375 L 54.390625 8.929688 L 54.859375 9.25 L 55.328125 9.589844 L 55.789063 9.929688 L 56.238281 10.28125 L 56.691406 10.640625 L 57.128906 11.011719 L 57.570313 11.378906 L 58 11.769531 L 58.421875 12.160156 L 58.828125 12.550781 L 59.238281 12.960938 L 59.640625 13.371094 L 60.03125 13.789063 L 60.421875 14.210938 L 60.800781 14.640625 L 61.171875 15.078125 L 61.53125 15.53125 L 61.890625 15.980469 L 62.238281 16.441406 L 62.570313 16.898438 L 62.910156 17.371094 L 63.230469 17.839844 L 63.539063 18.320313 L 63.851563 18.808594 L 64.148438 19.300781 L 64.710938 20.300781 L 64.988281 20.800781 L 65.25 21.320313 L 65.5 21.828125 L 65.75 22.351563 L 65.980469 22.878906 L 66.210938 23.398438 L 66.421875 23.941406 L 66.628906 24.46875 L 66.828125 25.011719 L 67.011719 25.550781 L 67.191406 26.101563 L 67.359375 26.648438 L 67.519531 27.199219 L 67.671875 27.75 L 67.808594 28.308594 L 67.941406 28.871094 L 68.058594 29.429688 L 68.171875 29.988281 L 68.269531 30.558594 L 68.359375 31.128906 L 68.441406 31.699219 L 68.511719 32.269531 L 68.570313 32.839844 L 68.621094 33.410156 L 68.660156 33.980469 L 68.699219 34.558594 L 68.71875 35.128906 L 68.730469 35.699219 L 68.730469 36.28125 L 68.71875 36.851563 L 68.699219 37.429688 L 68.671875 38 L 68.628906 38.570313 L 68.578125 39.140625 L 68.519531 39.71875 L 68.449219 40.289063 L 68.371094 40.851563 L 68.28125 41.421875 L 68.179688 41.988281 L 68.070313 42.550781 L 67.949219 43.109375 L 67.820313 43.671875 L 67.679688 44.230469 L 67.53125 44.78125 L 67.371094 45.339844 L 67.199219 45.878906 L 67.019531 46.429688 L 66.828125 46.96875 L 66.640625 47.511719 L 66.429688 48.050781 L 36 36 L 36 3.269531 "/>
</g>
</svg>
