<?xml version="1.0" encoding="UTF-8"?>
<svg xmlns="http://www.w3.org/2000/svg" xmlns:xlink="http://www.w3.org/1999/xlink" width="72pt" height="72pt" viewBox="0 0 72 72" version="1.1">
<g id="surface796">
<path style="fill:none;stroke-width:1.07;stroke-linecap:round;stroke-linejoin:round;stroke:rgb(0%,0%,0%);stroke-opacity:1;stroke-miterlimit:10;" d="M 36 3.269531 L 36.570313 3.28125 L 37.148438 3.289063 L 38.289063 3.351563 L 38.871094 3.398438 L 39.441406 3.449219 L 40.011719 3.519531 L 40.578125 3.589844 L 41.140625 3.679688 L 41.710938 3.769531 L 42.269531 3.878906 L 42.839844 3.988281 L 43.398438 4.121094 L 43.949219 4.25 L 44.511719 4.398438 L 45.058594 4.550781 L 45.609375 4.71875 L 46.160156 4.890625 L 46.699219 5.070313 L 47.238281 5.261719 L 47.78125 5.46875 L 48.308594 5.679688 L 48.839844 5.898438 L 49.371094 6.128906 L 49.890625 6.371094 L 50.410156 6.621094 L 50.921875 6.871094 L 51.429688 7.140625 L 51.929688 7.410156 L 52.929688 7.988281 L 53.410156 8.289063 L 53.898438 8.601563 L 54.378906 8.921875 L 54.851563 9.238281 L 55.308594 9.578125 L 55.769531 9.921875 L 56.230469 10.269531 L 56.679688 10.628906 L 57.121094 11 L 57.550781 11.371094 L 57.980469 11.75 L 58.398438 12.140625 L 58.820313 12.539063 L 59.230469 12.941406 L 59.628906 13.351563 L 60.019531 13.769531 L 60.410156 14.199219 L 60.78125 14.628906 L 61.160156 15.070313 L 61.519531 15.511719 L 61.871094 15.960938 L 62.21875 16.421875 L 62.558594 16.878906 L 62.890625 17.351563 L 63.21875 17.820313 L 63.53125 18.300781 L 63.839844 18.789063 L 64.128906 19.28125 L 64.421875 19.769531 L 64.699219 20.28125 L 64.96875 20.78125 L 65.238281 21.289063 L 65.488281 21.808594 L 65.730469 22.328125 L 65.96875 22.851563 L 66.191406 23.378906 L 66.410156 23.910156 L 66.621094 24.441406 L 66.820313 24.980469 L 67.011719 25.519531 L 67.179688 26.070313 L 67.351563 26.621094 L 67.511719 27.171875 L 67.660156 27.71875 L 67.800781 28.28125 L 67.929688 28.839844 L 68.050781 29.398438 L 68.171875 29.960938 L 68.269531 30.53125 L 68.359375 31.089844 L 68.441406 31.660156 L 68.511719 32.230469 L 68.570313 32.800781 L 68.621094 33.371094 L 68.660156 33.949219 L 68.691406 34.519531 L 68.710938 35.089844 L 68.730469 35.671875 L 68.730469 36.238281 L 68.71875 36.808594 L 68.699219 37.390625 L 68.671875 37.960938 L 68.628906 38.53125 L 68.578125 39.101563 L 68.519531 39.671875 L 68.449219 40.238281 L 68.371094 40.808594 L 68.28125 41.378906 L 68.179688 41.941406 L 68.070313 42.511719 L 67.828125 43.628906 L 67.691406 44.191406 L 67.539063 44.738281 L 67.378906 45.289063 L 67.210938 45.839844 L 67.039063 46.390625 L 66.851563 46.929688 L 66.648438 47.46875 L 66.449219 48 L 66.230469 48.539063 L 66.011719 49.058594 L 65.769531 49.589844 L 65.53125 50.109375 L 65.28125 50.621094 L 65.019531 51.128906 L 64.75 51.640625 L 64.46875 52.140625 L 64.179688 52.640625 L 63.890625 53.128906 L 63.578125 53.621094 L 63.269531 54.101563 L 62.949219 54.570313 L 62.621094 55.039063 L 62.28125 55.511719 L 61.929688 55.960938 L 61.578125 56.421875 L 61.21875 56.859375 L 60.851563 57.300781 L 60.46875 57.730469 L 60.089844 58.160156 L 59.691406 58.578125 L 59.289063 58.988281 L 58.890625 59.390625 L 58.46875 59.789063 L 58.050781 60.179688 L 57.621094 60.558594 L 57.191406 60.941406 L 56.75 61.308594 L 56.300781 61.671875 L 55.851563 62.019531 L 54.929688 62.699219 L 54.449219 63.03125 L 53.980469 63.351563 L 53.5 63.660156 L 53.011719 63.960938 L 52.519531 64.25 L 52.019531 64.539063 L 51.511719 64.820313 L 51.011719 65.078125 L 50.488281 65.339844 L 49.980469 65.589844 L 49.460938 65.828125 L 48.398438 66.289063 L 47.871094 66.5 L 47.328125 66.699219 L 46.789063 66.898438 L 45.699219 67.261719 L 45.148438 67.421875 L 44.601563 67.578125 L 44.050781 67.71875 L 43.488281 67.859375 L 42.929688 67.988281 L 42.371094 68.101563 L 41.800781 68.210938 L 41.238281 68.308594 L 40.671875 68.390625 L 40.101563 68.46875 L 39.53125 68.539063 L 38.390625 68.640625 L 37.820313 68.679688 L 37.238281 68.699219 L 36.671875 68.71875 L 36.101563 68.730469 L 35.519531 68.71875 L 34.949219 68.710938 L 34.371094 68.691406 L 33.800781 68.648438 L 33.230469 68.609375 L 32.660156 68.558594 L 32.089844 68.488281 L 31.519531 68.421875 L 30.949219 68.339844 L 30.390625 68.238281 L 29.820313 68.140625 L 29.261719 68.03125 L 28.699219 67.898438 L 28.140625 67.769531 L 27.578125 67.628906 L 27.03125 67.46875 L 26.480469 67.308594 L 25.929688 67.140625 L 25.390625 66.960938 L 24.851563 66.769531 L 24.308594 66.570313 L 23.769531 66.359375 L 23.238281 66.140625 L 22.71875 65.910156 L 22.199219 65.671875 L 21.679688 65.429688 L 21.160156 65.171875 L 20.648438 64.910156 L 20.148438 64.628906 L 19.648438 64.351563 L 19.160156 64.058594 L 18.671875 63.761719 L 18.179688 63.449219 L 17.699219 63.140625 L 17.230469 62.808594 L 16.761719 62.480469 L 36 36 L 36 3.269531 "/>
</g>
</svg>
