<?xml version="1.0" encoding="UTF-8"?>
<svg xmlns="http://www.w3.org/2000/svg" xmlns:xlink="http://www.w3.org/1999/xlink" width="72pt" height="72pt" viewBox="0 0 72 72" version="1.1">
<g id="surface591">
<path style="fill:none;stroke-width:1.07;stroke-linecap:round;stroke-linejoin:round;stroke:rgb(0%,0%,0%);stroke-opacity:1;stroke-miterlimit:10;" d="M 36 3.269531 L 36.570313 3.28125 L 37.148438 3.289063 L 37.71875 3.320313 L 38.300781 3.351563 L 38.871094 3.398438 L 39.441406 3.449219 L 40.011719 3.519531 L 40.578125 3.589844 L 41.148438 3.679688 L 41.71875 3.78125 L 42.28125 3.878906 L 43.398438 4.121094 L 43.960938 4.261719 L 44.519531 4.398438 L 45.621094 4.71875 L 46.171875 4.890625 L 46.71875 5.078125 L 47.261719 5.269531 L 47.789063 5.46875 L 48.328125 5.679688 L 48.859375 5.898438 L 49.390625 6.140625 L 49.910156 6.371094 L 50.429688 6.621094 L 50.941406 6.878906 L 51.449219 7.148438 L 51.949219 7.421875 L 52.449219 7.710938 L 52.941406 8 L 53.429688 8.300781 L 53.921875 8.609375 L 54.398438 8.929688 L 54.871094 9.261719 L 55.328125 9.589844 L 55.789063 9.941406 L 56.25 10.289063 L 56.699219 10.648438 L 57.140625 11.019531 L 57.570313 11.390625 L 58 11.769531 L 58.429688 12.160156 L 58.839844 12.558594 L 59.25 12.96875 L 59.648438 13.378906 L 60.039063 13.800781 L 60.429688 14.21875 L 60.808594 14.648438 L 61.179688 15.089844 L 61.898438 15.988281 L 62.578125 16.910156 L 62.910156 17.378906 L 63.238281 17.859375 L 63.550781 18.339844 L 63.859375 18.820313 L 64.148438 19.308594 L 64.441406 19.808594 L 64.71875 20.308594 L 64.988281 20.820313 L 65.261719 21.328125 L 65.511719 21.851563 L 65.988281 22.890625 L 66.210938 23.421875 L 66.429688 23.949219 L 36 36 L 36 3.269531 "/>
</g>
</svg>
