<?xml version="1.0" encoding="UTF-8"?>
<svg xmlns="http://www.w3.org/2000/svg" xmlns:xlink="http://www.w3.org/1999/xlink" width="72pt" height="72pt" viewBox="0 0 72 72" version="1.1">
<g id="surface696">
<path style="fill:none;stroke-width:1.07;stroke-linecap:round;stroke-linejoin:round;stroke:rgb(0%,0%,0%);stroke-opacity:1;stroke-miterlimit:10;" d="M 36 3.269531 L 36.578125 3.28125 L 37.148438 3.289063 L 37.71875 3.320313 L 38.300781 3.351563 L 38.871094 3.398438 L 39.441406 3.449219 L 40.019531 3.519531 L 40.589844 3.601563 L 41.160156 3.679688 L 41.71875 3.78125 L 42.289063 3.878906 L 42.851563 4 L 43.410156 4.121094 L 43.96875 4.261719 L 44.53125 4.398438 L 45.078125 4.558594 L 45.628906 4.71875 L 46.730469 5.078125 L 47.269531 5.269531 L 47.808594 5.480469 L 48.339844 5.691406 L 48.871094 5.910156 L 49.398438 6.140625 L 49.921875 6.378906 L 50.441406 6.628906 L 50.949219 6.890625 L 51.460938 7.160156 L 51.96875 7.429688 L 52.46875 7.71875 L 52.960938 8.011719 L 53.449219 8.308594 L 53.929688 8.621094 L 54.410156 8.941406 L 54.890625 9.269531 L 55.351563 9.609375 L 55.808594 9.949219 L 56.269531 10.300781 L 56.71875 10.660156 L 57.160156 11.03125 L 58.019531 11.789063 L 58.449219 12.179688 L 58.859375 12.578125 L 59.269531 12.988281 L 59.671875 13.398438 L 60.058594 13.820313 L 60.449219 14.238281 L 60.828125 14.679688 L 61.199219 15.121094 L 61.558594 15.558594 L 61.921875 16.019531 L 62.261719 16.46875 L 62.601563 16.941406 L 62.929688 17.410156 L 63.261719 17.890625 L 63.878906 18.851563 L 64.171875 19.351563 L 64.460938 19.839844 L 64.738281 20.351563 L 65.011719 20.851563 L 65.269531 21.371094 L 65.53125 21.878906 L 65.769531 22.398438 L 66.230469 23.460938 L 66.441406 23.988281 L 66.648438 24.53125 L 66.851563 25.070313 L 67.039063 25.609375 L 67.210938 26.160156 L 67.378906 26.710938 L 67.539063 27.261719 L 67.691406 27.820313 L 67.828125 28.378906 L 67.960938 28.941406 L 68.078125 29.5 L 68.179688 30.070313 L 68.28125 30.628906 L 68.371094 31.199219 L 68.449219 31.769531 L 68.519531 32.339844 L 68.578125 32.910156 L 68.628906 33.488281 L 68.671875 34.058594 L 68.699219 34.628906 L 68.71875 35.210938 L 68.730469 35.78125 L 68.730469 36.359375 L 68.710938 36.929688 L 68.691406 37.511719 L 68.660156 38.078125 L 68.621094 38.660156 L 68.570313 39.230469 L 68.511719 39.800781 L 68.429688 40.371094 L 68.351563 40.941406 L 68.261719 41.511719 L 68.160156 42.078125 L 68.050781 42.640625 L 67.921875 43.199219 L 67.789063 43.761719 L 67.648438 44.320313 L 67.5 44.871094 L 67.339844 45.429688 L 67.171875 45.980469 L 66.988281 46.519531 L 66.800781 47.070313 L 66.601563 47.609375 L 66.390625 48.140625 L 66.171875 48.671875 L 65.949219 49.199219 L 65.710938 49.730469 L 65.460938 50.25 L 65.210938 50.761719 L 64.949219 51.269531 L 64.671875 51.78125 L 64.390625 52.28125 L 64.101563 52.78125 L 63.800781 53.269531 L 63.488281 53.75 L 63.179688 54.230469 L 62.851563 54.710938 L 62.519531 55.179688 L 62.179688 55.640625 L 61.828125 56.101563 L 61.46875 56.550781 L 61.109375 56.988281 L 60.730469 57.429688 L 60.351563 57.859375 L 59.96875 58.289063 L 59.570313 58.710938 L 59.171875 59.121094 L 58.761719 59.519531 L 58.339844 59.921875 L 57.921875 60.308594 L 57.488281 60.691406 L 57.050781 61.058594 L 56.609375 61.429688 L 56.160156 61.78125 L 55.699219 62.128906 L 55.238281 62.480469 L 36 36 L 36 3.269531 "/>
</g>
</svg>
