<?xml version="1.0" encoding="UTF-8"?>
<svg xmlns="http://www.w3.org/2000/svg" xmlns:xlink="http://www.w3.org/1999/xlink" width="72pt" height="72pt" viewBox="0 0 72 72" version="1.1">
<g id="surface656">
<path style="fill:none;stroke-width:1.07;stroke-linecap:round;stroke-linejoin:round;stroke:rgb(0%,0%,0%);stroke-opacity:1;stroke-miterlimit:10;" d="M 36 3.269531 L 36.570313 3.28125 L 37.140625 3.289063 L 37.71875 3.320313 L 38.289063 3.351563 L 38.859375 3.398438 L 39.429688 3.449219 L 40 3.519531 L 40.558594 3.589844 L 41.128906 3.679688 L 41.691406 3.769531 L 42.261719 3.878906 L 42.820313 3.988281 L 43.371094 4.109375 L 43.929688 4.25 L 44.480469 4.390625 L 45.039063 4.539063 L 45.578125 4.710938 L 46.128906 4.878906 L 46.671875 5.058594 L 47.210938 5.25 L 47.75 5.449219 L 48.28125 5.660156 L 48.808594 5.878906 L 49.328125 6.109375 L 49.851563 6.351563 L 50.371094 6.601563 L 50.878906 6.851563 L 51.390625 7.121094 L 51.890625 7.390625 L 52.390625 7.671875 L 52.878906 7.960938 L 53.371094 8.261719 L 53.851563 8.570313 L 54.328125 8.890625 L 54.800781 9.210938 L 55.269531 9.539063 L 55.730469 9.878906 L 56.179688 10.230469 L 56.628906 10.589844 L 57.070313 10.960938 L 57.5 11.328125 L 57.929688 11.710938 L 58.351563 12.089844 L 58.769531 12.488281 L 59.171875 12.890625 L 59.96875 13.710938 L 60.351563 14.140625 L 60.730469 14.570313 L 61.101563 15 L 61.46875 15.441406 L 61.820313 15.890625 L 62.171875 16.351563 L 62.511719 16.808594 L 62.839844 17.269531 L 63.160156 17.75 L 63.480469 18.21875 L 63.78125 18.710938 L 64.078125 19.191406 L 64.371094 19.691406 L 64.648438 20.191406 L 64.929688 20.691406 L 65.191406 21.199219 L 65.441406 21.710938 L 65.691406 22.230469 L 65.921875 22.75 L 66.148438 23.269531 L 66.371094 23.800781 L 66.578125 24.339844 L 66.78125 24.871094 L 66.96875 25.410156 L 67.148438 25.949219 L 67.320313 26.5 L 67.480469 27.050781 L 67.628906 27.601563 L 67.769531 28.160156 L 67.910156 28.710938 L 68.03125 29.269531 L 68.140625 29.828125 L 68.238281 30.398438 L 68.339844 30.960938 L 68.421875 31.53125 L 68.488281 32.089844 L 68.558594 32.660156 L 68.609375 33.230469 L 68.648438 33.800781 L 68.691406 34.371094 L 68.710938 34.949219 L 68.71875 35.519531 L 68.730469 36.089844 L 68.71875 36.660156 L 68.699219 37.230469 L 68.679688 37.808594 L 68.640625 38.378906 L 68.539063 39.519531 L 68.46875 40.078125 L 68.398438 40.648438 L 68.308594 41.21875 L 68.210938 41.78125 L 68.109375 42.339844 L 67.988281 42.898438 L 67.871094 43.460938 L 67.730469 44.019531 L 67.578125 44.570313 L 67.429688 45.121094 L 67.269531 45.671875 L 67.089844 46.21875 L 66.910156 46.761719 L 66.71875 47.300781 L 66.511719 47.828125 L 66.300781 48.359375 L 66.078125 48.890625 L 65.851563 49.410156 L 65.609375 49.929688 L 36 36 L 36 3.269531 "/>
</g>
</svg>
