<?xml version="1.0" encoding="UTF-8"?>
<svg xmlns="http://www.w3.org/2000/svg" xmlns:xlink="http://www.w3.org/1999/xlink" width="72pt" height="72pt" viewBox="0 0 72 72" version="1.1">
<g id="surface746">
<path style="fill:none;stroke-width:1.07;stroke-linecap:round;stroke-linejoin:round;stroke:rgb(0%,0%,0%);stroke-opacity:1;stroke-miterlimit:10;" d="M 36 3.269531 L 36.570313 3.28125 L 37.148438 3.289063 L 37.71875 3.320313 L 38.300781 3.351563 L 38.871094 3.398438 L 39.441406 3.449219 L 40.011719 3.519531 L 40.578125 3.589844 L 41.148438 3.679688 L 41.710938 3.78125 L 42.28125 3.878906 L 43.398438 4.121094 L 43.960938 4.261719 L 44.519531 4.398438 L 45.070313 4.550781 L 45.621094 4.71875 L 46.171875 4.890625 L 46.710938 5.078125 L 47.25 5.269531 L 47.789063 5.46875 L 48.320313 5.679688 L 48.859375 5.898438 L 49.378906 6.128906 L 49.898438 6.371094 L 50.421875 6.621094 L 50.929688 6.878906 L 51.441406 7.148438 L 51.949219 7.421875 L 52.449219 7.710938 L 52.941406 8 L 53.429688 8.300781 L 53.910156 8.609375 L 54.390625 8.929688 L 54.859375 9.261719 L 55.328125 9.589844 L 55.789063 9.929688 L 56.238281 10.289063 L 56.691406 10.640625 L 57.128906 11.011719 L 57.570313 11.390625 L 58 11.769531 L 58.421875 12.160156 L 58.839844 12.558594 L 59.238281 12.960938 L 59.640625 13.371094 L 60.039063 13.789063 L 60.421875 14.21875 L 60.800781 14.648438 L 61.171875 15.089844 L 61.539063 15.53125 L 61.890625 15.980469 L 62.238281 16.441406 L 62.578125 16.898438 L 62.910156 17.371094 L 63.230469 17.851563 L 63.550781 18.328125 L 63.851563 18.808594 L 64.148438 19.308594 L 64.441406 19.800781 L 64.71875 20.300781 L 64.988281 20.808594 L 65.25 21.320313 L 65.75 22.359375 L 65.980469 22.878906 L 66.210938 23.410156 L 66.421875 23.941406 L 66.628906 24.480469 L 66.828125 25.019531 L 67.019531 25.558594 L 67.199219 26.109375 L 67.359375 26.648438 L 67.519531 27.210938 L 67.671875 27.761719 L 67.808594 28.320313 L 67.941406 28.878906 L 68.058594 29.441406 L 68.171875 30 L 68.269531 30.570313 L 68.359375 31.140625 L 68.441406 31.699219 L 68.511719 32.269531 L 68.570313 32.851563 L 68.628906 33.421875 L 68.671875 33.988281 L 68.699219 34.558594 L 68.71875 35.140625 L 68.730469 35.710938 L 68.730469 36.289063 L 68.71875 36.859375 L 68.699219 37.441406 L 68.671875 38.011719 L 68.628906 38.578125 L 68.570313 39.148438 L 68.511719 39.730469 L 68.441406 40.300781 L 68.359375 40.859375 L 68.269531 41.429688 L 68.171875 42 L 68.058594 42.558594 L 67.941406 43.121094 L 67.808594 43.679688 L 67.671875 44.238281 L 67.519531 44.789063 L 67.359375 45.351563 L 67.199219 45.890625 L 67.019531 46.441406 L 66.828125 46.980469 L 66.628906 47.519531 L 66.421875 48.058594 L 66.210938 48.589844 L 65.980469 49.121094 L 65.75 49.640625 L 65.25 50.679688 L 64.988281 51.191406 L 64.71875 51.699219 L 64.441406 52.199219 L 64.148438 52.691406 L 63.851563 53.191406 L 63.550781 53.671875 L 63.230469 54.148438 L 62.910156 54.628906 L 62.578125 55.101563 L 62.238281 55.558594 L 61.890625 56.019531 L 61.539063 56.46875 L 61.171875 56.910156 L 60.800781 57.351563 L 60.421875 57.78125 L 60.039063 58.210938 L 59.640625 58.628906 L 59.238281 59.039063 L 58.839844 59.441406 L 58.421875 59.839844 L 58 60.230469 L 57.570313 60.609375 L 57.128906 60.988281 L 56.691406 61.359375 L 56.238281 61.710938 L 55.789063 62.070313 L 55.328125 62.410156 L 54.859375 62.738281 L 54.390625 63.070313 L 53.910156 63.390625 L 53.429688 63.699219 L 52.941406 64 L 52.449219 64.289063 L 51.949219 64.578125 L 51.441406 64.851563 L 50.929688 65.121094 L 50.421875 65.378906 L 49.898438 65.628906 L 49.378906 65.871094 L 48.859375 66.101563 L 48.320313 66.320313 L 47.789063 66.53125 L 47.25 66.730469 L 46.710938 66.921875 L 46.171875 67.109375 L 45.621094 67.28125 L 45.070313 67.449219 L 44.519531 67.601563 L 43.960938 67.738281 L 43.398438 67.878906 L 42.28125 68.121094 L 41.710938 68.21875 L 41.148438 68.320313 L 40.578125 68.410156 L 40.011719 68.480469 L 39.441406 68.550781 L 38.871094 68.601563 L 38.300781 68.648438 L 37.71875 68.679688 L 37.148438 68.710938 L 36.570313 68.71875 L 36 68.730469 L 36 3.269531 "/>
</g>
</svg>
